<mxfile host="65bd71144e" pages="2">
    <diagram id="c701K4DCAsef07YYJ8D1" name="Cahier des charges">
        <mxGraphModel dx="712" dy="479" grid="1" gridSize="10" guides="1" tooltips="1" connect="1" arrows="1" fold="1" page="1" pageScale="1" pageWidth="827" pageHeight="1169" math="0" shadow="0">
            <root>
                <mxCell id="0"/>
                <mxCell id="1" parent="0"/>
                <mxCell id="Yi0meD0Ld9YIVMPGZQtg-13" value="" style="rounded=0;whiteSpace=wrap;html=1;fillColor=none;strokeWidth=5;strokeColor=#FF3333;" parent="1" vertex="1">
                    <mxGeometry x="40" y="190" width="300" height="250" as="geometry"/>
                </mxCell>
                <mxCell id="Yi0meD0Ld9YIVMPGZQtg-11" value="" style="rounded=0;whiteSpace=wrap;html=1;fillColor=none;strokeWidth=5;" parent="1" vertex="1">
                    <mxGeometry x="350" y="140" width="470" height="370" as="geometry"/>
                </mxCell>
                <mxCell id="Yi0meD0Ld9YIVMPGZQtg-4" style="edgeStyle=orthogonalEdgeStyle;rounded=0;orthogonalLoop=1;jettySize=auto;html=1;" parent="1" source="Yi0meD0Ld9YIVMPGZQtg-1" target="Yi0meD0Ld9YIVMPGZQtg-2" edge="1">
                    <mxGeometry relative="1" as="geometry"/>
                </mxCell>
                <mxCell id="Yi0meD0Ld9YIVMPGZQtg-9" value="AJAX (http)" style="edgeLabel;html=1;align=center;verticalAlign=middle;resizable=0;points=[];" parent="Yi0meD0Ld9YIVMPGZQtg-4" vertex="1" connectable="0">
                    <mxGeometry x="-0.1793" y="1" relative="1" as="geometry">
                        <mxPoint as="offset"/>
                    </mxGeometry>
                </mxCell>
                <mxCell id="Yi0meD0Ld9YIVMPGZQtg-1" value="CLIENT&lt;br&gt;HTML, JS, CSS" style="shape=step;perimeter=stepPerimeter;whiteSpace=wrap;html=1;fixedSize=1;fillColor=#f8cecc;strokeColor=#b85450;" parent="1" vertex="1">
                    <mxGeometry x="50" y="210" width="210" height="190" as="geometry"/>
                </mxCell>
                <mxCell id="Yi0meD0Ld9YIVMPGZQtg-5" style="edgeStyle=orthogonalEdgeStyle;rounded=0;orthogonalLoop=1;jettySize=auto;html=1;" parent="1" source="Yi0meD0Ld9YIVMPGZQtg-2" target="Yi0meD0Ld9YIVMPGZQtg-3" edge="1">
                    <mxGeometry relative="1" as="geometry"/>
                </mxCell>
                <mxCell id="Yi0meD0Ld9YIVMPGZQtg-10" value="SQL" style="edgeLabel;html=1;align=center;verticalAlign=middle;resizable=0;points=[];" parent="Yi0meD0Ld9YIVMPGZQtg-5" vertex="1" connectable="0">
                    <mxGeometry x="-0.2517" y="2" relative="1" as="geometry">
                        <mxPoint as="offset"/>
                    </mxGeometry>
                </mxCell>
                <mxCell id="Yi0meD0Ld9YIVMPGZQtg-8" style="edgeStyle=orthogonalEdgeStyle;rounded=0;orthogonalLoop=1;jettySize=auto;html=1;entryX=0.5;entryY=1;entryDx=0;entryDy=0;" parent="1" source="Yi0meD0Ld9YIVMPGZQtg-2" target="Yi0meD0Ld9YIVMPGZQtg-1" edge="1">
                    <mxGeometry relative="1" as="geometry">
                        <Array as="points">
                            <mxPoint x="435" y="420"/>
                            <mxPoint x="155" y="420"/>
                        </Array>
                    </mxGeometry>
                </mxCell>
                <mxCell id="Yi0meD0Ld9YIVMPGZQtg-2" value="BACK&lt;br&gt;&lt;br&gt;Notre API&lt;br&gt;(.net core 3.1)&lt;br&gt;&lt;br&gt;Hébergé sur Azure" style="shape=step;perimeter=stepPerimeter;whiteSpace=wrap;html=1;fixedSize=1;fillColor=#fff2cc;strokeColor=#d6b656;" parent="1" vertex="1">
                    <mxGeometry x="360" y="210" width="210" height="190" as="geometry"/>
                </mxCell>
                <mxCell id="Yi0meD0Ld9YIVMPGZQtg-6" style="edgeStyle=orthogonalEdgeStyle;rounded=0;orthogonalLoop=1;jettySize=auto;html=1;entryX=0.75;entryY=1;entryDx=0;entryDy=0;" parent="1" source="Yi0meD0Ld9YIVMPGZQtg-3" target="Yi0meD0Ld9YIVMPGZQtg-2" edge="1">
                    <mxGeometry relative="1" as="geometry">
                        <Array as="points">
                            <mxPoint x="685" y="420"/>
                            <mxPoint x="487" y="420"/>
                        </Array>
                    </mxGeometry>
                </mxCell>
                <mxCell id="Yi0meD0Ld9YIVMPGZQtg-3" value="BDD&lt;br&gt;Mysql&lt;br&gt;&lt;br&gt;Hébergé sur Myalwaysdata" style="shape=step;perimeter=stepPerimeter;whiteSpace=wrap;html=1;fixedSize=1;fillColor=#d5e8d4;strokeColor=#82b366;" parent="1" vertex="1">
                    <mxGeometry x="600" y="210" width="210" height="190" as="geometry"/>
                </mxCell>
                <mxCell id="Yi0meD0Ld9YIVMPGZQtg-12" value="Déjà fait" style="text;html=1;strokeColor=#666666;fillColor=#f5f5f5;align=center;verticalAlign=middle;whiteSpace=wrap;rounded=0;fontColor=#333333;" parent="1" vertex="1">
                    <mxGeometry x="500" y="130" width="190" height="20" as="geometry"/>
                </mxCell>
                <mxCell id="Yi0meD0Ld9YIVMPGZQtg-14" value="A faire" style="text;html=1;strokeColor=#b85450;fillColor=#f8cecc;align=center;verticalAlign=middle;whiteSpace=wrap;rounded=0;" parent="1" vertex="1">
                    <mxGeometry x="90" y="180" width="190" height="20" as="geometry"/>
                </mxCell>
                <mxCell id="Yi0meD0Ld9YIVMPGZQtg-15" value="" style="shape=image;verticalLabelPosition=bottom;labelBackgroundColor=#ffffff;verticalAlign=top;aspect=fixed;imageAspect=0;image=data:image/png,iVBORw0KGgoAAAANSUhEUgAAAt0AAAHXCAYAAABgROYJAAAgAElEQVR4Aey9+XMdyZEmiP+hf5k169mxWa3Z2I52zLarZ6d7Mdsa7fTsaqZXvWbq1tHHzs5MtzVUkkpXt1SSilWq0lGtkrpVQh066mLdN6vI4gGS4E0CJEGAAEEQBIkHEAABAiAAgiBB3Ieveb7nmZGRkZGRiXhA5Hv+zB7yCA8Pj889v3DEi8ysgQyfpaUlwK+tD+vbGJK28bt9+zbg19bHtn2sb2OecR0/jr/K9i/HH/s3DQLliJdHHnkEHnvssTRmxMrato/5LxZqowLb/rCtr8aoF5KQbSNYnwRwykPb+PFFn9IBkrhtf1SbPo4/KaBSHlZbvNjuL8dfyoCTxG37oxz6OOmWnJbisBz+QJ22Pq7bx0m3gaddd6Jt+3jQMQgKjYhtf1SbPo4/TXAZFFVbvNjuL8efQZBpRGz7oxz6OOnWODChqBz+QJ22Pq7bx0m3gaddd6Jt+3jQMQgKjYhtf1SbPo4/TXAZFFVbvNjuL8efQZBpRGz7oxz6OOnWODChqBz+QJ22Pq7bx0m3gaddd6Jt+3jQMQgKjYhtf1SbPo4/TXAZFFVbvNjuL8efQZBpRGz7oxz6OOnWODChqBz+QJ22Pq7bx0m3gaddd6Jt+3jQMQgKjYhtf1SbPo4/TXAZFFVbvNjuL8efQZBpRGz7oxz6OOnWODChqBz+QJ22Pq7bx0m3gaddd6Jt+3jQMQgKjYhtf1SbPo4/TXAZFFVbvNjuL8efQZBpRGz7oxz6OOnWODChqBz+QJ22Pq7bV0MGptnOz88DftPU0cmyvuIjGHUY6cps4zc9PQ341bWZpsy2fazPrXix7Q+Ov8r2r+14sa2P46/y42/btm2AiXeacSxOluOv8uMFfRzn/7TnOekuPXNcB5zti8p1fTzoMInorge5zHY8c/xx/Mkxpjvm+ON40cWHXIbxwkl39pixfb1Vmz5eXmLwmwZdtAaiRiKu6+OfV43cGCvkun9dt4/jLza0jApc96/r9nH8GYVZrJDr/kX7eHlJrPsSC/LgX7TR1sd2fznpNvCMbdBd18eDjkFQaERc96/r9nH8aYLLoMh1/7puH8efQZBpRFz3L9rHSbfGgQlFefAv2mjrY7u/nHQbeMY26K7r40HHICg0Iq7713X7OP40wWVQ5Lp/XbeP488gyDQirvsX7eOkW+PAhKI8+BdttPWx3V9Oug08Yxt01/XxoGMQFBoR1/3run0cf5rgMihy3b+u28fxZxBkGhHX/Yv2cdKtcWBCUR78izba+tjuLyfdBp6xDbrr+njQMQgKjYjr/nXdPo4/TXAZFLnuX9ft4/gzCDKNiOv+Rfs46dY4MKEoD/5FG219bPeXk24Dz9gG3XV9POgYBIVGxHX/um4fx58muAyKXPev6/Zx/BkEmUbEdf+ifZx0axyYUJQH/6KNtj62+8tJt4FnbIPuuj4edAyCQiPiun9dt4/jTxNcBkWu+9d1+zj+DIJMI+K6f9E+Tro1DkwoyoN/0UZbH9v95aTbwDO2QXddHw86BkGhEXHdv67bx/GnCS6DItf967p9HH8GQaYRcd2/aB8n3RoHJhTlwb9oo62P7f5y0m3gGdugu66PBx2DoNCIuO5f1+3j+NMEl0GR6/513T6OP4Mg04i47l+0j5NujQMTivLgX7TR1sd2fznpNvCMbdBd18eDjkFQaERc96/r9nH8aYLLoMh1/7puH8efQZBpRFz3L9rHSbfGgQlFefAv2mjrY7u/nHQbeMY26K7r40HHICg0Iq7713X7OP40wWVQ5Lp/XbeP488gyDQirvsX7eOkW+PAhKI8+BdttPWx3V9Oug08Yxt01/XxoGMQFBoR1/3run0cf5rgMihy3b+u28fxZxBkGhHX/Yv2cdKtcWBCUR78izba+tjuLyfdBp6xDbrr+njQMQgKjYjr/nXdPo4/TXAZFLnuX9ft4/gzCDKNiOv+Rfs46dY4MKEoD/5FG219bPeXk24Dz9gG3XV9POgYBIVGxHX/um4fx58muAyKXPev6/Zx/BkEmUbEdf+ifZx0axyYUJQH/6KNtj62+8tJt4FnbIPuuj4edAyCQiPiun9dt4/jTxNcBkWu+9d1+zj+DIJMI+K6f9E+Tro1DkwoyoN/0UZbH9v95aTbwDO2QXddHw86BkGhEXHdv67bx/GnCS6DItf967p9HH8GQaYRcd2/aB8n3RoHJhTlwb9oo62P7f5y0m3gGdugu66PBx2DoNCIuO5f1+3j+NMEl0GR6/513T6OP4Mg04i47l+0j5NujQMTivLgX7TR1sd2fznpNvCMbdBd18eDjkFQaERc96/r9nH8aYLLoMh1/7puH8efQZBpRFz3L9rHSbfGgQlFefAv2mjrY7u/NaQwzXZ+fh7wm6aOTpb1LW0IS9v4TU9PA351PktTZts+1udWvNj2B8dfZfvXdrzY1sfxV/nxt23bNi/xTjOOxcly/FV+vKCP4/yf9jwn3UvJAWP7onJdHw86yTGhu9Bc96/r9nH8cfzpri+5zHY8c/xVfvxx0p3dx7avt2rTx8tLDH6DIJI3EDUScV0f/7xq5MZYIdf967p9HH+xoWVU4Lp/XbeP488ozGKFXPcv2sfLS2Ldl1iQB/+ijbY+tvvLSbeBZ2yD7ro+HnQMgkIj4rp/XbeP408TXAZFrvvXdfs4/gyCTCPiun/RPk66NQ5MKMqDf9FGWx/b/eWk28AztkF3XR8POgZBoRFx3b+u28fxpwkugyLX/eu6fRx/BkGmEXHdv2gfJ90aByYU5cG/aKOtj+3+ctJt4BnboLuujwcdg6DQiLjuX9ft4/jTBJdBkev+dd0+jj+DINOIuO5ftI+Tbo0DE4ry4F+00dbHdn856TbwjG3QXdfHg45BUGhEXPev6/Zx/GmCy6DIdf+6bh/Hn0GQaURc9y/ax0m3xoEJRXnwL9po62O7v5x0G3jGNuiu6+NBxyAoNCKu+9d1+zj+NMFlUOS6f123j+PPIMg0Iq77F+3jpFvjwISiPPgXbbT1sd1fTroNPGMbdNf18aBjEBQaEdf967p9HH+a4DIoct2/rtvH8WcQZBoR1/2L9nHSrXFgQlEe/Is22vrY7i8n3QaesQ266/p40DEICo2I6/513T6OP01wGRS57l/X7eP4MwgyjYjr/kX7OOnWODChKA/+RRttfWz3l5NuA8/YBt11fTzoGASFRsR1/7puH8efJrgMilz3r+v2cfwZBJlGxHX/on2cdGscmFCUB/+ijbY+tvvLSbeBZ2yD7ro+HnQMgkIj4rp/XbeP408TXAZFrvvXdfs4/gyCTCPiun/RPk66NQ5MKMqDf9FGWx/b/eWk28AztkF3XR8POgZBoRFx3b+u28fxpwkugyLX/eu6fRx/BkGmEXHdv2gfJ90aByYU5cG/aKOtj+3+ctJt4BnboLuujwcdg6DQiLjuX9ft4/jTBJdBkev+dd0+jj+DINOIuO5ftI+Tbo0DE4ry4F+00dbHdn856TbwjG3QXdfHg45BUGhEXPev6/Zx/GmCy6DIdf+6bh/Hn0GQaURc9y/ax0m3xoEJRXnwL9po62O7v5x0G3jGNuiu6+NBxyAoNCKu+9d1+zj+NMFlUOS6f123j+PPIMg0Iq77F+3jpFvjwISiPPgXbbT1sd1fTroNPGMbdNf18aBjEBQaEdf967p9HH+a4DIoct2/rtvH8WcQZBoR1/2L9nHSrXFgQlEe/Is22vrY7i8n3QaesQ266/p40DEICo2I6/513T6OP01wGRS57l/X7eP4MwgyjYjr/kX7OOnWODChKA/+RRttfWz3l5NuA8/YBt11fTzoGASFRsR1/7puH8efJrgMilz3r+v2cfwZBJlGxHX/on2cdGscmFCUB/+ijbY+tvvLSbeBZ2yD7ro+HnQMgkIj4rp/XbeP408TXAZFrvvXdfs4/gyCTCPiun/RPk66NQ5MKMqDf9FGWx/b/a0hhWm28/PzgN80dXSyrG9pQ1jaxm96ehrwq/NZmjLb9rE+t+LFtj84/irbv7bjxbY+jr/Kj79t27Z5iXeacSxOluOv8uMFfRzn/7TnOeleSg4Y2xeV6/p40EmOCd2F5rp/XbeP44/jT3d9yWW245njr/Ljj5Pu7D62fb1Vmz5eXmLwGwSRvIGokYjr+vjnVSM3xgq57l/X7eP4iw0towLX/eu6fRx/RmEWK+S6f9E+Xl4S677Egjz4F2209bHdX066DTxjG3TX9fGgYxAUGhHX/eu6fRx/muAyKHLdv67bx/FnEGQaEdf9i/Zx0q1xYEJRHvyLNtr62O4vJ90GnrENuuv6eNAxCAqNiOv+dd0+jj9NcBkUue5f1+3j+DMIMo2I6/5F+zjp1jgwoSgP/kUbbX1s95eTbgPP2AbddX086BgEhUbEdf+6bh/Hnya4DIpc96/r9nH8GQSZRsR1/6J9nHRrHJhQlAf/oo22Prb7y0m3gWdsg+66Ph50DIJCI+K6f123j+NPE1wGRa7713X7OP4Mgkwj4rp/0T5OujUOTCjKg3/RRlsf2/3lpNvAM7ZBd10fDzoGQaERcd2/rtvH8acJLoMi1/3run0cfwZBphFx3b9oHyfdGgcmFOXBv2ijrY/t/lZs0t3Z2Qnbt2/3vm+//Tbs3LkTPvroI9izZw9/GQOOAY6BDcUAcglyCnIL8cyVK1cy8bxtUq8mfZcvX4YXX3yReZ6v5w1dz5wX5CMvMuFd1/mv4pLuDz/8EF577TXYzSTEJMQxwDGwiTGwe/duj3swGU/zcX2QcNE+5vl8JEmczLKfyh0DMu+6yFfieFAxSffZs2e9AS9w8F54r+EYvNF4DrYfuQjPH70Mzx3rhd/wlzHgGOAY2GAMIJcgp2w/3OlxzPv7j8GePXv9f3JeffVVOHfunMi1sfuuDxIu2cc8z2MYj+HVGwMmvNvc3Oy9PTKWcFMW2Oa/iki6X3nlFX/pyEd79sGbB8/A80d7OLHYYGLB5Fa95Ma+T+975Jw3D56Gj/bu85JvnPF+5513EineNqlXqj7m+fQxydcxY1bpMaDi3TfffDORd00FbPNp7pPuF154wZ9dem//CU62OdHmf7Y4BrY0BnAG/L39x31ewjXHuo9tUq9EfczznDxWevLI/dtYjKflXR0ni2W2+TTXSTcRMa7ffv1Q65YOtHzBbOyCYfwYv0qLgTcbz/pLTnSJt21SrzR9zPPMDZXGDdyf8sW0Ke+KibVu3zaf5jbpxp8acf02JtyvHmrnhJtnNzkGOAaci4FXD533E++4pSa2Sb2S9DHPly854cSPsa3UGDDhXV2iLZbZ5tNcJt14Mw09/o9nuJk4KpU4uF+VEdt4jwlOEOAa7/Pnz4t87u3bJvVK0cc8XxnxzzzGftyKGEji3QgRx5ywzae5TLrxkYA4iOEa7q1wJrfJJMIxwDGQJgZojTc+01v+2Cb1StHHPM/XWJprjGU5XuQY0PGuzMNxx7b5NHdJNz6fFRNufEqJyRNKnt7fC4+/fRUefbk838deuQo/fL0XfvLuFfjF3kvwbOMl+NXhHvj10Sv8DwEvd+AY4BjwYuCFo92wu/RIwcbGxhC/2yb1StDHPM8JlJxA8THHRNoY0PFuiIQ1B7b5NHdJN81+4E8HJg7AhPu/PtgDf/yfL5fl+5m/6oEvfKUX6r7fDQ+/0AL/sPMM1O/rgGcPdXPizQmXUYyaxDHL5H/AeftgszdhgM/wFj+2Sb0S9DHP5z/embPYhy7EQBzvihys27fNp7lKuvGVv/j2IXwJhcksNzr8B6/1wmfrrsIn/lPx++/+01XY6Jd04fbf/z+98Ed/3gd//tWL8NUnDsD3t++Fn+5o8hJvnPF2IejYBiY/joGtjwHkLLzxGzns6tWrPs/bJvW862Oe3/pYZb5gH1RKDMTxrk/ACTu2+bSGFKbZzs/PA37T1NHJmurDx255a7kbjhkns3//Th/89XcH4DP/bQj+5K+G4E/x+9fSl87Tlspjjv8Edf23IU/nZ/9mCP7ya8PwX7/dAX/10BvwwBMveIk3znjjUpNKCVzuB5Mwx8DGY+D9hqMehyGXESea8h/JJ23zro95fuNxxtcqY8gxEMSAineTeJTKbfNprpJuvAkJk+7XG88ZJ7NPfnQNHvrlKHz7ZxPwWP0kPP7MJPz9M1Pe9/FnpsD7Pj0FPxa+P3p6Cn70VPH7w6emAL8/wG/9FDz2i0l49BeT8MiTk/DwzyfhoZ9PwINPTsADj7fD//u3z8J/+c4T8O1n34GfvHsCnjlw0dhOvkCCC4SxYCwqNQZeb2zxOOyll17ipHtpyceABjjcMs/z9V+p1z/3a2tiW8W7Iufo9q0n3Qkz68piMlBZmOGkqT58zi0m3duPmCezzx0dhOcP34b3Ts3Dma4FuFxY9L/dvYtwqXcRuq4uwsUri9B5ZREu9CxCR88itF9ehPPdi9B2aRHOXVqElq5FOHNxEU53LkDThQU42bEAx84vwJ7Tc/Bi4x34/ksd8Bff+Bl8/oFt8I2fvwo/fusoPLW/k5NuXtfNMcAx4MfA9iOdHoe9/fbbPlOa8p9fIWEn7/qY57cmMeGEkHGv1BhQ8W4CjfrFtvk0V2u68Tm3mHSbrufGAHq56Tq83zELp66twM27a7C0sgbzi6swO78Cd+dW4M7cCszcW4GZuVW4M7/qbSfvLsP4zDKM3V6G0dvLMDazAjdur8DQ1DL0TyxBYbz47Z9YgfbrS/Bh+z34yTvn4c+/8WP4TN234Gs/ewl+9MYheKrhgj/YVmowc7+YqDkGzGMAX1WMHIZcRh/bpJ53fczz5vHE1x5jxTGQHAMq3iX+Tdra5tNcJd3Fmyj3wG+OXTVOZotJ91042b8MI9MrcHt2GUYm56F/9B4UbsxC7whu78G18XkYmVqEoYkFuDJyDy4O3oWOa3fh4uAsXLmxAD0jC3C+fxZOX70Dp3ruwNneWegeWYTWgUXY0XYX/v6tNvjzr2dPun/0wH1QU1Pjfz/2wCHjPm7kotuqdjdiM9dNJhnGyE2Mnjt21Uu68eVe9LFN6nnXV8k8z9elm9cl+6Wy/aLiXeLfpK1tPs1V0o0zRPhNc4FQ0n2ib9mbqb55exGuDs/Chb4ZON972/u2981A1+BdKNyY8xLutsIMNF2ehhOXbkFzz23ouHYPzl+7B8cv3YYD7bdgX9sUHO6chvMDc3Cmbw7ebZmBx984B3/2tR9lnunWJb8PfDpIxr3E/NMvpsJAh5euXV09Lqtskqp0/37r0Z9AXV3dhr7ffuwnma5D4jEie9uknnd9hE+aGMwLz6fpE8syx1ZaDLjEu8S/SVvbfFrxSff2puvwXvtdOF5YgoGpZRibXoDLQ3eh7eo0tPTcgrOXb8G5K7eho+8O9Azfg+6he3Dmym04dvEWHL4wBce7pqG1bxZaCrNwqHMa9rROwq4zN6Hh/CSc6b0DJ6/cgbeap+BHr52BP/vaDznp5vW7mRKxSiNX1/tTv+sM1H3xi5mT7i9+8X6o33U6k68pqSSyt03qeddH+KSJobzwfJo+sSwn3ZUWAy7xLvFv0tY2n1ZB0j0E756/A8d6F+Ha5BLcmFqAroE7cLbnFjRfmoKmrik43X0LWntvw6XBWegcmIWm7ttwqGMKDpyfhMMXbsGZq3fh9JW7sL/9Fnx4ZgLebxqD3S3jcPLyNBy5NA2vn5yAH7zSDF/46g846eakO1MiVmnkmof+PPSzX2ZOurf9w68y+5mSSiJ726Sed32ET5oY2t6UD55P0yeW5aS7EmPAFd4l/k3a2ubTyk+6Tw3Bu20zcPTqgncT5PDkPHT2z8Dp7ik4cXESjndOwqmuSTjbMw2dA3ehvX/Wm93GhHvvuZtwoH0SmnruwMnLd2Bv6xS83zQO75wYgZ2nb8Cxrklo7JyCV4+PwWMvnypb0l3OC4+XlzCxlzO+XNb9zP4L8KWvfDV14v2lrzwAz+7v4KQ7abSKKU8axDIl3TnheZevB7aNx4LNiAFXeDeGniKnk/gqUiHhRFUk3e+03obDPfNQGF+E6xPz0NE3A02XpuBY5yQcvVBMvE9fvgXt/Xehre8uHO2chn2tE/DR2XHY1zYJJ7rvwLFLd+Cjlil459QYvHV8GHY0jcDhzgnY3z4JLx+9AY++dBI+/8BjZZnpLueFwEk3E20548t13Y/98vXUSfcPfvVG5oQb8aCkkrjZNqnnXR/hkyZ2tp8agjzwfJo+sSxzc6XGgAu8S/ybtLXNpxWfdL90ahDePjcNhy7PQe/YIgzenIf2wgyc7JryEu7DHcXEu6n7lpdwn+u96y0p2XNuAnaeGYc95ybh6KU7cKTrDuw8OwVvnRyDN44Nw3unRqCxYwL2nZ+Alw6PwCMvnihb0q1LjNVlh+CBT98HH/OfhnIffOzTL8KPFEs/1PVLZPfGNkFH6WbO0E2ch+BHT2yDP/h4+MkrNTX3wcc+/gX4/BOHlG1WKpFwv/I3SP7qSA989W8fNE68H/jmt+BXhy9z0p00UmnKkwaxLEl3Xnge3+MgPqUKj0XeeOCJF0Plf/DpL4TKURZlPhbh3BrvHJaJ+sR9bEuuh8eyDVgnzk60h+wXdWe1SdTB+/njz6w+c4F3NRQVKkriq5CwwUHlJ90nB+Gtlltw8NI9uDK6AAPj89DWOwMnLk4BJtyH2ifgSMcEnLx0C84V7nrrtw923IKPzk7AB83j8FHLBBy+OAOHLt6BD85MwRvHx+C1I8PwzskRONA+AXtaJ+CFxmF4+Pnj8LmvlGemW5cYR8o+/YVookzJ98e3RZLgSH3/UYWH4PMfl56aItZ/A5NtqZza8bf3weffqB4iyUpAXG9rY+Qnr+w2Trp/8mq6pyepfEtJJfGzbVLPuz7CR4Vd3LmXcsLzccks9UuXdOO7H+SkmRJgcYtypA+3sk5RlvZRr1hHtlNMtqkOyme1SWyL97eW/7YK/63mXeLfpK1tPq2KpPvNM1NwoGsWem4sQP/YPLT2zsCxzik41D4JB89PeIn38a4pONt7B5qv3PFumNzp3TA5DjvPTkBj5wwc7JyB909PwWvHxuCVw8Pw1okRaDg/AbvPTcDzB67DtueOwue+8mhZlpfEJ8a9IJcRIcZt/+CJ8AUu16fng0ceU1jzBXjAnyl/Ef7AT6x1iTcn3VtFaNxuOM51ePz66FX45kOPJSbeKIOyOl0mZZRUEtnbJvW86yN8TLAkGUy688DzcjKLx9QH3MoJsjjTHcfp8nkx6cZ9uTzuWGxLtlNVB+1VnVedE20S+8v75jxVaVhtNe8S/yZtbfNpxSfdL54YgDdOT8D+zjvQPTIPhdF5aLk6A0cuTHkJ9/7WCTh4/iYc7ZzyX3yzr+0W7Dg9Ae+eGocPTk/AgQu3oaFjBt5pmoRXjo7B9kPX4Y3jI7C3bQJ2tdyE3+wfhId+fQQ+92UHku6PfwEeoNnlN6LJMSXVdAErk+4ngp8QiwQqJc9yudgmJuZv4LKTL3izMjzTXb2kSjGWh+3Pd5yAL2oeIYhlP3//eChBytovSiqJ7G2Tet71ET5p8M0Lz8vJrGnSLSfjODMtJrK4jzLyeXlmHGUIV1kncj3plO2U9aIOub4sE2cTtc9bHhu2kneJf5O2tvm0KpLu15tvQsOFGei6Pg9Xb8zD6Z4ZONQxCQ2tN2HfuXHY3zruLTXBp5Qc774Du1tvwXtNN+Htk2PwfvNN2Nc+DXvO34a3Tk3A9sOj8GLjdXjt6DB8dG4CPjgzDr/edw2+96tD8Nkvf3/LZ7qTkuqa0Jrs6Ez5xxTLU+TZ8d/ISXdNDXzsgRfhR5Ts+zPiTCo8sOQnBr7z+JOxs91YZsuXlFQS2dsm9bzrI3zS4I1Jdx54Xk5msybdmCBjXUqSVVhhmTjrLM5kk7y8bISS8iQ7sb6cdJvYRO3yNj+8WG5fbRXvEv8mbW3zaeUn3cevwWunxmBv+zR0Ds3B5eE5ONV9G/a3TcCeljHYfWYU9p4dhQNtN703Th65eBt2np2Et0+OwxvHbsA7J0fho9Yp2HVuCl4/Pg4vNo7A8wcG4ZXD12Fny014v3kMfrmnH777bCN89kv5T7pFkvb2pSTduwBVN1iKy034JkprCVq5CY/1B4PfM/vOw/1f+kok8b7/S1+Gp/e2WfMpJZVE9rZJPe/6CJ80sfliTng+KZmVE1lKlOUEWuZpnGWmhJlwk3XJdVTH9E9Akp3YRhabyDbeBrxT7VhsFe8S/yZtbfNpxSfdLxy/Bq+eGIXdbbegfWAOuq7PwbGuW7CnZRx2NY/AzqbrsKt5GPa2jMLhC5NwsH0SdjSNwRtHR+DVw9e9J5XgbPaO0+PwypEReO7AkDezvb1xEHacGYd3m0bhmY/64DvPHITPfukR52a6I7PSUhItLy+JErG0tKQ0i51crwZqxBsvefbbWtJW7SRdzv5/v/6lSNL9/adesuo7SiqJ7G2Tet71ET5p/JwXnk9KZuVEmZJuxEKuG+Xq4hNMCDcTeVkH1lG1RedJN21N2sB/CEiet5xsq2JgK3iX+Ddpa5tPKz/pPtYPLx+/4c1Ut127B52D9+DoxSnYc3bUS7g/PDUIO5uGYM+ZYTh4fhz2t43D+6duwOtHrsOrhwbg9aOD8H7TDXj31A14+fB1eG7/APx6Xz+81DgI758eh7dPjsLTO3vhwaf2w5/eXwlJ933Rp5LEJc9vvAif/7T8uMDwjZXychfVBcfnmIhdiYFfNl6CL3/tm37i/eWvfgN+2dhlNWmgpJLI3jap510f4ZMmJl7ICc/LSaqczOqSbsQDZ5flJSFxiXOSLh2+SXaKddPYJNbjfeZ9ioGt4F3i36StbT6t+KT7+WP9sP3oCHx4dgLO9d2FCwN34fjFCWg4NwK7Tw/BrqYB+Kh5APacGYIDbTeg4dwo7Dg1DG8eHYTXjwzAm0cH4L1T1+Gdk8PwyuFBeHsDtzkAACAASURBVOHAADy3/xpsPzQE750eh7dO3ICnPrwKD9Y3wJ/e/3DuZ7q9JFmxfCS0rhtvkvQfLUjEQc/sDifd8hpyush4S7jx1rVY+PEL7/tJN+7bto+SSiJ726Sed32ETxrc88LzcjIrzmRjf+MSZTwvJ+gkjzPJYuJNOlXLP0wxle2MazvufJxNpu2zXPWNC5vNu8S/SVvbfFrxSfdzR/vhxcPXYcfpm95zuC8OzcLpHnwxzhg0to3A/nPXve+B1mFobMe13WPw0ZkbsKNpGN47ed1LuD9oHoH3m0bgzePD8OrR6/DKkSF4/fgI7Dg7AW+eGIWnPrgKD/5iH/zpFysk6cYZlQfCRF4jPjKQbqQsrd0WCRJfyiMOAJx0Vx95ivGQx/1fH70CX3/wIfjat78Hv7HwiEAZA0oqiextk3re9RE+Mm6647zwvJzMIldicox9w21cskrJOJbjvoiFPPNNSTfKyPrwmNojHXhMdlEZHROXxyXXWJ7WJmqXtzw2iDGw2bxL/Ju0tc2nNaQwzXZ+fh7wm6aOTtZUXzYy7oMXcClI8xi09t2Fnhtz0DFwB8713oLTlyfgVNdNONE1Dse7bsLxrkk4enESGi9Mwv72CdjXNg57W8dhT9tN2N1607txcsfZm/D+mZuw4+wk7GydhrdOjkP9B1fh209WVtL9m2PRxw36CTQl3eLNkzH7oRlyXtcdGixFwuF9twagn711EPBbDr8QjxEnmvIfySdt866P8EmD/XNHc8Lz0hNFKKmN21ICTUl3nJx4XkzK09RDHVmSbrHtuH3RpjR+ZVm3eLHc/thM3k3iUSq3zacVn3T/+nABftVwDV4/MgxHOqfg7NXbcKp7Co5dnIDD7ePQ2DYGB1pHYX/rKOw7NwZ78YkmZ8dg15lR+PD0DdjhzXIX13S/c2rUW8P91olRb4YbE+6XGofhH9/phr/7xz3wJ3XbKmN5CSXHiuTaS6IV56Nkex/8QWQJSnURSLkJivXnM54oqSwXqdseJDZbH+GTJr7zwvPYJ3lmWuROuSxt0q2bkRbbidsvR9KtsimNb1k2nzznmt+IV4h3Tbe2+a/il5f8srEXfrGzF57e2QcvHxyEN44MeTdIvnygH15q6IMX9xXghb0FeH5vLzy/pwDP7S7Abz7qhV9/dBV+uesKPLvzCjyzswee+fAKPP3BFXhqxxWoF76YcP/o5Q74xhO74DN/81BlJd24xvDT0hptWmbi3USJL8CRyj+OyTY/s9s1wmF73Bm4iPzpZ00ifzre6Dbv+gifNDGbF56nPsnLNzC5xoRXnpmmpBvrYTkeq5aMoD5KmKkNeYu65bqYfOM5ap/qyPbFJc4btYna4607/FSpviBeScuvtvm04pPuZw72wM92dMHjb7TD46+egR++dAK+/9wRePhXB2HbLw/AtmcPwEPP7C9+n94P38PvU/vhu081wHfr98F3vO9eePAXe+HBJ/d5328/uRfoizPcmHD/zcMvwWf+5nve2rhv/PxV+PFbR+Gp/Z1l+Xm6Ui8K7hcTbzXEgEz+tkk97/oInzSxwDzP3JEmXli2+uKFeIWTbgB/bXgSGARamgvmmYOX4In3z8LDL+yHr//0Vfjrh+rhL77+Y/jclx+Bz31J+t7/CHzW/z4Mn70/+OJNkqqvt6QEZ7j/5nvwJ1/8LvyX7zwB3372HfjJuyfgmQMXOemmpSq85VjgGPBigHiM+C7vSTL1w3Sb1F/Ch3m++hKjND5nWY6PNDFAvGLKUySXxFckZ7qt+JnuZxsvwT/sPAPf374XHnjiBS8pxp/KPlP3Latf1IkJN7aBbWGb2HaaoGBZJhGOgcqPAZn8bZN63vURPmmuBeb5yr9u0sQDy3I8yDFAvGKaHJOcbT6t+KT7V4d7oH5fB/x0R5OXDOMsNC7/+NrPXrL6RZ2oGxNubAvbxLZlx/MxkwHHQHXHgEz+tkk97/oInzTXCfN8dV9TaWKFZaszVohXKJk23drm04pPuvHZj88e6vaSYJx9xmUfuN4abwCx+UWdqBvbwIQb28S2+QKvzguc/c5+j4sBmfxtk3re9RE+cfipzjPP8/Wmigs+x3FBMUC8Yppsk5xtPq34pBsBR0LGmRD8CRLXWeMNjk81XLD73d/p6cY2sC1OuPlip4udtxwLYgzI5G+b1POuj/ARMTPZZ57n68wkTlimOuOEeIWSadOtbT6tiqSbL7LqvMjY7+x3F2NAJn/bpJ53fYSPi75jm5hTOAbyGQPEK6bJNsnZ5lNOuvmJCrwEhmOAY2ATY0Amf9uknnd9hA8nN/lMbthv7DcXY4B4hZJp061tPuWkexMHWxcDkW1iguQY2NwYkMnfNqnnXR/hw3G5uXHJeDPelRwDxCumyTbJ2eZTTro56eZZTo4BjoFNjAGZ/G2Tet71ET6VnABw3zjB5RjY3BggXqFk2nRrm0856d7EwZYvss29yBhvxtvFGJDJ3zap510f4eOi79gm5hSOgXzGAPGKabJNcrb5lJNuTrp5lpNjgGNgE2NAJn/bpJ53fYQPJzf5TG7Yb+w3F2OAeIWSadOtbT7lpHsTB1sXA5FtYoLkGNjcGJDJ3zap510f4cNxublxyXgz3pUcA8Qrpsk2ydnm01wm3QQeb/cAY8AYcAzkMwbKReq2B4nN1sfxnM94Zr+x3/IQA8S7plvb/MdJ9x6+UPJwobCNHKeVFgNE+rZJPe/6Ks3P3B/mLo4Bd2KAeNd0a5tPc5V0P/bYY4Bf/jACjAAjkFcEZB6zTep51yfjk1c/s92MACPgDgJZecU2n3LS7U5MsCWMACNQBQjI5G+b1POuT8anCkKCu8gIMAJlRiArr9jm05rbt29D2u/09DTgN229OHlTfVlBK7MvWT0jwAgwAsYIEI8RH5ryH8knbfOuj/AxBpQFGQFGgBFIQIB4JYk/5XLbfMpJd4KjuJgRYAQYAZsIyORvm9Tzro/wsYk562IEGIHqRoB4RU6qk45t8ykvL6nuOOTeMwKMwCYjQORPzdr++TLv+mR8CCfeMgKMACOQFYGsvGKbTznpzupBrscIMAKMQAYEZPK3Tep51yfjkwFirsIIMAKMQAiBrLxim0856Q65hQ8YAUaAESgvAjL52yb1vOuT8SmvN1g7I8AIVAMCWXnFNp9WTdK9vjYPa0s3YHWhAKvzvbC2dB3W1+4BwHo1xBv3kRFgBBxBQCZ/26Sed30yPmncxjyfBi2WZQSqB4GsvGKbT6sm6caEe/HWLlgYfRYWRuthcfIdWF3oh7W1ZVhfX6ueyOOeMgKMwJYiIJO/bVLPuz4ZnzTOYp5PgxbLMgLVg0BWXrHNpxWfdK+vzsLaYgFWZvbBwshjMHftr2Gu//+DhevfgqXJN2H5bhssL4zBysoirK2tVk8Eck8ZAUZgSxCQyd82qeddn4yPiZOY501QYhlGoHoRyMIriJZtPq34pBsT7sWbz8DCUB0sXvsTWOz/FCwO/F+w0P8fYaH3j2F+4EGYnTgGc7MTsLQ0D2trPOtdvZcl95wRKD8CMvnbJvW865PxMfEI87wJSizDCFQvAll4BdGyzaeVm3SvL8H6yhSszh6DxRvfgIVr/ycsXft3sDTwCVga+kNY6v+3sNj1L+Be1x/CdH893B4/A/fujsHy8jIn3tV7XXLPGYGyIyCTv21Sz7s+GR+tQ5jntfBwISPACBQRSMUrAmi2+bRik25MuFfunoalqZdgeeLvYHns87A88ilYHv4ULI18FpYH/hiWu38H5jv/DUx0/iWMX/0FTN+8APfu3YOVlRUBcju7DQ0NUFNTA3V1dXYUZtBSX1/v2YBb/jACjMDWICCTv21Sz7s+GR+dl5jndehwGSPACBACaXiF6uDWNp9WbNK9tjQKS7f2wtLNJ2Fl6m9hZfIvYGXsj2D5xqdgZeRPYXXg07B2+T6Ya/9XMHb2E3C9/eswNnjce7U9gry+rn+qCSbPaZJoVdKtOic6W9xP255Yl/Y3O+lGfFRfsof6TzJ0Xt5S31EePyRvuq2trZVV8jEjsGUIyORvm9Tzrk/GR+eoPPC8zv68lMVxLdnPXE5I8NZVBNLwitgH23xawUn3GCzfPgBLN38BK1NfhZXJz8Lqzf8Iqzf+D1gd/ASs9f4bWOv6lzDX9nEYafrfoP/s/TB49SDcvHkT5ufnOekWoy7jflqijpuB56Q7owO4mpMIyORvm9Tzrk/GR+fEtSX3eV5nf17KmMvz4im2Mw6BNLwi6rDNpxWbdK+vTMPKbCssTb0Mi+NfhqXR/xtWRv8QVq/Xwmrhf4HV7v8Jljv+B7h95n+Gq0c/BRdPPgi93YdhdHQU5ubmrK/rppkATCDpozpHZeXYbvZMN/WBCJuOaUv9x5noOBmUlZNuqi9ut6pvog28zwiYICCTv21Sz7s+GR8dpnngeZ39eSuL42nm8rx5svrsTcMrIjq2+bRik25YXwYk5OW7R2Hu+pdhru8TsDz0b2Hl2r+G1cv/0ku451t/G0ZO/i6c3nc/nGh8Hrq7zsLY2Bgn3WLEWdhPImpMqimxVs12UxkSe9yHk+44ZPi8awjI5G+b1POuT8ZH678c8LzW/pwVMpfnzGFsro9AKl7xa/GabkDg0nxW5rrg3vWH4W7vH8HiwCdgpe8+WO78H+Feyz+DiVP/HK4e+Q9wbN/jcPTIPui5fAkmJiZgYWEhcXmJLsmjMiIonMmlc5hA0odmB8RzVCZvqT5u6SOeKxQKIM4Y4z6eEz+ivHge5chWMbHFfVEnyuCxKCPqidsn3XK52H/RBlmOk24ZET7OMwIy+ec9SU7ri6T+yviY6HeZ5+N4F/slcqDYzzTcq5JFzkzif+JV5GfTD3O5KVIs5xoCWXgF+5DEV2n7aX61CZptG2GqLwtoqwuDcG/0FZgd+DosXf9jWOn7XVg4/9/D1Ml/BlcO/mto3f+f4dThF6Dl7GkYHBiAmZkZD+SkGynjiFROUomkaCsm2HGEK0Dt76rao3O6Nn0FAH7ij/XoIya7aA99SDfZLW9lQqd6qi3Vlcvk/tMgIGKEdei8aJ+si+wV+ybL8DEj4AICMo+Z8p+p7XnXJ+Nj0m+XeV7HTTIHYl9JnnhT3orcS9woy9CxKEt6VXVMMEYZ0ivLy/2gNnArfug8c7mICu9vBgJZeAXtss2nlZ90L47C3MQeuDf8Q1ga+Rws9d0Hc62/DaPH/gWc3/cZOLX/MWhp3g2XL1+G8fFxb2mJySMDicBwSx86h8QkkwqViSQkExXpUW2pflx7qJcIFrdEjqIdso44OWxfVR/Poz5M8qktla3yOdIln1f1n2RF/UzUMnJ8nGcEZPK3Tep51yfjY+LrVYd5XuZdsT86DhS5G+vI3Et1VXxMbWIZfegccqw4XlC5yZb4WZYlW8TxjWSZy2W0+HgrEMjCK2inbT6tiqR7YWofLIw+Dss3Pg9Lfb8Ls63/FIaP/69w5sD34OTR9+FiZysMDw/DnTt3jF+OQwSGW/qoSIbKVKSkOkfy8lbVnuoc1aMykQTpHG7xQ/aiHeKHknGRsMXytPvUjlxP1X+yUbQb91GHbKeoj+pR38Qy3mcEXEJAJn/bpJ53fTI+Jr7DpNtVntdxk8yBabgX+VnH0ViGvEkfnR0kk7RlLk9CiMtdRSALr2BfbPNpcEWmQMq2Eab6soCGj5RavNUAi2N/X0y6+38X7rX9Uxg+8b/DmUNPQlNTkzdrOzU15a3lNn0NvExgRJ5xJEjlYjKpOhfnBrk9lFOdo/oq3aI8kSfKqT5UjnU2+iFdsh6VjShD8jRDwkm3jBwf5xkBmcdM+c+0z3nXJ+Nj0m+XeV7kXbkvKg4k/tNxLyXnJKvbUps6O0gmaUvtyHKqfqAMyTOXy4jx8WYjkIVX0EbbfFpDCtNs8TnW+E1TRydrqi8LaEjGS9P7/aR7uf8+uNf638HoyVpoP/k0tLWdg+vXr8Pdu3e9WW7TQJAJLI50SJ+qXHWO5OWt3B6Wq85RPZVukicixC2RIdWjrUoW/6FAvWk/1J5cT2UjylDb9A8KJ90ycnycZwSIx4gTTfmP5JO2eddH+KTxscs8T3yGW/mj4kCSJ97Ercy9VE+UidunNkmvyg6SSdpSG7Ic2UOcTeXUJp1nLidkeLvZCBCvJPGnXG6bT6su6V7q+x241/pPYOxULXQ2PQsXLrTDjRs3vNe/r66uGscBkQkRWBzpkEJVueocyctbuT0sV52jeirdJI/EKe5THXmLCTn9RElki9u42Xy5Ph1TXTqmrcpGKqM6aAMTNaHC20pAQCZ/26Sed32ETxpfy0m3SzxPXItb+RPHgUncG1dP1i8e6+wQ5XT7xMuyjM4eqsNcLqPGx5uJAPGKnFQnHdvm06pYXhKd6f4nMHqqFi40/Qo6OjqqLukm8qdk1jSJJmJFEiUdJhcNka4sS/poFkQspwECy8hOlI/7kHwau+J08XlGoJwIEPlTG0T6dLzRbd71yfiY4CEn3cVfNN3geR036ThQ7DfJEfdiAov7ptyNunR2iG3p9pnLdehwmcsIZOEV7I9tPq38pHvlFizfbYGlyV/D8sifwULv78BM6z+H4ab/AJ2nX4SLFy/6L8TZyEw3kSCSkupDpCkmmKpzqrp4TkWYqnNUX6VbJU8z2aJdpEO1VelVyYnnshA11qd6ZCO2HfdR9S1Ols8zAluJgEz+tkk97/pkfEx8teYwzxM3qTg2DZ/KssSPOl4UsSM7cJv1Q23K9WXb5HKqx1wuI8PHm4VAFl5B22zzqTpDTEDBthGm+rKAtr62BEjIK3cOwMLQX8CdS/8Kbrb8Dlxr/jO4eO5N71GBN2/e9NaobyTpRsiIUHCLSTh9iOyQeETiTSIqqo9b0iESpuoc1VHpjpMnQiTdaDv2QSZzOo/ychm1q9qSfrlMZaMoQ+VUX9dmXN9EfbzPCLiAgMxjpvxnanve9cn4mPQ7DzyPPCaOCzgWELfRuEAcK3MdnUd5KiPOw3PE3YQVyqMc8jh9SF6WpXKTLdkry2JbWEb9iCun+tQHWQ6Pbdip0svnqhuBLLyCiNnm04pPuinMVue7Yf7GD+FWz1/CjY6/hv62H0DPxYPQ398Pt27dgsXFRTB9cgnqVBEDEh2RirylhFwkJSIqWVY+jmtPZQP1l3SL7cXJkyy2i33Q9QNlRCKn9lRbuR90TLLUrmgjldGWcMO6KB/3ietbnDyfZwS2CgGZ/G2Tet71yfik8ZOLPI/2izxGPIhbOk8cmJZ7sZ6oT7VP+G2EI1V68Rx9mMsJCd66ikBWXrHNp8FVkwIp20aY6ssKGnZtdfk2zN1uh6kbh+B6YT9cu3ocBvq7YXR01H9ySdJbKEWI4ggMSZOIFEkJ95GQVKRE5+IIjc5ju6r2VOfIRtJNZB6ng+RJFxEp1hf7QX1BOdMP2S9vqb7KRiqjLcmgDtyP+5D9aeyL08XnGYFyIiDzmCn/mdqUd30yPqb9RjkXeZ7sFxNk5FYcK4jfRJ7Gc2m4Vx5ziKtRJ5bRZyMcKXM4HZNuVT+ojLYkw1xOiPB2MxHIyiu2+bRqkm6cxV5YWPBegDMxMeG9fXJyctJ77Tuex6UlaZLuzQwWbosRYAQqBwGZ/G2Tet71yfik8TzzfBq0WJYRqB4EsvKKbT6tmqQbQwsJGV/xjktJ8ItgLi8ve+c54a6ei497yghsJQIy+dsm9bzrk/FJ6yvm+bSIsTwjUPkIZOUV23xaVUl35YcV95ARYARcR0Amf9uknnd9Mj6u+5PtYwQYAfcRyMortvmUk273Y4UtZAQYgQpCQCZ/26Sed30yPhXkeu4KI8AIbBECWXnFNp9y0r1FAcDNMgKMQHUiIJO/bVLPuz4Zn+qMEu41I8AI2EQgK6/Y5lNOum16lXUxAowAI5CAgEz+tkk97/pkfBLg5GJGgBFgBBIRyMortvmUk+5EV7EAI8AIMAL2EJDJ3zap512fjI895FkTI8AIVCsCWXnFNp9y0l2tEcj9ZgQYgS1BQCZ/26S+mfoeffRRwG/cR1WeZJ+MT5xuPs8IMAKMgCkCWXklia9M2yc5TroJCd4yAowAI7AJCMjkb5vUN1OfKqkWIVSVJ9kn4yPq431GgBFgBLIgkJVXkvgqrS2cdKdFjOUZAUaAEdgAAjL52yb1zdSnSqpFaFTlSfbJ+Ij6eJ8RYAQYgSwIZOWVJL5Kawsn3WkRY3lGgBFgBDaAgEz+tkl9M/WpkmoRGlV5kn0yPqI+3mcEGAFGIAsCWXklia/S2sJJd1rEWJ4RYAQYgQ0gIJO/bVLfTH2qpFqERlWeZJ+Mj6iP9xkBRoARyIJAVl5J4qu0tnDSnRYxlmcEGAFGYAMIyORvm9Q3U58qqRahUZUn2SfjI+rjfUaAEWAEsiCQlVeS+CqtLTWkMM12fn4e8Jumjk7WVF9W0NKCwvKMACPACJQLAeIx4kRT/iP5pO1m6nv44YcBv3E2qcqT7CN8yoU/62UEGIHqQ4B4JY6r4s4n8VVcvbjzNY888gik/W7btg3wm7ZenLypPgKt+sKFe8wIMAKVggDxGPGhKf+RfNJ2M/V94hOfAPzG2aQqT7KP8KkUf3M/GAFGYOsRIF6JS4bjzltPusmQNFsi2DR1dLJp9W29+9gCRoARYASyISBzYVr+k+vLx5up75Of/CTgV7aBjlXlpvZlQ5drMQKMACMQRYA4KVqiP0PJuF7KvJTXdJtjxZKMACPACGwYAZn8bZP6ZupTrdkWAVKVJ9kn4yPq431GgBFgBLIgkJVXkvgqrS2cdKdFjOUZAUaAEdgAAjL52yb1zdSnSqpFaFTlSfbJ+Ij6eJ8RYAQYgSwIZOWVJL5Kawsn3WkRY3lGgBFgBDaAgEz+tkl9M/WpkmoRGlV5kn0yPqI+3mcEGAFGIAsCWXklia/S2sJJd1rEWJ4RYAQYgQ0gIJO/bVLfTH2qpFqERlWeZJ+Mj6iP9xkBRoARyIJAVl5J4qu0tnDSnRYxlmcEGAFGYAMIyORvm9Q3U58qqRahUZUn2SfjI+rjfUaAEWAEsiCQlVeS+CqtLZx0p0WM5RkBRoAR2AACMvnbJvXN1KdKqkVoVOVJ9sn4iPp4nxFgBBiBLAhk5ZUkvkprCyfdaRFjeUaAEWAENoCATP62SX0z9amSahEaVXmSfTI+oj7eZwQYAUYgCwJZeSWJr9Lawkl3WsRYnhFgBBiBDSAgk79tUs+7PhmfDUDNVRkBRoAR8BDIyiu2+bRqku719XVYXVuD+cVFmJqZgcmZGZhbWICV1VXvPMclI8AIMAKbgYBM/rZJPe/6ZHzS+GQdAFbW1mB2YQHGZma8L+4vr6zA2tpaGlUsywgwAhWEQFZesc2nVZN0Y8KNSfbwxAScvnQJmrq6YGhsDO7euweLS0tMyBV0cXFXGAGXEZDJ3zap512fjE8aX2LCfXdhAfpu3oT9Fy9638L4OMzMzTHPpwGSZRmBCkMgK6/Y5tOKT7pxhhtns+/Oz8Pw5CS09/fDvo4O2H3+PJzt7YXCjRswefs2zM3Pw8rKCqA8fxgBRoARKBcCMvnbJvW865PxMfHDWonnb8/PQ//kJJy5dg0+6OiAHe3tcLJQgJ7RURifnvZ4Hme9medNUGUZRqByEMjCK9h723xa8Uk3Jtz3Fhbg+sQENPf0wIHubjh4/TrsGxyEd8+fh71tbdB17RrcnJqCe3NzsLq66gwhF+proaamBmrrC5UT+dyTKAINdZ6fa2pqwUlXFxqgrqaGYzHquUxnZPK3Tep51yfjYwIy8vyd+XkoTExAY08P7O3uhrPDw9A0NATvdXTAB+3t0HHtGoxNTjrH8yb9YxlGYNMQ2OzxaJPGlyy8gpjb5tOKTbr9Ge65OS/h7hgYgIOXL8Oevj44cucONExPw8tdXfDyuXOwv7MT2vv6YLREyMvLy5rEO0hAMCE2+tbWe9dLQ11Jvq7B6PopX9JdgPraoi2JphTqodbrZx1ErRaxUJWXuulfxFG8amtroa6+AZL+rSjghVlbW7KlpAeP6+qhQaxMbSV0jHwRL7ZZfQvaibcFAEr90soAQKGhDmpLvvViE/ENARQOPWN5Pw4c/ccg3C2nj2Tyt03qedcn46Nzpj/DPTcHfRMT0DI4CPu6u+FIoQADd+9C38wM7Ll8Gd5ua4MDXV3Q1tcHI6UJFp7x1iG7mWU8HuVuPPLCI/BbdGIwGNdic6RSXlRURXlG+caXNLwiRr9tPq3YpFue4caE+9jYGJyYnYXjS0twYHER3puehlcGBuDXLS3w1tmzcL5QgLGJiYSZEINgkpNxTdKtS6x1ZWJQZNkn3TUJWZxWjhLcUn9jVUlyyouwtj4m8S5AQ11xxl9Zr9R2bX3pXwJqK9aYIlqJJEd6yto3zKWL/0BESSvwaqFQ788067rl+0qOv5hfS9LKU+JfE+urwGbei0dAJn/bpJ53fTI+8UiCt3QQZ7gx4W68fBkaurvhwtgY3JidhdmVFbizvAwDMzPQPDgIr7W2wuvnzkGrMMHi0i+bun5WepnPRTqCw0mF0q+/ynFrUzibx6NiLAYJN47L0fHLIE8Sk25USv4r0/iShlfE6802n1Zc0h03w72vrw9Ozs5C8/o6HF1fh4a1NfhgdRW2T0/DE11d8POWFvjgwgU4hzMhRjPeolsCMogGX1hOPiISUdXTlcl6Uh/7M5eaGWoILiwVF1LCWFdXWh6hEkLD6GKKlBeggUhUeeEGSal3Ydc1QEGc1S40QD0l5KQ7tq0wQr7t0el7T9AvL2PffFxiSIb8L/6zQd0M98YbjfxfAcSZbZzJLtaXZhB8/9eEZsJj5b0G9fEQsYlPKBGQyd82qeddn4yPCkSc4V5eXYXbwgw3JtzH+/q8hHsJAPBZJavr67Cwtgb9MzPwYXc3vNzaCnu6uqClvx+Gp6Zgdm7Oe7IJr/FWobyJ53w+4vFIe2yOFAAAIABJREFUhboL41FgVzAO0NgUzV8o6db5M9BY3Av0xo5zcpUUxya8olJnm08rLukWZ7ibenq8JSU4w40J96nlZTi2vg4H1tdh19oavLW2Bs8vLsI/Tk/D49euwY9bWuCFlhYv8R5NnPEOu4cSpGjwheXkI109XZmsJ/2xQYBriVC8qMR9hSWU+MVcSdTPyAwq1asJJ4aRFtBO0k116DgiXDzhk5gy6Rb7I+4rlCW0F9u3hH9osCW/rjBzHdct6o9qBojKxNikc6byfs+pvzH/KPhyvBOLgEz+tkk97/pkfFRAYsI9U1rDjb9i4pISmuGew8cDAgDeEo/JNCbeOONdmJmBo4OD8HxrK2xvbfUS7xuTk17izTPeKpQ38xyPR5jAqvldHIPEfYV/iJ/VioIxJcLfBvh7zeFMf/DrLI1R4thStCrBToXp3imyP2JfXAXz8ya8otJmm08rLumeW1yE6zdvwvn+ftjf3e2t4cYlJTjDjQn3wfV1+Gh9Hd5eW4OX1tbgmdVV+OnyMnx/chK+0d4OjzU1wY7z56GjtxfGp6ZgcXHR6HGC8cEXuFGWoXXV9N9isC3+dyjLB5pw7W69t8Y5qFMTXd8sVlDsk35V4oXi2nK6OEoXN12Iymtdko2YQuU14n/FAQnE2RfRgydIl9KQoEYae9PIBi2U9sieUN/EmWmxz5Ha/gmtDUkJPNngE1mArRKmiLxvBhpeuh9AmjkXRXhfi4BM/rZJPe/6ZHxUYOJjAXtv3oTm/n7Yc+mSt4Ybl5TQDLdcZ2V9He6trcHl6WnY3tkJT505A7suXIC2/n4Yv3VLy/NKrq2tg/qGgr8kjrgymnyoOSksLy5ZqPNMD5WX7mchrq+tle5jwRrer37S/Rz4z3rMPTNh/TiW0P02eI9N8HNiob7O/wWtBvscFIUgVmIk328TqhE9IJvi+F5bTpzF41Hxl00lsQuxmHE8onGI4px8QseBVzMm3WUcX0x4JbA/2LPNpzWkMM12fn4e8Jumjk7WVJ8JaPjSm1MXL8Ke9nY4ODzs3TSJa7hxSYk3w40J9/q6l3A/vbYGP11dhR8uL8P37tyBbw4MwHfa2+Efjx2DD5qb4crgIMzOznqPEgxcoN6LD75AXpbJmnTr1zinSIa0M9mUXKn/+6aLz7+2JdILei1c6L5wqDRIlP2kUExK1e1LGoJDnR2BlP/fusqksvfN615pnbrKAMFO2o3YRAXelgguxvcRP6eVDzXm/zMWJdqwHB+pESAeI0405T+ST9rmXR/ho0aveBZffLPv4kV4v70dzgwPezdN4hpumuGW63o3XK6vw9j8PBwfGYG3Ll2C3zQ3wzstLXB5aCiW54mzKeENb4PrjeSU14SCk3z5OiGp9X7RkpJu+eZx/1cv6Z91asMvpyS6tBW5VeAfvJE93CeaxWzwOTJcLrXr0btaR7FegJHsk8hxhKdECR6P/KGCfO2fEHDSlaEYlcfEQ9w/PMWqpdgQ2vXjOPLfGI0x0XgRrFXuxutUihufJF5J4k+53DafVmzS/dH5895jAQ/cvg0Hl5a8Ndw719aCGe5Swv2D5WXYNj8P356chG9evQrfOXsWfrJ/P7x55Ahc7O2F6elpwKeZJH1MAkUlozpHbSnLhIsm/FAKYX20fIMCKYxsNURGBChdnEUVqgtKda7UINksXKyiKZRQhi54qiP/Ry5WVO379aRBJ2Ywipqk6ofq3Ab65nFf0b5o+6pOBWvb1fJkX8wAR770sUwrL9lEGCtjQ5LlwwgCMvnbJvW86yN8IsAJJzDpbsCk+/x5aB4a8p5Scnd52VtKolqf7b2NeGUFhu/ehWNDQ/DmhQvw7JEj8NqJE9BZKMTwPF0n8vK2QumXxmDmV8nVZC9dL8LFS/KYmEaewCQkxZFy4fFqgjovmaqVZt+95mPkw+0HT48Sz+MjTIP7Q4KxIvSPBfUtMvvO45GHP+ETM/6E/6FRTTBRDIrJq+pcKdiovVBwUCAG40horDUYj/yJPkkvxUsoJood92/+D/Ux5peXwML4fwxCMhkOiFfkpDrp2DafVuTykqHxcWgpFGBHRwe8dvky7Lh927tpEtdw45ISmuHGhPuhuTn41tQUfLO3F75+9Ch8f/du2N7QAIdOnYLLV6/C5OSkN6Of5OP44AtqqmRU56hGtKxEfLHJDhFjLalI3FIb8kVI56MXk3BRSBcgJc/S6eC/a7mgIP6sKiWMRB5+opjYlaKAXy9j0k31JVut9g0g9RKN2Pax15GkWsaKSLqEcVp5WR3Vj41DuQIfiwgQ+dM5In063ug27/pkfFR44Kvd8U2Tp3p7YceFC7CvpwcGZ2a8myZxDbf8mV9ZgdF797xnd7949izUNzbCa42N0NjUFM/zKeI8LV9q5YWkW8W/VFfmbLnPdEzyoi7VuaK8xBWkBLcRbuTxSIRHuU+YZU26qf4WjkcUK6p4ozIxtoo4UBzFjMO6sSPFdafEPOakCa+oqtrm04pLuvGGGHzJTf/oKDS0t8NrbW3w6uCg95QSvGnSW8O9ugqUcH97YsJLuP/u9GnYtnMn1O/YAR81NkJrayv09fW5lXRTMBpcwKrgUZ7zdYr/SQfJe+RXI91/xTEE4ZN1nN2qtYKkS3dxqjpE9SSSkkXjkti4834fZL3UXpq+5T3pBiJUMWZkhPk4DgGZ/G2Tet71yfiocMRnbN+Zm4OrY2Owq6MD3mtvh9NDQ95TSvCmSVzDjUtKaIZ7dHYWWoaHvSdU1R84AE/v3g27jxxJ4HmKc3wkWjAbrLInPvlQJavB/TLRZKWoPa0+sgnfZ1CPS1ZwWYq/TruY+IhtxevXcD9xHXGgP3bEJFYCJ5J9iVtfp8gtGpt4PApDSj4SsA/PNAe/zogVi0tdpYmvkgDFSkhPjH4xxkT9xX3h14+Yp5UV5ei6E2Mgqi3tGRNeUem0zacVl3Svra15y0Hw1e6X8IU4XV3w63Pn4KddXfCPt255N03iGm5cUkIz3F87cgQe2rkTfrlzJ3zQ0AAnmprg0qVLMDw8DDMzM+4sL0m6oIQLQRU86nNEaMJPW0R8yoRXd0HElOnsVrYhDFRZZ7ppYFB32l+vGBaLsd/TEVOWpW8ApZ/ezEkl9p+BkG1q0ozOhFNfTOVlEKm+uf2yhmo+lsnfNqnnXZ+MjypWMJleXFqCiZkZ6BwchIOXLsHrbW3eYwHxKSV40yQm3jTDjQn3yy0tgAn3S3v3wgcHDsCJ5uZEnlclHKplHCSnTDqIIwSy0conzHQrJwDwWf5Ski0nSaJt8e3TeKDgBrkfdCyMO3KbdKzyofoctc/jEWgnN2I4WOeTuLE2YTyiWCFf6rZijKn9G/zDiU8rU39i+qYWNj5rwisqZbb5tOKSbgQNE++5+Xnv1e4d/f3wdksLPNnSAj++ds17SgneNOmt4e7tBZzhxoT75+++C+/v2wenTp2Czs5OuHbtmjfLPVd6NbzKGeI5Ckxd0KlkVOdIb6SMLiiBvEl2I1tqh34+omNlX8iGBKINmUh1xJOU2Mf9x+uXK8hf11lVWwp5ZRJLdcvdN9sz3T45x2DlY0lJMpGaqbwMINUnfXI5H+sQkMnfNqnnXZ+MTxyWxPP4lCl8WtUbra3ec7jxsYD4lBK8aRLXcOPr4PEdDJhw/2LXLi/hTsPzyrfhIkfUBvFvxJkC/2nlUyfddD0GTytpKBSgUHqpgaot1bkizpT0KriB+JH6IR/HOSrlebKNxyN6x4L+lwRyhwezyic+/6teYlN0jm6mW+c+8pUyV4irSDZy0h2HUPT8VpG6KRmjxSsrK94yE3y1O77i/YPOTu853PhYQHxKCd40iWu4cUkJznBjwn2slHAPDAx4Cfe9e/c8Paobc2RUTIJPJaM6R7ojZXTxaP5jpbqptqTXm1XWkK7wU57uv12vTGQCusjEc2ggnVcm3mRHDRD5GvWJdMptSZVVSTedK3/fLK/p9h+zJMwOif0lTPy4CbBVwhSRF5UJa8h9fVI5H2oRkHlsq/hUa6RQuNn2yfgIpkR2cZkJLifEV7vj4//wxTfec7g7O72nlOBNk94abmGG+3hTkzexkoXn8ZGZ+Hi82tI/5pRsRLhatJSuJ+Fi08qnTbqJv2OuR1VbqnNFk4kbDJLuhHZFCFLtk14ej5RPlomMT0Jc+WOqeA7BpxhUjrXpxyPyZ3wckYRiS7bEJd3k/5h4Vmg0OpWGV0SFtvmvIme6ETDvpQil9d34and80yS++Aafw/3djg7vKSV40ySu4cYlJfLMBybc+NQSk4Qb2zMJPpWM6hw5PFoWzGjI1xTVybYloq2BuvrSgKIMeGpfQcjUMF0w4rIQusgURlMfkUgixVRPVUbt4RbbpMpUh45FOWGfEuxAbHP7Fm1fME6xmyTv4xh0yNdCdSlBwIK08r4y3CGMlTESkuQDBQIy+dsm9bzrk/FRQOifEnkeJ1jwTZP44punz571Hgv4ZkeHd9MkruH+8ODBDfO83zBdA6XrTXc9+deLcG2SvHhN+rqF61NZLrWt0p+kK759GgsUHC+36//CpuBu0YDU+2QDj0f4BBnVfVUepBbHWhojhBA18lp8HMVXp7ZiJ9MoziyPL2l4RbTeNp9WbNKNoCEhY+LszYRMTnqJN7745snjx+GnBw7Ay/v3w+5Dh+Bkc3Nk5gPr4c+Xph+T4FPK+AFWB+FHAAaJkUi8pAOT1MjNPfiTYumlOaZ2k5yot6hb8RYE39Z6/6UQVD/YCoRJb3ukejFXtP84ogjBBLo8m8r5GniyUXuhB/b4XaF6/okACdyL65uPd0y9sBbUU/yJMVbcJ2AcAAPfxb7WPa28YBDZLsalUMy7CQjI5G+b1POuT8YnAc4iz5dmvPHV7ph47+rshOeam73HAr7e2OjdNHny9Ol0PO+tkw6/BMezBW9WLK2f9q9H4oEQh4lPZwr/Ypd0DWnLqS1q3L+Wa70X9vh4hZ4OFV5aEK+fOE6R7MntCv8c8HiEYOBNrNL7FxSY+f4RdiL8TvUcHY/I9Lg4wnGv+CjMYCzCX4nixkPSh9s4naJMlv20vEJt2ObTik66EbTQTMjEBFwoFODD06fh7aNH4fCpU97d63jTpPhTY5oZbnKMSaCoZWiGVVy3VVwrqJYXEzmxjrhv/shAsj+42Q71KAjXSyCLbSQlW2S3/58sEQgNEn6jwQ6RTg3OkIvXqbB0Aok97ov/gHgfg7ZQjtojk+h40/rmD5TButAAjeKej6Oy31Ef6eRV/UorX7Iq9eMO5X5V+7FM/rZJPe/6ZHxM4oV4fnZuDvDV7m19ffDuuXPw+smT0NjcnI3n/Ws0hndCCRElq1FZ/wU0RDYGiQVdm6rrVjWzTfwV5Ud8ikkxERR1xeunfkT5RdUu+iZIpKJ9L9rD45E/FsYEM/mPQoSORZ+pqpIfff0G4x/pDo21fqzHj0e69mU7gzbUMSHLB7o18RcIZdrLwivYkG0+rfikG0ETZ7zxpht802RXby/0XL0K/f39MDIyAlNTU0BLStLMcJP3Kfjjg0nzH5x853npBh2dTuXNPfiYqJSv3iX7g9d74804qpls+udAQcaBkuKefAEbEEGofXFpSkk3zeCHBhV60L6YpBu1JSfdW9E3Ipf4n2bJ/6E++wm42g84sx16VBhiFP4vJuSttPL+wKuMkZBqPohBQCZ/26Sed30yPjEwRk57PL+yAph446vde65fh86+Pu853Fl5nniH1nB71yLxTsSCQjDTidcp8jhyk4KT6NqOGy+05Qp9aErole34S2hpLFDpUp0rdod4ScEvMe16bZdeVS/jRDZEoEo8QXbweKSFytpYG+BNib+23VJhbBz5j64MJ9345B/NcBRcK2UYX7Lyim0+rYqkG+ODZkIWFxe9V/7imybxxTeYbONjAfEpJXjzJcrxhxHYFARoECsDwZTH/mzEXB5b8qtVJn/bpJ53fTI+aTzNPJ8GLZZlBAQEtnw8Ku/4kpVXbPNp1STdGFpIyDiLjck1LiEhMHEfX6rDCbdwAfLupiBAP8PFzXhtihGmjWw5KZsa6racTP7EQ7aszrs+GZ+0uDDPp0WM5RmBIgJbOh6VeXzJyiu2+bSqkm6+sBgB9xCgpS3xy0ycsNn/GVPxs7MTBubHCJn8bZN63vXJ+OTHs2wpI5B3BLZoPNqE8SUrr9jmU066836NsP35R4D+w4+5gXXLO4jrNUtryXMxI7/lgOkNkMnfNqnnXZ+Mjx5NLmUEGAGrCGz2eLRJ40tWXrHNp5x0W41WVsYIMAKMgB4Bmfxtk3re9cn46NHkUkaAEWAEkhHIyiu2+ZST7mRfsQQjwAgwAtYQkMnfNqnnXZ+MjzXgWREjwAhULQJZecU2n3LSXbUhyB1nBBiBrUBAJn/bpJ53fTI+W+EjbpMRYAQqC4GsvGKbTznprqy44t4wAoyA4wjI5G+b1POuT8bHcXeyeYwAI5ADBLLyim0+5aQ7B8HCJjICjEDlICCTv21Sz7s+GZ/K8Tz3hBFgBLYKgay8YptPa0hhmu38/DzgN00dnaypvqygbZWTuV1GgBFgBGQEiMeIE035j+STtnnXR/jIuPExI8AIMAJZESBeSeJPudw2n3LSndWDXI8RYAQYgQwIyORvm9Tzro/wyQAtV2EEGAFGQIkA8YqcVCcd2+ZTXl6idA+fZAQYAUagPAgQ+ZN2In063ug27/pkfDaKB9dnBBgBRiArr9jmU066ORYZAUaAEdhEBGTyt03qedcn47OJruGmGAFGoEIRyMortvmUk+4KDTDuFiPACLiJgEz+tkk97/pkfNz0IlvFCDACeUIgK6/Y5lNOuvMUNWwrI8AI5B4Bmfxtk3re9cn45N7h3AFGgBHYcgSy8optPuWke8tDgQ1gBBiBakJAJn/bpJ53fTI+1RQb3FdGgBEoDwJZecU2n3LSXR7/slZGgBFgBJQIyORvm9Tzrk/GRwkin2QEGAFGIAUCWXnFNp9y0p3CaSzKCDACjMBGEZDJ3zap512fjM9G8eb6jAAjwAhk5RXbfMpJN8ciI8AIMAKbiIBM/rZJPe/6ZHw20TXcFCPACFQoAll5xTafctJdoQHG3WIEGAE3EZDJ3zap512fjI+bXmSrGAFGIE8IZOUV23zKSXeeooZtZQQYgdwjIJO/bVLPuz4Zn9w7nDvACDACW45AVl6xzaecdG95KLABjAAjUE0IyORvm9Tzrk/Gp5pig/vKCDAC5UEgK6/Y5lNOusvjX9bKCDACjIASAZn8bZN63vXJ+ChB5JOMACPACKRAICuv2OZTTrpTOI1FGQFGgBHYKAIy+dsm9bzrk/HZKN5cnxFgBBiBrLxim0+rJuleB4CVtTWYXViAsZkZ74v7yysrsLa2xhHJCDACjMCmICCTv21Sz7s+GZ80TmGeT4MWyzIC1YNAVl6xzadVk3Rjwn13YQH6bt6E/Rcvet/C+DjMzM3B4tISJ97Vc+1xTxmBLUVAJn/bpJ53fTI+aZzFPJ8GLZZlBKoHgay8YptPKz7pXltfh5XVVbg9Pw/9k5Nw5to1+KCjA3a0t8PJQgF6RkdhfHoa5ubnvVnv9XWcK+EPI8AIMALlQUAmf9uknnd9Mj4mXmCeN0GJZRiB6kUgC68gWrb5tOKTbky478zPQ2FiAhp7emBvdzecHR6GpqEheK+jAz5ob4eOa9dgbHIS7s3NwerqKnDiXb0XJvd8CxFoqIOamhqoqamF+sIW2hHXdKEB6jz7aqB2AwbK5G+b1POuT8Ynzh3i+XLzfKG+DmpLvvditLZebJ73GYHqQWAreNoC92bhFXSqbT6t2KTbn/mYm4O+iQloGRyEfd3dcKRQgIG7d6FvZgb2XL4Mb7e1wYGuLmjr64ORqSkv8cZ13omJtx94mCSI31qora2D+voGcDFvSGKGhrpSX+oakkQzl29GG2bGFaC+ttjfxO4W6kuDbh1EkQmSsZoaVXnJmtiYqYHa2lqoM4iZApJPba2UANRCbV09NIgBR20ldIx8ES+2WX0L2gnbEpwPX2fCNadIgAoNdVBb8m0xSaqFuhBA4QgxlvfjIPs/BjL52yb1vOuT8Ql7KnxUdp4HgEJ9rcTxNVCjiLmwZXxkD4FN5mk0nPgzNLYXOceEq6uPp+O8HfguOlGRkts3yL1peEXsjW0+rSGFabbz8/OA3zR1dLKm+tKARjMfmHA3Xr4MDd3dcGFsDG7MzsLsygrcWV6GgZkZaB4chNdaW+H1c+egta8PRk1nvDUXZZAc6Ad60bGu7FMSVhPOfFKbRwNV9EJDPit/Ym9qMNmZ1F+tnBQLsdBJckGchBNIMXcO+lGAhjrF4C8NCrX1pX8JqK1YY4qayRexYqSn1I6pXLq+BTERjZeUxByXJJXsj+qPSao08v6AXFuf6R9r4jHiRFP+I/mkbd71ET5B7MfvlZ3nIYg/3T9t8RZyiQ0EtPwrNKCVM+Uy1CfJmvNZtfK04AR/N0i4Eb8o9wbXlhJf5GD5n1vySwbuJV5J4k+53DafVlzSjTMfy7iGW5jhxoT7eF+fl3AvAQA+q2R1fR0W1tagf2YGPuzuhpdbW2FPVxe09PfD8NQUzM7N6dd4k/PlLKRQgAb8KVKYZYsGmx+VFbtD5Od83/3/njUz1BCQh+xudKCfuNaVlkeohIqCxRmzSDnGTJBQqzCjNjzyqmuAgpiZFxqgnhJy0h0Xn1LEkV6qJhVvSt/8AU5JpETMOv8IVvv+rAnNbONMdpHYpRnqtPJeU/p4EKxR7srkb5vU866P8FGCVzq5aTxP8aGMTZ2FXGYVAfKD7pdEWzyNhhNfRIhRz9XEp9XH07K3A46khDo6rqXkdq+JQG/ENbIJ0jHxipxUJx3b5tOKW16CCfdMaQ33wcuXvSUlNMM9h48HBAC8VRKXj2DijTPehZkZODo4CM+3tsL21lYv8b4xOekl3rFrvGMvSvK0+B+vNNCTSAVvc5N0JxC15yIt4YvEIe4rnJsQM4QZ/ncv5tT+AFATTiQjLaCdxEQJbVFdGiSoGp0vbsX+iPthKe8oob3YviXin9CuZAr1R/XLBZWJ5E/nTOX95qi/sq98gfgdIn+SINKn441u865PxkeFhzs8r7KOz9lHwCDZssXTaDxd32piDJYcidc/1alKnhY9jrlPaSlOfcHHSuTdonQ6bvdbIJxF7P3C+B0TXlHVts2nFZd042MBe2/ehOb+fthz6ZK3hhuXlNAMtwzqyvo63Ftbg8vT07C9sxOeOnMGdl24AG39/TB+6xYsLi6qHydIjo+5KIvtBEShGtQLDfXe+lz6T7D437G0NrdksFIW1443FEIJWmRtag2u9w1mRin5KV4A4j8GdV5L4fJSL0qzsF6d0ppi32a0IZQhgr9O2pcp/VRP651VbRBe8q8ENTFrnUM6JJtqa9UYlqCMbEiXykcorC2X4oDIRhkWkmzEECoPzeboYyiig06QLqUhJCTM0kcXqkcGHvt988DVrJVHO9MQc4CVstuEiU/WaeUD3MD/ZyH9P9Qy+dsm9bzrk/ERUaf9zeB5ivc4HivaEv1l04izIMq91Dcl10v3bBAnqTg5lv+8X8TCv8J6fVNwbFg/jlO0BA7vPQkIP3SDqWIsoD7h1qRfory8TzaVnaexYeIKJZEI5T5XB1wSZ5/cH+84qZ1SJYpFpTmSjjSyEZtIl9+vkoT2H5qwFmqfkmzyGx0H0mm4PaiVlXtNeEVshfZt82nFJd344pt9Fy/C++3tcGZ42LtpEtdw0ww3AUlb70ac9XUYm5+H4yMj8NalS/Cb5mZ4p6UFLg8NwezsLKysrJB4sKXgVF4FgZh/8UpBrF+fGx7IKWij5I9ESLLCRe8nuUSUNUBEQLpq66S78WuSk24cTPQ2FPtNNydGZYtLBHwbBPIOLiTBZrEffqJUbMPXId9U6NcxXI6A6rSEEuCqcjURjF+miwtdGdpB5WJffdtwlrvYd6O/pCuhUsR+QXmkTKdTVxbXt6R/aDxb0hAzydI1IXQGd30sKTbSyof1+TEYiuOwjOpIJn/bpJ53fTI+Kgw3g+cp/uN4LDNnxXAv9tN0XPBjLw3/0TXqc6TEtQLviPqj/cf1uQ3+bGa4nK6tsNdM+xWuJR1Frl+x3CJPo1rCKo4/qZww822rVp4u+oKuGf8XV4Hj7SXdwURYVKcYE+F9E14J1yge2ebTiky6GzDpPn8emoeGvKeU3F1e9paSqJ5Isrq2BvMrKzB89y4cGxqCNy9cgGePHIHXTpyAzkIBpqenYXl5OeoLuujiLkq/hmJgp7qRGVlhvZh/AwHVl5cWFEozB8WZZiJJLwkXn9JAa8xLdgZyNdEnXsRcIOE6waw5Djp0kclLIqiO6qJQldG5Gm+2RJhJKdQrH9Pmy+MNGuIskPBooUTX+D7SEDaRKZGrXwd3yDfiQKM6V6pEfo8xzMdSLKc60j9tITNUB349aWCNGXDFJovqVP1QndtA37yxrWhftH3qFLUp9UMxOxf4Y3OSbn9gVsYG2R/dyuRvm9Tzrk/GJ4ogeG8U3mqe9zloo5xFHaRr1mBc8NtOw3/eE32iv46CgjPD+oMncYnncawJbi4NODTC+Sn6RVCot0EbEb6wydPYONkcaahoWYSrSb5qeVr4h1HCjGImEhf++GnC7VJEEN4puNeEV6RWvEPbfFpxSTe+2h3fNHmqtxd2XLgA+3p6YHBmxrtpEtdwyx9MuEfv3fOe3f3i2bNQ39gIrzU2QmNTE1y+ehUmJye9p7TI9ZIuykA+SBqKsVgijthgIWKpLarQkgm1Qm3EJBskFpNUC8X+UgrxAom/aLCmum1dnWiZWodvF2EgEFpUhy/t94Fm94OS+D3SJ9eh8yIevha68CWSIUKWTscTOf5jRDdC+r9clFqhNoS+++3rdvx6EqGZJt1UX+qE1b4BLUXSxS3FRkw/xOtIESenxqsiAAAgAElEQVRhiEhXqb208mFlwcy5aIMsoziWyd82qeddn4yPAkLYep6XYkk2UhFbWi6h5UqxsRQeF3S6qEzmMtlE8ZjqEM/Jx4Gspt9Kzkg53gUNKffILrlvdJ7sD1VW2oV0XOQUieKKVWPq4B3sSq4m+SrlacJf9guCSWVR31AsGXB7yKGe0uKyxNjrRa4AYMIr0Vr8nG4POBUwdA6fsX1nbg6ujo3Bro4OeK+9HU4PDXlPKcGbJnENNy4poRnu0dlZaBkehg8uXID6Awfg6d27YfeRI9Da2gp9fX32k26fjGMCTUiKin0KAhN/0gvmgKnHwn/lBgEYfwEU9anKVeeE1pXkpasTKSPCirU/GHDol/yIjrBBMU8JEYWkfd8v4qx1tF2xVixpU39kNqfzgo9DP82q1kRSnVhsRIuEfaon2yCI4G5cH+LOx/6zSe2l6ZtR0i0Z7B0KvwiJj6JS+lCsT9eSpaTb/4dTjBmxPfW+TP55T5LVvYw/m9RfGR+Vpi3neYr32Osyyh1azvJj12xc0Ooi22KufXyGdD0uccGlKf5a7WK7lBjF64/2y/ePqt2U/fJ1xe34+sRrTmOThuNiuQzbpr6Y8hnJx8ZDTIeoXoyvqFYcH8ed9+2X9VJ7pv0qGVBcMho/OULxEhrPYtqgGKO+hbcx3B4WQgeVfgEX4yAiFDphwiuhCqWDJL5S1dGdq7iZbkymF5eWYGJmBjoHB+HgpUvwelub91hAfEoJ3jSJiTfNcGPC/XJLi5dwv7R3L3xw4ACcaG6GS5cuwfDwMMzMzNhdXpIU9EKgkuNUAe29gIduoiSd8gVGCoQt6YoLfFW56pyg0k/cRJ26OpEyA/tlconoCBuUPummmSbvzvOSMiJ4JZHqLvqYMuqn4GOfpJRtiORvTi6e9dRWQkzIuBZ7HmN/UbGa7Ki9NH0DUOsqwZ+0oRgInuVKdscMDuRPfzYqrbxsEdVP5xuZ/G2Tet71yfjIqOPxlvM8xbvm+pKvLYpXkSf9vpE+1fUjncM6Rrpk23CpnpRk+/xTaoNsi9evSXCpD2K7dE7qg9wuHpt9qH1h7TRd10oO1V2jmjKd3ap2fPl0XBCbHEtgyLFULNbYH5eU+nYq/rlT9atkR/FNvPF9o3hR+VU+RzEmdTF06Ovzl9mGijnpluFIe2w6SJiQMba9trYGc/PzMD41Bef7++GN1lbvOdz4WEB8SgneNIlruPF18DTD/Ytdu7yE+9SpU9DZ2QnXrl3zZrnnSq+Gj/SJglckmIiQImkyrSfpUr7hComstg4aUuikYI4LfFW56pxonooQdHUiZQb2y21EdIQNypB0BwMZ/URm1EbCYBIKD1U/acAQZ2zFvvjlMYmkKCvuq9oSy0v7Mq7eaapb7r5lnun2jS/62SdmGoRisPKxpMEjrbwMINUnfXK5+ljmMVP+U2uLns27PhmfaA+LZ7aU5+kaCV3gYUvla8uITzT6RO3pdVGs4phRfPttQ6EAhdID/2V98nHQNiW9imtMhYnqXKAs0x7ZVjaeRqtUdvv8oXjRi1+mwEXXS1U7Cnk5ljwRqus4T5O/4nIORXcD/H1ul6Uons2515RX5JZs86npv5chO2wbYaovDWj48+O9uTnv1e74+D988Y33HO7OTu8pJXjTpLeG+8ABoBnu401NXsI9MDDgJdz37t3znlyiugFTeVGGUMIDIqjg6SH+ExQ0/1VG1EROFG+irC1dbLWf+vd+8qFcfiLUT7oAVOWqc4JKf6ZbHC90dSJlRB6xmBCOAaFFdIQNypR0+77xZkKjbYabUMwUqMhPBIX6KZ5DpXRemXiTHUIMiYbE7ZNOuS1JXkXmdE6eoYgci7rj2qPzyr6ZrOmWDBYPSbdPzAFWoml+FUG+eJ2klfc1FXdooI2NW0m+dCjzmCn/qbVFz+Zdn4xPtIfBmS3j+UgsBTYV9yi2DDkrZSyl5r8E/bI++TjoXbRffhlhIl58Ce36ddPskM5y8TTaouqLeD7CZ4QL87TsyvhYkiWFY8Lf53ahDHcpBlJwbxpeEVuzzacVm3R7L79ZXfUSb3y1O75pEl988/TZs95jAd/s6PBumsQ13B8ePAjyDDcm3PjUEmXCjR6hoBAJRvRU6DmsAfEGa5GEn8dC9VIc+DZ8tfQzvdiOWk/SBaAqV53ztVPw+z/ZF0t0daJl9F9rjP2KNqI6fIsMfCPIhnYD4qyrr9fcqJFgL+pU2KyLGeoPJraRkCI/q8pE+7FNqkx16FiUE/YpwQ7ENrdv0fYF4xJ2qS7NeKG4j2PQIV8LyYszLmnlfWW4QxinIH6sJpO/bVLPuz4ZnxDm0sHW8XzCdaK4/inWxPgLukP6FNd/IOTvaXVRXIrXgOqcry24bsi2eP3EkQquVraRrl+CSZpdsqEGysLT2LKyL0WTCJsIV1Md5umQ7wgviq1QYcwBcbXI7SFRwjoF96bhFbEt23xasUk3goaETDMh+Gp3TLx3dXbCc83N3mMBX29s9G6aPHn6dGSGGxNu/Pky9kNOF4kNhfEnO++lN8FMaEQk9Mpv6eZIv37w9JI6vMGO1m+TQXgzTGl9Hur3gxSffmHwyMC4C0B1gdC5mrr6yOvHaY1gRB/hg8tfpOl30ifWoXPyIw8RS39Gn+6iFJIrUQdBoyNMXyZmJ7AjfGNRSNzvm/TmyJCQMDDQ87WpnhwQpXrKu+K9skAXEr34sqNiscXXwJONWjIL7PG7QvX8EyEw1Hf8C36MI1fEpPhISDGIYp4ggE36yQ4mL0Edu6+BL/aNYkUZg+Huh45k8rdN6nnXJ+MTAk9xsCU8L8auxLmZOCukr/gc7CB6sZDGleK4oI091bXoXxeK8cF/clKwbCJeP137pkl3kNB73CU/DEDql8K9ylNkH+os6g2hVaxDOKTlMqxNdVPxGWFTskl4KZ1nkHcDa+ldF6Q3oR3qPI3vVM23L23fEtqLG4N8vH0DyLLkLdWVeTI1twtNxekURCK7aXmFFNjm04pOuhE0mgmZnZsDfLV7W18fvHvuHLx+8iQ0Njd7TynBmybFJSXaGW7yBAWvakmBf058jilVLG6D4A6ScyKQ4jZIuinpDJeX6vkXXfiCj8iWLpakYFWV07mITuqnb4PYx2CGI6hXXH9F+sIXYYL9UhtqHaX2yTcZCEJM2oIXD4n9Cv7BCdsflsEjstFPKA3sInL13t4ZGkcS8PEHn1KGb9AW2kjtEVR0vGl985MB9do8sieIofD1orLTx53iU9jakC96mvyhSD6ioRA6I5O/bVLPuz4ZnxB4MQdl53m6QELtUwyEY9KP1TScVdJrOi5QjKvi2U/IJJvjryV8ikkxGSR98fqpz4q413COab9C8OoOfN5A7BW2CNxGfYpTR331eRoFNX0hPQGe4sQS4RMTExXK04SJakv4yn4I8FNjJcsHugljtd8DufBeFl5BDbb5tOKTbgSNZkIw8cZXu/dcvw6dfX3ec7j7+/thZGQEpqamgJaUaGe4yY90UQoDepFskcDqoE7+j57qCVvlzZH4GCfxZS+YvJVeFx9KvpUvB1G8khhfYIC2lBK4uAuAzFKV++fq5NfWl3RTZXkr3y2Ps95CMhq9qBT2K/sZJLRRHWaEKZsaHNMFjTccqWay6Z8JgwveHxhKCSXFjDQYBm3jntC+tGTHKy3Fgj+wY/wRRmKSbtSWnHRvRd+C/iph8R9vFiZmvMaEiewwhN41I73uGjHSVMCZ8NDj0xLk/UFZGSMRc0InZPK3Tep51yfjEwJPc1BWnlcGJxpjibOEfpmMCz4nC7/++So0137ote3er2b13nUk65OPfd0+Pyn4T9OuhxS+hEd+g6ZivAva0u0FvGGdp7HZhL4ULRNskLiaxuyq4WmNq2JjKSO3+75Jyb1ZecU2n1ZF0o3xQDMhi4uL3qvd8U2T+OIbTLbxsYD4lBJ83TvK8SeMQOxFExbjI0YgGwI0wKUk0WyN2agVDLaxuZimGZn8bZN63vXJ+GigjBQxz0cg4ROMgB0EnODp7NyblVds82nVJN0YdUjIOIuNyTUuISEwcX91dZUT7phLk5PuGGD4tDUE6KdG5S8X1lqxpGiDg49M/sRDlqzzeS2v+mR80vaDeT4tYizPCJghsOU8vQHuzcortvm5qpJus7BiKRkBTrplRPjYPgK0tMXs6Q322zfU6C8ZUvy8bqhCJn/bpJ53fTI+hrCyGCPACJQdgS3k6Q1yb1Zesc2nnHSXPUjz3wAn3fn3YS56QLMYMTdGbXkfcE2qfyOUuIA+nWUy+dsm9bzrk/FJhy5LMwKMQFkR2AqetsC9WXnFNp9y0l3W6GTljAAjwAiEEZDJ3zap512fjE8YPT5iBBgBRiA9All5xTaf1pDCNNv5+XnAb5o6OllTfVlBS+8ersEIMAKMQHkQIB4jTjTlP5JP2uZdH+FTHvRZKyPACFQjAsQrSfwpl9vmU066qzH6uM+MACOwZQjI5G+b1POuj/DZMgdxw4wAI1BxCBCvyEl10rFtPuXlJRUXWtwhRoARcBkBIv/33nvPM5NI34bNqPuRRx7xfoW0oQ912LTPRB/hY8t+1sMIMAKMQFZesc1/nHRzLDICjAAjsIkIEPn//u//PuD3rbfespYkc9K9iY7kphgBRiA3CBDvpjU4N0n3o48+CviN+4jlpp3KClqcDXyeEWAEGIHNRkDkMZzt/r3f+z3vSzPfG7GHk+6NoMd1GQFGoFIREHk3TR9N81NTnWWb6RaTapUxYrlpp7KCpmqfzzECjAAjsBUIyDyG/Iez3TTzvZHkm5PurfAot8kIMAKuIyDzrqm9pvmpqT5Ouk2RYjlGgBFgBCwgIJO/SOqYcG8k+eak24KDWAUjwAhUHAIy75p2UORn0zo6OU66dehwGSPACDAClhGQyV9F6lmTb066LTuL1TECjEBFICDzrmmnVPxsWlclx0m3ChU+xwgwAoxAmRCQyV9H6mmT781OusVlgiq4VOW6/qIOGR+VXj7HCDACjEAaBLLyShJfpbEBZTnpTosYyzMCjAAjsAEEZPI3IXXT5JuT7g04hqsyAoxAxSIg865pR0342VQXynHSnQYtlmUEGAFGYIMIyOSfhtSTkm9OujfoHK7OCDACFYmAzLumnUzDzyY6a8iQNFt8+QJ+dXU++clPAn7jZMRyE32iHpOOsQwjwAgwAi4iIHIZ7hP/ybbKcuLx5z73Ofjt3/5t+K3f+i24//77PZ7F+qQPBwpRXrcvtysf6wYd1fIRsb6qXKeP+oD28ocRYAQYAVsIEAem1ZfEV2n1cdKdFjGWZwQYAUZgAwgQ+dN2K5NunPzAxFj30Q06qqRa1KUq1+nDuoSLqIf3GQFGgBHYCAJZeSWJr9LaxMtL0iLG8owAI8AIbAABmfzTkLrt5SWqpFjums6+pPqqcp0+bFvGR7aHjxkBRoARSItAVl5J4qu0dnDSnRYxlmcEGAFGYAMIyORvQupJyTaZg7px5hx12vro7FMl1WK7qnKdPqwr4yPq431GgBFgBLIgkJVXkvgqrS2cdKdFjOUZAUaAEdgAAjL560jdNNkmczaSdJNd8paWv8jnsU0xqZbL8Vi8d4fKSR/ZTFsqpy2d5y0jwAgwAhtFICuv6Pg5i02cdGdBjeswAowAI5ARAZn8VaSeNtkmU1B31pluskveUpIsn8c2Oekm5HnLCDAC/3977/5cxZGtifJfnRP8dP4aHO2InhnH3I4+t+me456eG/c64sy0Ts/hTLdxYxsbvzEPgQwyDxsQIIQAGRAGPRAG8xKWBEJC6LVurNpatXOvnVWVWZVbqtr1VcRW1mPlypXfWrXy26ncVWVGQPKXr422/Oyrw5QH6TbRwD4QAAJAoMMI6ORvJvW8ZFtMZt15Sbfo0KVpn75mkm59jY9t19P0cR2Nj00vzgEBIAAEfBDIm1ey8pWPDSwL0u2LGOSBABAAAgUQ0Mmfk/onn3xC//iP/xh9mHjn3UC68yKHekAACHQzAjrvuvYVpDvn81vX19dpdW2NFpeW6NncHE3PzdHCq1e0sroanXd1AOSAABAAAkUQMJM/E+x/+Id/iD5FyLbYU3fSvU5EK2trNP/qFT2am4s+vL+8skJra2sCE0ogAARqhoCZd326Hpx0i0KfcnFxkfjjUydN1lVfXtAYYCbcTLLvP31K52/coHPXr9O9R4/oxcuXtPT6NRKyTxRCFggAgdwISB4Tsv3xxx8Hy6e8tGTnzp3B9HHeTsvPv//974k/Sfnddj1NH+sRfPIAzIT7xatXNP7kCX3zww/RZ+zxY5pbWECezwMo6gCBLkFA8kpSrko6n5Wvkuolnd+WdCHtfGgjXPUJaD4xwDPcPJv9YnGR7k9P05WJCTp69SodHh6mi3fu0NjPP9P07CwtLC7SysoKsTw2IAAEgECnEJA8xktKOM+65r+0nCzX6kq61zby/OziIk1MT9OFyUnaf/UqfXXlCp0ZG6NbDx/S45mZKM/zrDfyfKeiG3qBQDkRkLwrudK1DJmfuc2Oren2gV06n1VHQMuSM68z4X756hX99PQpDdy6Rcdu3qTjP/1ER6em6PPhYTpy+TJdn5ykJ8+e0cuFBVpdXS1lQh7r2U7btm2j7T1jZvewX1UE+nZE/ty2bTt1hUvH+mjHtm2IUYd41HnMNf85qI5ENlOf7YeSpp2261n2aXxMfUn7nOefLy7S2NOn1H/rFh25eZMu3r9P5+7doy+uXqX9V67Q1clJejQ9Xeo8n9Q/Po8xIA2dEl/b7FyPXGwNhjx5hRVl5StrYyknu5Z0xzPcCwsR4b569y4dHx2l3vFxOvn8OfXNzND716/T+5cu0TcjI3RlfJwebiTk5eXlbOItN9KOvhR4G5f6djTIyDYH2SRlxRPuGPVsb9iRacZYD22PCNQOau9dk1xt22a7vtEDwWeDiPEXBvls376ddvT0UdbXhzFOHtu3b9iyUZ+Pd/RQn1lZ2sromPghWWyz+tZsJ9kWItroV6oMD8Z9O2j7hm8jjBnfFoBao6pj8nHcdMkXiVbYgh3p5B86qW+mPhupNoGyXc+yT+Nj6tP78Qz3wgKNP31Kg1NTdPTmTTo5NkZ3X7yg8bk56h0dpU8vX6Zj16/T5fFxerAxwVLmGW/JVeaY4T4GINcLfsm5s5mDOzuONdtJtkWiuum39sm1ph4ZR9vK7T2iiL+hbYybyMUCik9ekTpcZuUrU9Zlv2tJt57hZsJ9+tEj+n5+nr57/ZqOLS3RFzMz9MHdu/R/Bgfpk4sXaXhsjB49feo2E+JI9NgJkgDMBOriHFPGPeGatVr3RUeWHaly0u8NEp2YSJRcW4Lg+tt7Eoj3GPXtaMzsW+tttL29Z+MrgbSVaEwDB/FDopjo6WjfmvHQnlib/hob64lnjhPtNWa/bDjZ9Me+3eijWS+EvHxRSPZts4913dPJP3RSr7o+jU9anMgMNxPu/tFR6rt5k649ekQ/z8/T/MoKPV9eprtzczQwNUV7h4boo0uXaMiYYCnrfzYlV5m5Wu5d232qMRJZs76W4eNUuU3Jh8j1Db80CTfn5HYfe5JuVir+SxxnbRHRved88oqJQuh82nWkO2mG++j4OJ2Zn6eB9XU6tb5OfWtrtH91lfbMzND/d/06/c/BQdp/7Rpd4pkQlxlvCeg0RmR6ruC+JMf2m9FDcfztN2WGmpo3v61rMhjs2LGxPMImxCYl4jNGfRtLZezJpUlKo+s7+mjMnNUe66MeIeTSdmJbrdjEtrdP30eC8fUO9i3GJSERip9NMizdbO1NNGLG/wUwZ7Z5JrtRX81yxP7f1jITHkw+MjA9ftr6UMMTOvmHTupV16fxsYUIz3Avr67SrDHDzYT7u/HxiHC/JiJ+Vsnq+jq9Wlujibk5+vrmTXp/aIh6r1+nwYkJuv/sGc0vLERPNqnCGm/JDU5jQHyvI9fb4qcMub5pVzNnSt5v97GQ7jR/NjU29pp6E8cQXaWLj13yiq37ofNp15Fuc4b73K1b0ZISnuFmwn12eZlOr6/TsfV1Ori2Rp+srdG7S0v0rzMz9P9MTtL/GByk3YODEfF+mDXjLcRmk6LZK+HaIic653ATpiZr88Y39y0NZuAj/WmbEZV621qJYVsLbKdgL3XkuE24cSJOtFbSbfbH3Lcoy2gvsW8ZX2i4pbiuMROd1C3pj202S66ZyVvOdUo+RkrwSfhiEcvVdEcn/9BJver6ND62MGHCPbexhpv/i8lLSmSGe4EfD0hE/JN4JtNMvHnGe2xujk5NTdG7Q0O0Z2goIt4/T09HxLusM95m3yU3mPe0eb11H7meCaw9d5r53dxvRTA6klxmV9TM1225zgH/qAGe6W8snWS/Jvs4w06L6S32t9mXVKF7z7vkFVvvQ+fTriPdC0tL9NOTJzQ8MUHf3LwZreHmJSU8w82E+/j6Oh1aX6dP19bo72tr9L9XV+md5WX6b9PT9F+uXKG3z52jr4aH6eqdO/T42TNaWlqyP04w42Y0nWe7kVrObaxdjr/lbldrlg0y1pZwY5LM63jNVu370q6NeHGN1Ouqz5IsrO0q2TZr5HrLuvBmokqyr00PnxBdVkOaNXzs9ZFttrCxJ/a09M2cmXabrUi1IYvAiw1xsm1ia4WpsLyJgrSlZtpNkRrv6+QfOqlXXZ/GxxYq/FjAO0+e0MDEBPXeuBGt4eYlJTLDreusrK/Ty7U1Gp2ZoT0jI/RvFy7QwWvX6PLEBD3+5ZfEPC/5MMq7vOQr/u0E/y6l+S+4sZ4d8X+dtm3f0f7j6Og/dOq3F/zFOuH3LS3tbnTGdk730zwW+aRcmnpd8sFGskjNRUrWtCHal+st+VByxDZKsq9ND58QXdYk1qzhY6+PbLOFjT2xp6Vv7rle2pZxXXwix832cpLueJxALnbJK028m3uh82nXkW5+6c3ZH36g3itX6Pj9+9GPJnkNNy8piWa4mXCvr0eE+y9ra/TO6ir99+Vl+r+fP6e37t6l3165Qv96+jTtHxigH6emaH5+PnqUYNMFG3tys2Xc/Cxtu5Hic/qHgvEMZysxi+WNRN/8sUTSN/o2q9mYjcGhVX9DspkIbd2SBBFfS8Mg7Ro3JtdjUmgmKo/+mLpiwyz9jppM/iFpx/tmxIHrINNmU0u3JAknJNM2P3davsU4a8y3StT3SCf/0Em96vo0PrZI4RffHP3hB/ryyhW6cP9+9KNJXsMtM9y6TvSDy/V1erS4SN89eECf3LhBfx0YoM8GB2n03r3EPB/n3e3235jw70rkPpVJk0ap8qvkuzi/N39YHsmbedDIFSb5im0xxwDdUfO4LQe0XEz9Yb30KU6pYn98wtCVdo3F5LrZx9i2+uZ6wTj+j22C3xtIS/5WcWW4IWnXO26SFFX8vEtesXUxdD7tWtJ9aHg4eizgsdlZOv76dbSG+8DaWnOGe4Nw/3F5mXYuLtJvpqfprdu36bcXL9L/+803tO/kSfrhzh2amZkhfppJ2yaJxJaElLAt6OUcJ9yWp3EYj/sxVYt8nITzJq34m68l2YlOMznGfbHd9LZzGxUy8JGE00JApY6eNYhtSNiJ66mBLGGAM3FtaLT1w3auQN8ySL+tZ4JRu70sLfaVk3RbB1pbJ2t4Tif/0Em96vo0PrYQYdLdx6R7eJgG7t2LnlLyYnk5WkpiW58dvY14ZYXuv3hBp+/do33XrtG/nzxJe7//nkbGxhLzvOTdRp5uPnHJPM+P/Wz+pqI5cRHn6uh25VnuHdTTN9b643HXfJ9KyGwI8bmmLW05BLneeDKX5FILoZWxpQ3ABuaSo1vGMYdcHz8oQOmVuGqJnagpsVGNcQn/KWmJCOmDdVxvkezqA5e8YgMgdD7tOtLNy0vuPX5Mg2Nj9NXVq7R3dJS+mp2NfjTJa7h5SYnMcDPh/t3CAv1fz57RW3fu0H8+dYr+2+HDtKevj749e5ZGb9+m6enp6JExbc6QQFY3TZtcQrJMvrmaM+Pmjdwq37wBHZpvM0l0mfpZSM633/DGbIVqUJKOOt2c3dAXxsxfqyvCKJhuNumWdpWtQftGtDGzpPrc5p3micT2G85K+Y8FC0iMbLQng2witgXlm2Y39qS9mid6DQsf6+QfOqlXXZ/Gx4Yhv9qd3zR59s4d+uraNTp66xZNzc1FP5rkNdx6W1xZoYcvX0bP7n7v4kXq6e+nvf391H/uXGqeT86J6n4xG0zIJ6aIuW9rw/Wcqce2L3qQ6zfQSfBNYq5NkOdf98fE2fKuhcbjee25PsknbKFcax+DJd4U6ZaJpbQ8i1wcOd8lr9juodD5tOtIN/8ghl9yM/HwIfVduUJ7L1+mD6emoqeU8I8mozXcq6skhPs3T59GhPu/nj9POw8coJ6vvqJD/f00NDRE4+PjW0K641lCgwQ2b0a3R8nZgic+JzdhCwGTWRF7ovBOSpKsJCno0rbuUeqkJZC4E8aO1DPwMq7Gu0l9SDpv80OkTNrTfZJjW9/qRrpj0m+ZPYo9Us8dnfxDJ/Wq69P42KKEn7H9fGGBbj96RAevXqUvrlyh8/fuRU8p4R9N8hpuXlIiM9wP5+dp8P796AlVPceO0V8OH6bDJ09m5vlm3m2u327Yk5IvJT9Y8hG/e6BnB896b299tr56TJytXds5GzYt55DrW+AoQ64XPzaWISWQ6I2xpJ18m93JfhJYQ1oIe71zsUteMdGV/dD5tOtI99raWrQchF/tfoNfiHP9Ov2fS5fonevX6V9/+SX60SSv4eYlJTLD/Z9OnqTfHThAuw4coP19ffT9uXN048YNun//Ps3NzXV0eYn1prIk7fYb1U6OJVDSSxkwjCUmkpythDftpk24Jn0QImqW1jaM2fSWLwPpPYmuSluWQc6sbU+4CfY3FG88K1slK2nP7JPsJ/WNyK7LNFDt2+0VIbE7IQ7EnzGWnZYXu6SU9jK0gi0AACAASURBVBR2crnGpU7+oZN61fVpfGyhwmR66fVrejo3RyNTU3T8xg366PLl6LGA/JQS/tEkE2+Z4WbC/f7gIDHh/vuRI7T/2DH6fmAgM89L3m3P05JDLfef5AczH7X8CNNOtMw2bO3aztmwaT0ndiLXN//7Z8tJCflKfCn53Sxz5nrxY3HS3fB0rM98OU5LECT0rUWm+w9c8ooNhdD5tOtIN4PGxHthcTF6tfvViQn6dHCQ/tfgIP2PycnoKSX8o8loDfedO8Qz3Ey4/+fnn9OXR4/S2bNnaWRkhCYnJ6NZ7oWNV8O3OUNuRjOxtgk1TshNkZVU4+oW3aIjentWjzyH2ZY8Yi2pO7G+Dfvl2LQxViD2mAnHst8ChdQxT8ZE0Pbw/+h/axtLJiwDWWyMZcfWllWsMdiZJsWz2Zb+mEnRWsc8mdW30DPd8UxyAlaxPRIjkng7Ja8Bl/akfX29vsc6+YdO6lXXp/FJihTJ8/yUKX5a1cdDQ9FzuPmxgPyUEv7RJK/h5tfB8zsYmHD/+eDBiHC75vnkvChk1nI/teUjuReaTyvpGxujsY0XENjacD2XhI15XnTJEhM5Rq63f/kx03o8Ppgn49yaMI7lyPXir1TfiJAuJd5AujUyLceueaWlEt5I+Xa0HlKDYjteWVmJlpnwq935Fe/7R0ai53DzYwH5KSX8o0lew81LSniGmwn36Q3Cfffu3Yhwv3z5Mnpyie2HOdab0WZIwjqt1JtLbiLjRtfyMgva9pzrBBvaTseJg0lRygBi/CjEJKHWfcPeRHykb+rfqQ37xI7Ne4xUjGMG6ZYBK7JT+mD2ly/IeWvfAq/pjn1mzGCZThZb4tmYJrba7JY+5ZY3Gze+QMX61PUaH+rkX3WS7OvKrP5qfNL08zITXk7Ir3bnx//xi2+i53CPjERPKeEfTUZruI0Z7u/OnYsmVlzyvM67TVvkfnIg3ZJrE+4FWxuu55r2pOxJ+9F/vVLsRq5vvFTMTJCSR81zDLWcD5TrxXs2v8u1xFJsSSLd4v+E+EvU22UXfPKK2fWsfGXKuux35Uw3dzx6KcLG+m5+tTu/aZJffMPP4f7nq1ejp5TwjyZ5DTcvKdEzH0y4+aklVsLNDUig65vRgrrtRrKdi6tadLfLS/L0JKhxI836O3o2HiNovSlllsYyuIguuanjpQzp+EhfmLi3wSd9t12T9rjkNqWy1JFjU87YF4LdFNvcvrW3bxhn2c2Sj3FsdijWInXN2axOy8eN8474xBpTLZK1O9DJP3RSr7o+jU9agJh5nidY+E2T/OKbv1y8GD0WcN/Vq9GPJnkN99fHj3vneblnzPuoYY/kT0telNiX+1Ifqw7Z2nA9p1QlHIqt2wi53uIvQS3gOCb5V0JAmsgqbX7PqiNttUwMmZUk/mqei33yiglf6HzataSbQeOEzMQ5mgmZno6IN7/45n999x29c+wYvf/NN3T422/pzMBA28wH1+N/XyZuEsgOd5XtRrKdi9uy6LbLC2lM/jdXrNOyIzpl1rp9YHElT0ZSlxf0WPpgmpD8y++mLraLiXXHXgMvNqYmo6Y9saulXnzC7BnzTXmmb2uCj/FOqNeqhfVYlsOYQvEgwV9emj/0CvZad1/9hm3SV2tMGXJ13NXJP3RSr7o+jU9WjER5fmPGm1/tzsT74MgI/W1gIHos4Ef9/dGPJs+cP++d55PjWPJC6z0e2arzQ3wfbY8eGRj3p+UJGK053Nau7VysK2NH6iLX97Q+srEFN/GpMRmkfdkiHy7Xi1rxk86bPKY0Hi3czPP8SMiksUb0cZmk05Spw75vXhFMQufTribdDFrLTMjTp3RtbIy+Pn+ePj11ik6cPRv9ep1/NGn+qzF1hls8ITdj6rKEHZG0Leht50R1PEtokLNE+dgOS/KPFSbsxIMBkzt7fSF+OglojWJf/G1b7DL6oOuI7miduplLjKUTMkjYSn4xRbQ5tMVy0p6YJMeb1rcY7+R1zjGO1rhq91GavK1fnZZvOEQGr3Z7G9fr/Vcn/9BJver6ND4u0SJ5fn5hgfjV7pfHx+nzS5foozNnqH9gIHeel/ul/V5KiXFLPpJc057H+CkmjS/pZhu2dm3nXLCJZOLcg1yfhplgXHgci/FOzvU2O6R9MxZYLjl+GhMzWr6pOyVOm0K12MuTVxiY0Pm060k3g2bOePOPbvhNk9fv3KFbt2/TxMQEPXjwgJ49e0aypCR1hlvCUxKrlRw1bgQmk7zZbiTbOVHtRboN/RF5jZW47MgNyT/wsc0AyEy6A3nSSUbwEYZrNcdo31yasiE71sevXZZZ4w1M5WUAJkl3aquZuBombUXfmv1NgkXion1wTh4seWZ7e/x66o0faxkz3xr6TsvH8WuNKW1N/Y518g+d1KuuT+PjGiEy483Em1/tfuunn2hkfDx6DnfePC/3YzupkXvZkhsT8lHLq+Kj/+L1EN+mtjZcz7liY74oB7k+BbVg45jEhzFrntKsXLL5PboWP2pSuEWj5BcupaR6HvQa69SRi9vejyCYZ5Wh82ktSDeDKjMhS0tL0St/+U2T/OIbJtv8WEB+Sgn/+JLlsAGBjiHQ9Ukw32DTMbxLqFiTytBJver6ND4+LkSe90ELsh1FYMtzPXKx6d+8eSV0Pt02OztLvh8mrPzxrZck76ovL2gCPCdknsVmcs1LSARM3ueX6oBwC1IoO4mA/Kuwffask61uku4tH2g2qZ8FmpE8JvnQNf+JfFZZdX2CT16IkefzIod6oRHY0lyPXNziTskrWflTXw+dT2tFuls8gAMgsGUIyNIWv389bpm5rg3H/5q1/MvdVUcN5HTyD53Uq65P8KlBKKCLXY/AFuV65OK2yJK8okl11nHofFqb5SVtHsAJILCVCMgsRMIPWLfStFxtjzUHl66cwc8Fir2SJH+5Kv9xk+OiZdX1aXyK4oH6QGBLEdjsXI9cbHV33rwSOp+CdFvdg5NAAAgAgc4goJN/6KRedX0an854AVqBABCoEwJ580rofArSXaeoQ1+BABDYcgR08g+d1KuuT+Oz5Q6DAUAACFQegbx5JXQ+BemufCihA0AACFQJAZ38Qyf1quvT+FTJt7AVCACBciKQN6+Ezqcg3eWMD1gFBIBAlyKgk3/opF51fRqfLg0DdAsIAIFNRCBvXgmdT0G6N9HpaAoIAAEgoJN/6KRedX0aH0QMEAACQKAoAnnzSuh8CtJd1JOoDwSAABDwQEAn/9BJver6ND4e0EIUCAABIGBFIG9eCZ1PQbqt7sFJIAAEgEBnENDJP3RSr7o+jU9nvACtQAAI1AmBvHkldD4F6a5T1KGvQAAIbDkCOvmHTupV19fb20v4AAPEAGKgEzHgOwCEzqcg3b4egDwQAAJAoAACIN2viQeypK0TAy10gsAhBhADHAO+G0j322/7YgZ5IAAEgEBpEADpdiPdAwMDhA8wQAwgBkLEgHzp8h0IQLpBun1jBvJAAAiUCAGQbpDuECQCOkBGEQPuMQDSbQyCrt8k9GBlqMAuEAACQKASCOg85pr/XDtXdX0yOIJQuBMKYAWsEAPpMSB5xTWPilzofIo13YIsSiAABIDAJiAA0o2ZbhCkdIIEfIBP6BgA6TYGN9dvEnqwMlRgFwgAASBQCQR0HnPNf66dq7o+GRxDD7rQByKHGKhvDEhecc2jIhc6n2KmW5BFCQSAABDYBARAujHTDfJXX/IH32+N70G6jcHN9ZuEHqwMFdgFAkAACFQCAZ3HXPOfa+eqrk8GR5CTrSEnwB24d2MMSF5xzaMiFzqfYqZbkEUJBIAAENgEBEC6MdPdjaQGfQJZL3MMlIZ0C4v3KRcXF4k/PnXSZF316cFqE8ZHNAEEgAAQCIqA5DHJia75T+Szyqrrk8GxzAM4bAPBRAxUKwYkr2TlT309dD7dphtwOQ5thKs+GayCjoBQBgSAABDYRAQkj0mudc1/Ip9VVl2fDI4gNdUiNfAX/FXmGJC8kpU/9fXQ+RTLSzZxsEVTQAAIAAEh3YKEJHk5LlpWXZ8MjmUewGEbCCZiwD8GOPfx/b0V2Ele8c2vofNpbUj3OhGtrK3R/KtX9GhuLvrw/vLKCq2trfn6AfJAAAgAgVwIgHR335ru4eHhllh4/PjxlhCLrSAzaNOffNYVsx07dtAbb7xB77zzDp04cWJT7xGQbiNFuX6T0IOVoSJzlwn3i1evaPzJE/rmhx+iz9jjxzS3sEBLr1+DeGciCAEgAARCIKDzmGv+c2276vpkcPQhJi9evEiFp9MkGKQbxNMnXusqy6RbPm+++Sbt2rWLzpw5synkW/JKaqKwXAydT7t+pnttfZ1WVldpdnGRJqan6cLkJO2/epW+unKFzoyN0a2HD+nxzAwtLC5Gs97r6zwnjg0IAAEg0BkEQLrDz3SDdIP01pXIVqnfQrjN8q233qK9e/fSuXPnOkq+QbqN8cz1m4QerAwVibtMuJ8vLtLY06fUf+sWHbl5ky7ev0/n7t2jL65epf1XrtDVyUl6ND1NLxcWaHV1lUC8E+HEBSAABAoioPOYa/5zbbbq+mRw9CETIN0g3T7xAtmtiReTbOv93/3ud3TgwIGOEW/JK655VORC59OunemOZ7gXFmj86VManJqiozdv0smxMbr74gWNz81R7+gofXr5Mh27fp0uj4/Tg2fPIuLN67yziPe2bdvI9hFH1bHs6+uzYiI48U02NjbWAo3U4Ws+G+vhOqJbSlsbrFfaETldJtXzsQmyQMAFAZDu8DPdQqImJydbXMDHcq2TJZaXbA2J66RPoTu8T3mczfr86U9/ouPHjwe/b0G6jdTo+k1CD1aGirZdmeFmwt0/Okp9N2/StUeP6Of5eZpfWaHny8t0d26OBqamaO/QEH106RINjY/TQ8cZb03a5LjNkBqdyCK2gpFJvKUO34iuG8uKrqRS65N2kuTlvGmbqz2QAwI+COg85pr/XNuouj4ZHPOQHhfSrWWYMI+OjpI5W85rwPm8zQYty/W0TtsactbH5/WmZbWMvp7Vlms70rckee4X91XkUIYnoXXDNItwy/Vf/epX9Oc//5lOnz4dLP4kr+j7L+s4dD7tuplunuFe5jXcxgw3E+7vxscjwv2aiPhZJavr6/RqbY0m5ubo65s36f2hIeq9fp0GJybo/rNnNL+w4LTGW8haluPqcF2IrSa83Hcms4KVeT2tjg0zrmvqMUky7+vroiOtnSTbpC5KIBASAZDurZ3p1qTVJNvaz5oUaUKs5eVYE2WXeibJFz1SCvllGXNj200bfdthvVmbaZfZFvZBwn1jgMdnn8+vf/1r2r17d5D13iDdxp3u+k1CD1aGiniXCffcxhru46Oj0ZISmeFe4McDEhH/VJKXjzDx5hnvsbk5OjU1Re8ODdGeoaGIeP88PR0R76w13kIAYwNqvJNGbBmWnp6eiDBv3749RimrTiyolohwvaRNdLJvRE7O8Q1v22y22eRwDggURUDnMdf859pu1fXJ4Og7oLO8JtR8rPVomTRchezadKfVM0m3bk90phFofY3bYhv0FwSTEPu2Y2vD1iezDY0ljkG8fWLAh3Cbsr/5zW/o888/b7uXfdqWvGKL8bRzofNp181082MB7zx5QgMTE9R740a0hpuXlMgMtwZ3ZX2dXq6t0ejMDO0ZGaF/u3CBDl67RpcnJujxL7/Q0tJS6uMEk0i3kDgueSaViabI8jnZRI6vsYw5cysyMoNr6hB5U5fIcykkU9rkutKWjXiyvNbPcjZ7zHbMfWnTpp/lpH3T5qw6pn7Wy/1J0p8mm9WOzTZTH/aBQCgEQLrLNdNtEnM9U2xe0/43r2kCa5Jus55ZhwkDH5ubSXD1NVOO97Uu87q+pnVxO3qWW9fh60zyTZt8SA5kQch1DPDYnecD0v06PWmaN7/Lvus3CT1Y2XTzi2+O/vADfXnlCl24fz/60SSv4ZYZbl0n+sHl+jo9Wlyk7x48oE9u3KC/DgzQZ4ODNHrvHs3Pz9PKyoquFh8LqY1PbOwIidNEVuT5upBIOSel1iWEUa7rktswt6Q2pZ4mrUl2iLwr8RY7tX62Ta5pW+W8rY7ZJ94Xe7hO1iZ6uQ5vcmxrR65p27LawHUgkAcBncdc859rW1XXJzNSesB2OdbkUhNJ1qFlTFKpiaiQZ31eL+tgHeaWVI/1mP3QevV1PbMtbYh+0ZWlx3Zdn2PdrJfPm5hIGyhBoovGAI+/Ph8sL9m447cqqevBShKQWTLp7mPSzT+CuXcvekrJi+XlaCmJ7Ykkq2trtLiyQvdfvKDT9+7RvmvX6N9PnqS9339PI2NjNDMzQ8vLy2YTLftCBFtOGrO6fN0kekLGpZ5JIIUss4y5sQxfM2X5OpNhrcfUb8qzrFwz7WEZ1sH6NbkWeVcyKrrEJl3a9Egd0yaz77Jv9lXbKTJmacrzeWlH2yTHNttMfdgHAqEQ0Hlsq/Kpa382276tJN2u5FmT+aR6muBnYa71MsmxbZr85G3Hpts8xwRct4VjkO+8MeBKuPFDSvMuJKLNTsLSvB6s5LxZ8qvd+U2TZ+/coa+uXaOjt27R1Nxc9KNJXsOtNybcD1++jJ7d/d7Fi9TT3097+/up/9w5Gr19m6anp6P+6npyLKRNjqUUwsql3qSOJo9CDLMIqKlPt5Okm+vY9DPZTCOcfI11umyiX2ywlazP7LfUyeqzyLnawvZK+2bf5Zyt1La59BkyQMAXAZ3Htiqfutq92faBdLeSOpuf9Ex0XtLNepJm06VdEO9Wf+QlnKg34DTLjUcGyp1nlJudhKVpPVjJebPkZ2w/X1ig248e0cGrV+mLK1fo/L170VNK+EeTvIabl5TIDPfD+XkavH+f9l+7Rj3HjtFfDh+mwydP0tDQEI2Pj3eEdAuRNckn90GIZRIBZXm+xvVFh5BHJt98nY/5mm3T+kVedKSVNn36nNZvXue2TJvlWlodkeFS5NhG1036Y9a3YZtkm2s7kAMCPgjoPLZV+dTV5s22rwqkWy/vSJrp1ks4fAlsEiHWy1uKtsOEkHVwv/Sm+wryCBKeNwZ4/E364OU4+s4zjjc7CUvTerCS82bJZHrp9Wt6OjdHI1NTdPzGDfro8uXosYD8lBL+0SQTb5nhZsL9/uBgRLj/fuQI7T92jL4fGKAbN27Q/fv3aW5urtDyEttMt5BPJnvmJsRSE0NNCoVMmiW3k1Rf2tDX5djUk7QvOtJK0aftN+tI31mWN5c6LMcYiG0aN1O/7Jvyru1o20QXSiAQEgGdx7Yqn7r2abPtKyPp1qSasTMJtJ5pNomqxtmsx+SFdfM5JtLmNa1T6+HrJvnR101dtna4vm5T5ExdZl/M9rAP8u0bAzbCjdfAm3dbwv5mJ2ExQw9Wcl6Xa2trtLC4SI+fPaPhiQn6eGgoeg43PxaQn1LCP5rkNdz8OniZ4f7zwYMR4T579iyNjIxEP7bhpSULG6+G123IsRBBOZZSL/uQ81wKudPkMYmAShtcT2a0pa7ZTlJ9aVtf18cil7d00cc3HfeH7ebNpY7YIzhwnaxN9HId3uQ47QuBti2rDVwHAnkQ0Hlsq/Kpq+2bbV8e0p00Iyx9NImjJrNMeoU8aHJt1uN9182sp9tL0yFEmUtzk5lt3U+RZ/t923GVN9sQnFCCcOeJAZN0v/nmm7Rr1y46c+ZMfP/l0elaR/KKeV+57IfOf+7/qzesC22Eqz49WBkmte3yMpOXCwvRq9358X/84pvoOdwjI9FTSvhHk9Ea7mPHSGa4vzt3LiLcd+/ejZaVvHz5Mnpyie0HmNKgEEE5ltIkw3JOSh/SLTO2XMe2me1kEUt9PUu3rb20c1q/TVYTW5c6okfqcpm1aVmXdqSOfCHIagPXgUAeBHQec81/rm1VXZ8Mjq6DKctpMqqxSiPBrqSb23HdzPa4nithF4Kr2xEb9ZcCljNx8mnHhXTrfphtYR/E2zcGeIx944036J133qETJ060xK6vLl95ySv63so6Dp1Pu5Z0Ry+/WV2NiDe/2p3fNMkvvvnLxYvRYwH3Xb0a/WiS13B/ffw46RluJtz81JI0ws3O6jTpziKLJukWEi2zuzqYbLrEfr5WdLPp1zp1ey51RIfIso40e21yci6NsGvbpF2UQCAkAiDd6Y+clcHRZ1DdLNLNpFcTWz7WM9M2sip1ta18zPJCrLV+JscmFpos67Zc22GdbLe2h2PdtMdsG/sg2kVi4I9//CMdPXq0JZ6L6POpK3nFN5cHJ92i0KdcXFwk/vjUSZN11acHqyzwmDDLjDe/2p2J98GREfrbwADxYwE/6u+PfjR55vz5thluJty8TCVrE6Km5UwyrK/lmenWRJMJtszM8jWZnRXdemacSadcM4mn2GnqEHu5Dakn59LKNGIrergd07a0Ora2zD7zPtsom8bE7GdaO0m2iV6UQCAkApLHJCe65j+Rzyqrrk8GR58BFbIgg4gBxEBaDEheycqf+nrofLpNN+ByHNoIV30yWPkMgDLjPb+wQPxq98vj4/T5pUv00Zkz1D8wED2lhH80aS4p8ZnhZhJpfsQ2IbNChuU8l0J+TcLI55OIoUk0zbaEwHIp7bBOLaOPTTLK7abpl7qm/Un7Yr/UsZUm4Tb7bJM1z5ltutir+5jHNrNN7AOBUAhIHpNc65r/RD6rrLo+GRzTBlBcA8FCDCAGfGJA8kpW/tTXQ+fTrl1eYg6QMuPNxJtf7X7rp59oZHw8eg73xMQEPXjwgJ49e0aypMRnhtskhrwvW0jSzTpFn7THpJIJtpwX0s2yfF6IvcjzdSGempAm1WEd0o70K60U/dKmWbIu00bRk1bHrC/yUnIf2TZThveT7E1rJ8k2aQslEAiJgJBu0SlJXo6LllXXJ4Ojz4AKWRAwxABiIC0GJK/45tfQ+bTJEj0sCW2Eqz49WHmYHK3NXl1dpaWlpejV7vymSX46CZNtfiwgP6WEX/eetYbbp82yydoIetlshD1AoNsR0HnMNf+54lJ1fTI4pg2guAaChRhADPjEgOQV1zwqcqHzaW1INwPIhJpnsZlc8xISAZP3mZB3A+HmGV2eueXS3MyZXp4lxgYEgMDWIADSHf6HlD6DL2RB1hAD9YsBkG5jvBPya5yy7urByipU85MmudZLL/jYtsSj5pCh+0BgUxHQecw1/7kaWXV9MjiCGNWPGMHn8HmnYkDyimseFbnQ+bRWM90CYjeXstaZZ7tN0s3HmOHuZs+jb1VBAKQbM92dIhbQC9KKGLDHAEi3MUK6fpPQg5WhArtAAAgAgUogoPOYa/5z7VzV9cngCPJgJw/ABbggBvxjQPKKax4VudD5FDPdgixKIAAEgMAmIADSjZlukCZ/0gTMgFmRGADpNgY3128SerAyVGAXCAABIFAJBHQec81/rp2ruj4ZHIsMsKgLgoYYQAyYMSB5xTWPilzofIqZbkEWJRAAAkBgExAA6cZMt0kGsA9yiBjofAyAdBuDm+s3CT1YGSqwCwSAABCoBAI6j7nmP9fOVV2fDI4gIp0nIsAYGNclBiSvuOZRkQudTzHTLciiBAJAAAhsAgIg3W4z3TJIouwlYAAMEANhYsA3xYN0v/22L2aQBwJAAAiUBgGQbpBuEKgwBAo4AkffGPAdCEC6Qbp9YwbyQAAIlAgBkO500v31119HM7vvnrpFfz19Bx9ggBhADBSKgXdPjUY55cCBA94jAUg3SLd30KACEAAC5UEApDuddH/22WfRALnnxEihgRaEHV9YEAOIAY4BziU8I/7pp596DwQg3SDd3kGDCkAACJQHAZDudNK9Z8+eaID8uP8SSDdmOBEDiIHCMfBx/2Dji/yePd4DAUg3SLd30KACEAAC5UEApNuNdH/5zenCgy1mOjHTiRhADHzZdyoi3e+//773QADSDdLtHTSoAASAQHkQAOlOJ90//vgjHT58mHp7jxDWdYMwgTQjBorEAOeQw729dOjwYRobG/MeCEC6Qbq9gwYVgAAQKA8CIN3ppJs9tXfv3mhmat/x85jtxvICxABiIHcMfHL8QpRLPvzww1yDQHDSLQp9ysXFReKPT500WVd9erDKhSAqAQEgAAS2EAHJY5ITXfOfyGeV3aDvyy+/jAbKQ0eOEj95oMhMF+piphQxUM8Y2H1qlA71Ho1yCT8VKSt32q6HzqfbbI1knQtthKs+Gay2cLxE00AACACBQghIHpM865r/RD6r7BZ9PDPFTxz44pvvQLox04kYQAx4xwDnDs4hH3zwQS7Czbk2dD7FGykLDZ+oDASAABDwQ0BIt9QSEi3HRctu0Xfp0iXi5+ryoLmv/6L3gIvZzXrObsLv8DvHwL6NZSUHDx6koaGh3Gk1dD4F6c7tClQEAkAACPgjANKdvaZbUOXn6jLp5h9VfvjtMIg3ZjsRA4iBzBj4sP9ylDM4d/Bz/4tsIN34IWWR+EFdIAAEthgBkG530s2u2r179wbx7qVPjg1kDriY6cRMJ2KgvjHA/xXjL+lMuN97773C2R6kG6S7cBBBARAAAluHAEi3H+lmT/Hg2Zjxbqzx3n3yJsg3ZjwRA4iBOAb4R5Nf9J2O80QIws25B6QbpHvr2AJaBgJAoDACIN3+pJtB538Tyxrvw71H6NPjA3iON0hXTLowu13P2W1+Djc/FlCeUsJruPft21c4T4sCkO68pHt9ndZWVmjp5Tw9f/yInj95TK/m52lleZnW1tYEX5RAAAgAgY4iANKdj3SzU4aHh0leE88z3/zSC37b3Ef9g7Tn5MjG4wVvg4iBjCMGujIGbkf3ON/r/Gp3vvc5B8h/wfiJRxcuXIhmp0MlcZDunKQ7ItzzL2h6cpxGTxynmyeO0ZOJMVp4Pkevl5ZAvENFKPQAASCQigBId37SLcD29/cTD7CNN1c2B10ZfFECE8RAPWKA3zTJueDQoUNRqzIgKwAAIABJREFUeghNkkPr6/qnl6yvrUUz3Itzs/TL3QmaGrpAP/R+TSOH9tP4+bP08PYtmn3ymBYXFqJZ7/X1dcnrKIEAEAACwREA6S5OusUpt2/fjtZ7//3vfyd+0gkvPwERrwfZAqmun5/53uZ7nO91/o8XP39bv9o9NEkOra/rSTfPcL968ZyeTY7TnVP99OOxI/Rg6CL9dPEcjRz4kq71fk2TI1dp+tEjWnj5klZXV6kTxLuvr4+2bdtGO3bskPECJRAAAjVEAKQ7HOnm8Ak9KM7OzhJ/Qm2h7YO+Yp5h/P7whz8Q34chttD+QPwV80pof4TW17Wk25zhZsL90+VB+rG/jya/P0nPpyZpdmKMbh07QsP7P6MbJ47RxJXL9Ozhg4h48zrvLOLN5NmHRLuQbtYnn2Jh1x21BQtdSu8EU7ku53UpvmJ53kTetdy+fbtWiWMgkBsBkG6Q7tzB04EvGaFJRRX0gXTnj8Aq+JdtDLWF7m/Xkm5zhvs2z3B/20ePr1+j+YcPaOXlPL1+8Zzm7t2le4MDNPzZXhr6/COauDJE048eOs14C5FznbkWgpgkL9eFCApBDBE4PT09EdHkskqbYKFL6YPGLKl/4ivBVOvLOgbpFsRRhkAApBuku0gchSYBddQH0p0/AusYL9znUFvXkW7rDPe3fTR57jt6+ehnWn/9mlhmfXWVVpde0ezUBI327qfhfe/T9W96afLyID17cJ8WXjaebJI14+3qCCGISaRbiKFZuurOkqsq6ZZ+CSmWYykFUybFSTIsK5gK6Zb6Zll1jMy+YL/cCIB0g3QXiVCQniLoNZYjgXTnxxDxlx87rtl1pDua4X7eWMMdzXD3N2a4mXCvLC40CPf6erR8hIk3z3jPTtyhqTMn6fIHf6Ohj/ZExHv64c8R8Q61xlsIYhLpNkmjuV/MvY3aVSeUSXiYmAqxts12yzWQ7hDRBB1FEQDpBukuEkMgPUXQA+kuhl7431DULZ67jnQvzc/T04kxmho8T7eO9UZruHlJicxw64BbX1mh1YWX9MuPN2nk4z104a//RteOHKSJq5fplyePaSnhcYJpRFauCVnkmVg5ZyPdJnlk+9JIoujhUm9aD183Z4HFHinN+lxXy7Id+pfBvu1reekb2+C62ezlumZ/2c4kOWmT5ZM2bWeSHM4DgaIIgHSDdBeJobqRlE70FzPd+SOwE/5gnaG2stvnznwMRLaqU3qwMkyKd58/eUQ3v/0meiTgg0sXoh9N8hruaEmJ5XGA0fmVFVp48ojun/uOrn+xjwb2/JUu7f+MfvpxlOb5BTorK7F+2UkiaZq4ChGUkgmg3jQpNMmklk1ql+Vs9dLsEd3SvtioS5N4+7Yv8rY2pP2sUuzRcrq/0gaX5ibnQbpNVLC/VQjoPLZV+dS1/3WzD0+PcI0Mu1wV4gWk2+47l7NV8C/bGGoL3d8uJN2P6ea3xyLSzY8FnJ0ci5aQ8FIS2/rstdVVWnm1SC8e/ERTZ07T1S/20am//Tud+WQvjf0wQjMzM7S8vNzmPyGTXMom55gkaoIn1zQh5Lo2Umk7x7Kix2xX2tckVM671GFybpJrsy2+JpuLLrOPIs/94fO6DdGbViZhYeuvyJrtgHSnoYtrm40ASDdmuovEXGgSUEd9IN35I7CO8cJ9DrV1Henm17w/mRiniQvn6Pqh/fRj/1Ga+2kq+tEkE2+9MeF++fgh3R+6SIMfvkff7uqh/n176dy3/XR7dJSmp6etrxQVMsmlbDbCJ9dsBJGvJZ1PIoq2drPaSKvDhNok1aJLSr7G/ZItTZetL2nyojOrFFy1XFp7JvFPwtLUF8JOUx/2gUASAiDdIN1JseFyHqTHBaVkGcYPpDsZn6wriL8shNKvN9lUulzL1a0CXQ9WLUZtHKwuL9Pii+f0eOw2/XD0IF078CX9dOkCzU5NNma8V1aipSYywz3PhHt4kK4d+or6d/VQ73/8hU72HqahoSEaHx93Jt1CAJMIrFw3ySCbnEQIk+TTyKFvHZ4NFkKbVQrWvu2nyYvOrFJs03JJ/RV5me1OwtjUF8JOUx/2gUASAjqPbVU+TbJPn6+bfVheoiPA77gK8QLS7edTU7oK/mUbQ22h+7tNFPqUi4uLxB+fOmmyrvr0YGUDlcn08tISzU0/panrI3TzZD9d+fxjGu09EL0Qh380yT+ejGe4hwfp0r73qf8/eujIB3+nY1/vp4Hvv6cbN27Q/fv3aW5uzml5SRIBFBuTrgtBFDmztF1LI4dJbSTVEXlpJ60Uu5J08XXRZ36xSJMXnVml2KXlbO2xjLQpdoB0a+RwvJUISB6TnOia/0Q+q4S+xkx6Fk5J13lJIX+Srvuehz+K+aMT+O3cuTOa7fb1pU0+tH2Iv/LFC/vY5vs857qOdPNgura2RosLC/Ts8WOavDpMl7/4hIb3fUBTZ05FTynhH03yGm5eUhLNcP9HDx3a1UPHDuyns2fP0sjICE1OTkaz3AsLC9Gr4fUgLcSOS96SCKDUs12Xc0Iqk0qWk023K+e5FH1CNuVaUp0kealnK5N0JbWfJm/TbzsnuOhrafZLHZ7tBunWyOF4KxEA6d6aSRvXARKkp7tJDxMokO78Pg79JaNu+rpueYkMpvwq94WXL+nZw59p8url6MU3lz94N3osID+lhH80yWu4eUlJNMN9YD+d+/67iHDfvXs3ItwvX76Mnlxi+wGmJpNpBJBtsl0XMigEMak0SbRuV/qb1AafT6ojy0uSlsSYumU/SVdS+2nyojOrFFy0nA1TkZF2GTvBmeWTNpHnEhsQ6CQCQrqlDSGDcly0hL5iCGJ5STH8qhB/WF6S38dV8C/bGGoL3d+uJd1MlPnFNky8+dXu/KZJfvHNxb/9hW58+Un0lBL+0SSv4T5+4Ou2GW4m3PzUEhvhZmdqkiYElgmibbMRRCGTsvZY17PplHZNIi71bG3wNaljI5RiQxohFf2mLtf209o29abti41aJqm/Iif15MegaX0MYae0ixIIpCEA0t2YZUvDyOda6EERpNsH/XbZ0P7ohD6Q7na/uZ7phD9YZ6it7PbZGWJG77eqU3qwyjAzIszxjPeD+xHxHjl6kM6//y6dencXffvJR9GPJs+fOdM2w82Em5epJG02kibkjkuTSIssk0Ahq0IYs2aZRacQRqnHusw2ZDbXbENslzraLr5u2sb75sb6ua5po+hybV/0a91mO1n73BZ/9Ca2CKZJ16U+yydtIexM0o3zQMBEQOexrcqnpk1p+3WzD6Q7LRqyr1UhXkC6s/2YJFEF/7KNobbQ/W1nMg6WhjbCVZ8erBxMjYh3Y8Z7nvjV7vymyaGvv6Czn31MAye+jZ5Swj+aNJeUpM1wS5s2kmbOTAvRk1LIsxBEIclZZFTakXrcvugS3VLKeVNW7BUZs5RrYot5Te+LrG/7Yn9WP039sq9tkGO5nkW6ta0g3YIcyq1EQOcx1/znajP0uSJllwPptuPierYK8QfS7erNdrkq+JdtDLWF7m/Xk24GnpeINGa856NXu/90+xaNX/8heg73xMQEPXjwgJ49e0aypCRthlscmUQmmXgL+WWSyPtM9jRBFAJpzlaLbrM0ibx53iTK3AbL6TZMeZtdadfFdm7HZqNr+0k4mW0n7QtGuhT5tP5qGdbB8klbETuTdOI8ELAhANKN5SW2uHA9F5oE1FEfSLdrtLXL1TFeuM+htlqQbgZL1ngvLS1Fr3bnX6jzi2+YbPNjAfkpJfy696Q13KEAhx4gAATqjQBIN0h3kTsApKcIehQ9+g2kOz+GiL/82HHN2pBu7iwTap7FZnLNS0gkeHifl6CAcBcLJtQGAkAgGwGQbpDu7ChJlpBxK1nC70od9YF0+8WIKV3HeOE+h9pqRbpDgQY9QAAIAIG8CIB0g3TnjR2uB9JTBD3MdBdDD/FXFD+Q7qIIoj4QAAJAwAMBkG6Qbo9waRMF6W6DxOsE44eZbi/IWoQRfy1weB+AdHtDhgpAAAgAgfwIgHSDdOePHsw0FsGO64J0F0MQpLsYfiDdxfBDbSAABICAFwIg3SDdXgGjhEF6FCCehyDdnoApccSfAsTzEKTbEzCIAwEgAASKIADSDdJdJH5Aeoqgh5nuYujhPy1F8QPpLoog6gMBIAAEPBAA6Qbp9giXNlGQ7jZIvE5gptsLrjZhxF8bJF4nQLq94IIwEAACQKAYAiDdIN1FIgikpwh6mOkuhh5muoviB9JdFEHUBwJAAAh4IADSDdLtES5toiDdbZB4ncBMtxdcbcKIvzZIvE6AdHvBBWEgAASAQDEEQLpBuotEEEhPEfQw010MPcx0F8WvUqS7t7eX8AEGiAHEQDfEgCRvkChBIl8ZGr/Z2VniT6gttH3QV8wzjB+e050fQ8Rffuy4Jkg3iDy+yCAGEANbEAOSujGICRL5ytD4gXTn84PUCu2PTugD6RZv+Zed8AfrDLWV3b5tYqBPubi4SPzxqZMm66pPZrcGBgYIH2CAGEAMVDEGJI9JTnTNfyKfVUJfY/lKFk5J12dmZog/Sdd9z8MfxfzRCfx27twZzXb7+tImH9o+xF/54oV9bPN9nnMg3SDw+AKDGEAMbGIMgHRvzaSN6wAJ0tPdpIcJFEh3fh+H/pJRN32VXF5Sxdkt2IxZWcQAYoBjQEi3/DtVyKAcFy2hrxiCWF5SDL8qxB+Wl+T3cRX8yzaG2kL3F6R7E2e4QLpAuhADiAGQ7sYsW1kHRZDuYp4JTVI6oQ+kO7+PO+EP1hlqK7t9IN0g3VhagBhADGxiDIB0g3QXIRhlJxVVsA+kO38EVsG/bGOoLXR/Qbo3cbDFLCdmOREDiAGQbpDuIoQgNAmooz6Q7vwRWMd44T6H2kC6Qboxy4kYQAxsYgyAdIN0FxnAQXqKoIeX4xRDDy/HKYofSPcmDraY5cQsJ2IAMQDSDdJdZOAG6S6CHkh3MfRAuoviB9IN0o1ZTsQAYmATYwCkG6S7yMAN0l0EPZDuYuiBdBfFD6R7EwdbzHJilhMxgBgA6QbpLjJwg3QXQQ+kuxh6IN1F8QPpBunGLCdioHYx8Pbbb0fPy96KL0Eg3SDdRQZukO4i6IF0F0MPpLsofiDdHSZcw8PDLT56/Phx7QjOVhAbtIkZ5bQY2LFjB73xxhv0zjvv0IkTJzb1ngTpBuluGRQ8D0C6PQFT4owfnl6iQPE4RPx5gGUR7XrS/eLFC0u3m6c6TYJBukH+0sgfrm1NfDDpls+bb75Ju3btojNnzmwK+QbpBulujkD+eyA9/piZNUC6TTT89xF//piZNUC6OzzzDNK9NaQKZBa4p8WAEG6zfOutt2jv3r107ty5jpJvkG6QbnMQ9t0H6fFFrFUepLsVD98jxJ8vYq3yIN0g3R0lGGnEB9dAjLcqBkyyrfd/97vf0YEDBzp2X4B0g3S3DsN+RyA9fnhpaZBujYjfMeLPDy8t3fWkWwb1ycnJlr7zsVzrZImZbhDLTsYXdOeLL020bcd/+tOf6Pjx48HzBEg3SHfLYOR5ANLjCZgSB+lWgHgeIv48AVPiIN3GDyk1MWfCPDo6Sua6cF4DzudtZEfLcj2t07aGnPXxeb1pWS2jr2e15dqO9C1JnvvFfRU5lPmIH3DbOtxsJNt27le/+hX9+c9/ptOnTweLd5BukG6d632OQXp80GqXBelux8TnDOLPB612WZDuFNJtkm0NnSZMmhBreTnWRNmlnknyRY+UQn5ZxtzYdtNG33ZYb9Zm2mW2hf2tI5PA3g17G8FOO/frX/+adu/eHWS9N0g3SHdWbk27DtKThk72NZDubIzSJBB/aehkXwPpTiHdafAJ2WWSo2eY0+qZpFvXE51pBFpf47bYBv0FwSTEvu3Y2rD1yWwDZM+N7AGncuCURrDTrv3mN7+hzz//vOULra9PQbpBum351PUcSI8rUnY5kG47Lq5nEX+uSNnlQLpTSDeTVRlQ9UyxeU1Da17TBNYk3WY9sw63ycfmZhJcfc2U432ty7yur2ld3I6e5dZ1+DqTfNMmwQllOUgl/JDuhzRinXYNpNvMJvn2yz5oz87OEn9CbWXvbx3tw3O680d3HeOF+xxq2yYA+pSLi4vEH586abKu+mSGKA+h0ORSE0nWqWVMUqmJqJBnfV4v62Ad5pZUj/WY/dJ69XU9sy1tiH7RlaXHdl2fY92sl8+bmEgbKNMJHvApHz5pxNp2rRPLSyQnuuY/kc8qoa8xk56FU9L1mZkZ4k/Sdd/z8Ecxf3QCv507d0YvyPH1pU0+tH2Iv/LFC/vY5vs850C6U2a6TYLpSp41mU+qpwm+kOakUutlImfbNMHL245Nt3mOCbhuC8flI5fwid0nNmJtO9fJH1JKwg49aENfsUEbpKcYflWIP5Du/D6ugn/ZRsmvRcvQ/cXyki4j3eYXBSZceUk360maTRfyDeJtJ3QguuXHxUaw9Tk8MrBxp8ugJfd90bLs+rC8pJiHy+5ftg/LS/L7uAr+ZRtDbaH7C9IdmHTr5R1JM916CYcvgU0ixHp5S9F2mECyDu6X3nRfQTbLTzbho4aPNME2j/FynNY7PfSgU3Z9IN2t/vc9Krt/2T6Qbl+vNuWr4F+2MdQWur8g3QVJtybV7GiTQOuZZpOo6qAw6zE5Yt18jom0eU3r1Hr4ukmu9HVTl60drq/bFDlTl9kXsz3sg3yXPQZMki37eA28eXc390MPOmXXB9Ld9H2evbL7l+0D6c7j2UadKviXbQy1he5v15PupBlhcYhJHDWZZdIr5EGTa7Me77tuZj3dXpoOIcpcmpvMbOt+ijzb79uOq7zZhuCEEoS7CjEgRJvLN998k3bt2kVnzpyJ7/dO9kF+EC73ceikDn2CbL4SpDsfblKrCvEH0i3e8i+r4F+2MdQWur8g3Y8fxwOtJpuupJsHaNfNJN1cz5WwC8HV7YiN+ksBy5nEwacdjYNuk491P8y2sA/iXfYYYLL9xhtv0DvvvEMnTpxouVc6bTtId+NHXLa8kudc6EERpDuPF5p1QvujE/pAupv+8t3rhD9YZ6it7PaBdAci3Ux6NbHlYz0zbSOrUlfPVvMxywux1vqZHJsEQZNl3ZZrO6yT7db28E1h2mO2jX0Q7SrFwB//+Ec6evRoy/2zWfaDdIN0FyEYZScVVbAPpDt/BFbBv2xjqC10f7uedG/WQIp2QDoRA4gBlxgA6QbpLkIIQpOAOuoD6c4fgXWMF+5zqA2k2/ghpcuACRkQK8QAYqBIDIB0g3QXGcBBeoqgR9Hzm0G682OI+MuPHdcE6Qbp3pJ/sRchLagL0lvlGADpBukuMmyD9BRBD6S7GHoN/ELO/NYtnkG6QbpBuhEDiIFNjAGQbpDuIsSnbiSlE/3FTHf+COyEP1hnqK3s9oF0b+JgW+XZOdiO2WXEQJgYAOkG6S5CMMpOKqpgH0h3/gisgn/ZxlBb6P6CdIN0Y5YTMYAY2MQYAOkG6S5CCEKTgDrqA+nOH4F1jBfuc6gNpHsTB1vMFIaZKQSOwLHKMQDSDdJdZAAH6SmCHtZ0F0MPa7qL4gfSDdKNWU7EAGJgE2MApBuku8jADdJdBD2Q7mLogXQXxQ+kexMH2yrPzsF2zC4jBsLEAEg3SHeRgRukuwh6IN3F0APpLoofSDdIN2Y5EQOIgU2MAZBukO4iAzdIdxH0QLqLoQfSXRQ/kO5NHGwxUxhmphA4AscqxwBIN0h3kYEbpLsIeiDdxdAD6S6KH0g3SDdmOREDiIFNjAGQbpDuIgM3SHcR9EC6i6EH0l0Uv21yA/uUi4uLxB+fOmmyrvpksELZS8AAGCAGqh0DkhNd85/IZ5XQ1yD1WTglXZ+ZmSH+JF33PQ9/FPNHJ/DbuXMn8WMDfX1pkw9tH+KvfPHCPrb5Ps85kO7eag/cIF7wH2KgmjEgCTv0oA19xQZtkJ5i+FUh/kC68/u4Cv5lGyW/Fi1D97dSy0u+/vrraIb33VO36K+n7+ADDBADiIFKxcC7p0ajHHbgwIH4v5QyKMQnCu5AXzEAZ2dniT+hNvijGJKdwA8vx8nvk074g3WG2spuX6VI92effRYNWHtOjFRqoMUXBHxBQgwgBjgGOHfxfyY+/fTTeIwp+yBRN/tAuuPQzLVThXgB6c7l2qhSFfzLNobaQve3UqR7z5490YD1cf8lkG7McCIGEAOVi4GP+wcbEwd79sRjQuikDn0xtLl2QLpzwRZXqkL8gXTH7vLeqYJ/2cZQW+j+VpJ0f/nN6coNtpjpxEwnYgAx8GXfqYh0v//++/GYEDqpQ18Mba4dkO5csMWVqhB/IN2xu7x3quBftjHUFrq/lSLdP/74Ix0+fJh6e48Q1nWDwIDEIgaqFAOcsw739tKhw4dpbGwsHhNCJ3Xoi6HNtQPSnQu2uFIV4g+kO3aX904V/Ms2htpC97dSpJtB3Lt3bzRTtO/4ecx2Y3kBYgAxUJkY+OT4hSh3ffjhhy3jQeikDn0t8HofgHR7Q9ZSoQrxB9Ld4jKvgyr4l20MtYXub+VIN//qn3+IdOjIUeInAVRppgu2YmYWMVDPGNh9apQO9R5t5K5Dh1rGg9BJHfpa4PU+AOn2hqylQhXiD6S7xWVeB1XwL9sYagvd38qRbgaSZ4qYeH/xzXcg3ZjpRAwgBkofA5yrOGfpWW7OZ6GTOvQVG25BuovhV4X4A+nO7+Mq+JdtDLWF7m8lSfelS5dIZrz39V8s/YCL2c16zm7C7/A7x8C+jWUlBw8epKGhobaxIHRSh742iL1OgHR7wdUmXIX4A+luc5vziSr4l20MtYXubyVJN4PJz7nlmSP+UeWH3w6DeGO2EzGAGChdDHzYfznKUZyr+D0Dti10Uoc+G8ru50C63bGySVYh/kC6bZ5zO1cF/7KNobbQ/a0s6WZAd+/evUG8e+mTYwOlG3Ax04mZTsRAfWOA/wvHkwJMuN97773EMSB0Uoe+RKidLoB0O8GUKFSF+APpTnRf5oUq+JdtDLWF7m+lSTeDyoNZY8a7scZ798mbIN+Y8UQMIAa2LAb4R5Nf9J2O81Ia4eYcFjqpQ1+x4Rakuxh+VYg/kO78Pq6Cf9nGUFvo/laedDOw/G9bWeN9uPcIfXp8AM/xBunaMtKF2e16zm7zc7j5sYDylBJew520pMQcEEIndegz0fXfB+n2x8ysUYX4A+k2Pea3XwX/so2httD97QrSzeAODw+TvCaeZ775JRT89reP+gdpz8mRjccL3gYRAxlHDCAGAsTA7SincG7hV7tzruGcI/9146eU2H40aRsIQid16LOh7H4OpNsdK5tkFeIPpNvmObdzVfAv2xhqC93friHdAnB/fz998MEHG2+ubA6CMhiiBCaIAcRAJ2KA3zTJZPuQeg635KakMnRSh74kpN3Og3S74ZQkVYX4A+lO8l72+Sr4l20MtYXub9eRbgaaQbpx40Y0882z3/ykE15+0niFPAhHJwgHdCKu6hQDnEs4p3Bu4RzDX/TNV7v7JPzQSR36fNBvlwXpbsfE50wV4g+k28ejrbJV8C/bGGoL3d+uJd1lBj20E0Prq/Og8/bbbxN/imyh/VE3fXWOvyJxJ3XrFi+h+4v4k0jKV4b2Ryf0gXTn8y3X6oQ/WGeorez2gXQ7eLrsTgxtX50HHZBuhxtCiSD+FCCeh6Hxgz5PByjxOuc/BUWuwyrEH0h3LtdGlargX7Yx1Ba6v9skwfiUMzMzxB+fOmmy0DdbCMvQ+D19+pT4k+Yzn2uh7eukvn/+538m/vj0T8t20j7dVp7jsttX5/jL409dp+z+Lbt9iL9yjUediJff/va3hfO83Heh7UP8dXf8gXTPZjs49E1Vdn11vulBurPvBxlspAwdz3WOP8G0SBnaH3XTh/jzzwFmvFYhXkC68/u4Cv5lG82YLLIfur9YXuLwP4jQ/14ouz4JUAdonETK3l/TPiwvcXJpi5CJX8uFnAd1jr+ckLVUC+2PuulD/LWEk/dBFeIFy0u83RpXqIJ/2cZQW+j+gnQ7eCY06GXXV+dBB6Tb4YZQIqHjuc7xp6DNdRjaH3XTh/jLFXZxpSrEC0h37C7vnSr4l20MtYXuL0i3g2dCg152fXUedEC6HW4IJRI6nuscfwraXIeh/VE3fYi/XGEXV6pCvIB0x+7y3qmCf9nGUFvo/oJ0O3gmNOhl11fnQQek2+GGUCKh47nO8aegzXUY2h9104f4yxV2caUqxAtId+wu750q+JdtDLWF7i9It4NnQoNedn11HnRAuh1uCCUSOp7rHH8K2lyHof1RN32Iv1xhF1eqQryAdMfu8t6pgn/ZxlBb6P6CdDt4JjToZdfX7YPOv/zLv5D5+f3vf0/84XP/9E//FH3M63o/K2TK7t+y29ft8afjp+z+qJt9iD8doX7HVYgXkG4/n5rSVfAv2xhqC91fkG4Hz4QGvez6un3Q0SQapNvhJkgRCR3P3R5/GsrQ+EGfRtjvGPHnh5eWrkL8gXRrr7kfV8G/bGOoLXR/QbodPBMa9LLrq/Ogg+UlDjeEEgkdz3WOPwVtrsPQ/qibPsRfrrCLK1UhXkC6Y3d571TBv2xjqC10f0G6HTwTGvSy66vzoAPS7XBDKJHQ8Vzn+FPQ5joM7Y+66UP85Qq7uFIV4gWkO3aX904V/Ms2htpC9xek28EzoUEvu746Dzog3Q43hBIJHc91jj8Fba7D0P6omz7EX66wiytVIV6YdPPvdyTfFylZl5D4InqkrrwVWY6LlqHtg763C8UNSHecKpJ3qpBE2MZQW50HHUlwRbCsW7yE7m+d469I3End0P6omz7En0RSvrIq8SK5vmgZmoSCdBcjtaH9EVofSLdDXqlKEnHoipNInQcdScBOQCUI1S1eQve3zvGXEFJep0P7o276EH9e4dYmXLd4Cd1fxF9bSHmdCO2P0PpAuh3cGRr0suur801MCYFPAAAGuElEQVQP0u1wQyiR0PFc5/hT0OY6DO2PuulD/OUKu7hS3eIldH8Rf3Eo5doJ7Y/Q+kC6HdwaGvSy6+v2mx6PDHxNHIOhttDx3O3xp3EPjR/0aYT9jhF/fnhpacSfRsTvGPHnh5eWLnv8gXRrj1mOy+7E0PZ1+00P0g3SbbnNnU+Fvt+gzxl6q2Bo/Lo9/2kQQ+MHfRphv2PEnx9eWrrs8QfSrT1mOS67E0PbV+ebHstLLDdAxinEXwZAGZdD4wd9GYBnXK5z/suAxuky4s8JpkQhxF8iNE4Xyh5/IN0Obiy7E0PbV+ebHqTb4YZQIog/BYjnYWj8oM/TAUq8zvlPQZHrEPGXC7a4EuIvhiLXTtnjD6Tbwa1ld2Jo++p804N0O9wQSgTxpwDxPAyNH/R5OkCJ1zn/KShyHSL+csEWV0L8xVDk2il7/G0TA33KxcVF4o9PnTRZ6GussU3DKO1aaPxmZmaIP2lt+lwLbV8n9ckzOX36p2U7aZ9uK89x2e2rc/zl8aeuU3b/lt0+xF+5xqOyx0to+xB/3R1/IN2vsx0c+qYqu7463/Qg3dn3Q6dJXp3jT2Ob57js+aXs9iH+/HOAGadl92/Z7UP8dXf8YXmJwz8wJKE4iDqJlF1fnf+9heUlTiHcIhQ6nuscfy3A5jwI7Y+66UP85Qy8jWp1i5fQ/UX8dXf8gXQ7+Df0TVV2fXW+6UG6HW4IJRI6nuscfwraXIeh/VE3fYi/XGEXV6pbvITuL+IvDqVcO6H9EVofSLeDW0ODXnZ9db7pQbodbgglEjqe6xx/Ctpch6H9UTd9iL9cYRdXqlu8hO4v4i8OpVw7of0RWh9It4NbQ4Nedn11vulBuh1uCCUSOp7rHH8K2lyHof1RN32Iv1xhF1eqW7yE7i/iLw6lXDuh/RFaH0i3g1tDg152fXW+6UG6HW4IJRI6nuscfwraXIeh/VE3fYi/XGEXV6pbvITuL+IvDqVcO6H9EVofSLeDW0ODXnZ9db7pQbodbgglEjqe6xx/Ctpch6H9UTd9iL9cYRdXqlu8hO4v4i8OpVw7of0RWh9It4NbQ4Nedn11vulBuh1uCCUSOp7rHH8K2lyHof1RN32Iv1xhF1eqW7yE7i/iLw6lXDuh/RFaH0i3g1tDg152fXW+6UG6HW4IJRI6nuscfwraXIeh/VE3fYi/XGEXV6pbvITuL+IvDqVcO6H9EVofSLeDW0ODXnZ9db7pQbodbgglEjqe6xx/Ctpch6H9UTd9iL9cYRdXqlu8hO4v4i8OpVw7of0RWh9It4NbQ4Nedn11vulBuh1uCCUSOp7rHH8K2lyHof1RN32Iv1xhF1eqW7yE7i/iLw6lXDuh/RFaH0i3g1tDg152fXW+6UG6HW4IJRI6nuscfwraXIeh/VE3fYi/XGEXV6pbvITuL+IvDqVcO6H9EVofSLeDW0ODXnZ9db7pQbodbgglEjqe6xx/Ctpch6H9UTd9iL9cYRdXqlu8hO4v4i8OpVw7of0RWh9It4NbQ4Nedn11vulBuh1uCCUSOp7rHH8K2lyHof1RN32Iv1xhF1eqW7yE7i/iLw6lXDuh/RFaH0i3g1tDg152fXW+6UG6HW4IJRI6nuscfwraXIeh/VE3fYi/XGEXV6pbvITuL+IvDqVcO6H9EVofSLeDW0ODXnZ9db7pQbodbgglEjqe6xx/Ctpch6H9UTd9iL9cYRdXqlu8hO4v4i8OpVw7of0RWh9It4NbQ4Nedn11vulBuh1uCCUSOp7rHH8K2lyHof1RN32Iv1xhF1eqW7yE7i/iLw6lXDuh/RFaH0i3g1tDg152fXW+6UG6HW4IJRI6nuscfwraXIeh/VE3fYi/XGEXV6pbvITuL+IvDqVcO6H9EVofSLeDW0ODXnZ9db7pQbodbgglEjqe6xx/Ctpch6H9UTd9iL9cYRdXqlu8hO4v4i8OpVw7of0RWt82UehTLi4uEn986qTJQt/rQliGxm9mZob4k+Yzn2uh7eukvj/84Q/EH5/+adlO2qfbynNcdvvqHH95/KnrlN2/ZbcP8Veu8ajs8RLaPsRfd8cfSPfrbAeHvqnKrq/ONz1Id/b90GmSV+f409jmOS57fim7fYg//xxgxmnZ/Vt2+xB/3R1/WF7i8A8MSSgOok4iZddX539vYXmJUwi3CIWO5zrHXwuwOQ9C+6Nu+hB/OQNvo1rd4iV0fxF/3R1/IN0O/g19U5VdX51vepBuhxtCiYSO5zrHn4I212Fof9RNH+IvV9jFleoWL6H7i/iLQynXTmh/hNb3/wMiQ9BOXtA4IgAAAABJRU5ErkJggg==;" parent="1" vertex="1">
                    <mxGeometry x="840" y="200" width="326.82" height="210" as="geometry"/>
                </mxCell>
                <mxCell id="Yi0meD0Ld9YIVMPGZQtg-22" style="edgeStyle=orthogonalEdgeStyle;rounded=0;orthogonalLoop=1;jettySize=auto;html=1;entryX=0.512;entryY=0.002;entryDx=0;entryDy=0;entryPerimeter=0;" parent="1" source="Yi0meD0Ld9YIVMPGZQtg-18" target="Yi0meD0Ld9YIVMPGZQtg-19" edge="1">
                    <mxGeometry relative="1" as="geometry"/>
                </mxCell>
                <mxCell id="Yi0meD0Ld9YIVMPGZQtg-34" style="edgeStyle=orthogonalEdgeStyle;rounded=0;orthogonalLoop=1;jettySize=auto;html=1;entryX=0.5;entryY=1;entryDx=0;entryDy=0;" parent="1" source="Yi0meD0Ld9YIVMPGZQtg-18" target="Yi0meD0Ld9YIVMPGZQtg-27" edge="1">
                    <mxGeometry relative="1" as="geometry"/>
                </mxCell>
                <mxCell id="Yi0meD0Ld9YIVMPGZQtg-18" value="Actor" style="shape=umlActor;verticalLabelPosition=bottom;verticalAlign=top;html=1;outlineConnect=0;strokeColor=#FF3333;strokeWidth=5;fillColor=none;" parent="1" vertex="1">
                    <mxGeometry x="80" y="755" width="30" height="60" as="geometry"/>
                </mxCell>
                <mxCell id="Yi0meD0Ld9YIVMPGZQtg-19" value="" style="shape=process;whiteSpace=wrap;html=1;backgroundOutline=1;strokeColor=#666666;strokeWidth=1;fillColor=#f5f5f5;fontColor=#333333;" parent="1" vertex="1">
                    <mxGeometry x="240" y="585" width="430" height="205" as="geometry"/>
                </mxCell>
                <mxCell id="Yi0meD0Ld9YIVMPGZQtg-20" value="Gestion des utilisateurs" style="text;html=1;strokeColor=none;fillColor=none;align=center;verticalAlign=middle;whiteSpace=wrap;rounded=0;" parent="1" vertex="1">
                    <mxGeometry x="345" y="590" width="180" height="20" as="geometry"/>
                </mxCell>
                <mxCell id="Yi0meD0Ld9YIVMPGZQtg-21" value="Créer" style="text;html=1;strokeColor=#666666;fillColor=#f5f5f5;align=center;verticalAlign=middle;whiteSpace=wrap;rounded=0;fontColor=#333333;" parent="1" vertex="1">
                    <mxGeometry x="310" y="630" width="110" height="20" as="geometry"/>
                </mxCell>
                <mxCell id="Yi0meD0Ld9YIVMPGZQtg-24" value="Modifier" style="text;html=1;strokeColor=#666666;fillColor=#f5f5f5;align=center;verticalAlign=middle;whiteSpace=wrap;rounded=0;fontColor=#333333;" parent="1" vertex="1">
                    <mxGeometry x="472.5" y="630" width="135" height="20" as="geometry"/>
                </mxCell>
                <mxCell id="Yi0meD0Ld9YIVMPGZQtg-25" value="Voir les données sur un tableau" style="text;html=1;strokeColor=#666666;fillColor=#f5f5f5;align=center;verticalAlign=middle;whiteSpace=wrap;rounded=0;fontColor=#333333;" parent="1" vertex="1">
                    <mxGeometry x="310" y="670" width="110" height="70" as="geometry"/>
                </mxCell>
                <mxCell id="Yi0meD0Ld9YIVMPGZQtg-26" value="Supprimer un utilisateur si il n'a pas de liens" style="text;html=1;strokeColor=#666666;fillColor=#f5f5f5;align=center;verticalAlign=middle;whiteSpace=wrap;rounded=0;fontColor=#333333;" parent="1" vertex="1">
                    <mxGeometry x="472.5" y="670" width="135" height="70" as="geometry"/>
                </mxCell>
                <mxCell id="Yi0meD0Ld9YIVMPGZQtg-27" value="" style="shape=process;whiteSpace=wrap;html=1;backgroundOutline=1;strokeColor=#d6b656;strokeWidth=1;fillColor=#fff2cc;" parent="1" vertex="1">
                    <mxGeometry x="240" y="840" width="430" height="240" as="geometry"/>
                </mxCell>
                <mxCell id="Yi0meD0Ld9YIVMPGZQtg-28" value="Page principale" style="text;html=1;strokeColor=none;fillColor=none;align=center;verticalAlign=middle;whiteSpace=wrap;rounded=0;" parent="1" vertex="1">
                    <mxGeometry x="350" y="850" width="180" height="20" as="geometry"/>
                </mxCell>
                <mxCell id="Yi0meD0Ld9YIVMPGZQtg-29" value="Page qui affiche tous les liens (avec pagination)" style="text;html=1;strokeColor=#d6b656;fillColor=#fff2cc;align=center;verticalAlign=middle;whiteSpace=wrap;rounded=0;" parent="1" vertex="1">
                    <mxGeometry x="310" y="890" width="110" height="70" as="geometry"/>
                </mxCell>
                <mxCell id="Yi0meD0Ld9YIVMPGZQtg-30" value="Ajouter un lien" style="text;html=1;strokeColor=#d6b656;fillColor=#fff2cc;align=center;verticalAlign=middle;whiteSpace=wrap;rounded=0;" parent="1" vertex="1">
                    <mxGeometry x="485" y="890" width="110" height="70" as="geometry"/>
                </mxCell>
                <mxCell id="Yi0meD0Ld9YIVMPGZQtg-32" value="Recherche" style="text;html=1;strokeColor=#d6b656;fillColor=#fff2cc;align=center;verticalAlign=middle;whiteSpace=wrap;rounded=0;" parent="1" vertex="1">
                    <mxGeometry x="485" y="970" width="110" height="70" as="geometry"/>
                </mxCell>
                <mxCell id="Yi0meD0Ld9YIVMPGZQtg-33" value="Modifier un lien" style="text;html=1;strokeColor=#d6b656;fillColor=#fff2cc;align=center;verticalAlign=middle;whiteSpace=wrap;rounded=0;" parent="1" vertex="1">
                    <mxGeometry x="310" y="970" width="110" height="70" as="geometry"/>
                </mxCell>
                <mxCell id="Yi0meD0Ld9YIVMPGZQtg-35" value="Fonctionnalitées à ajouter plus tard&lt;br&gt;&lt;br&gt;&lt;br&gt;Gestion de tags&lt;br&gt;Gestion de like" style="shape=document;whiteSpace=wrap;html=1;boundedLbl=1;strokeWidth=1;fillColor=#e1d5e7;strokeColor=#9673a6;" parent="1" vertex="1">
                    <mxGeometry x="790" y="640" width="230" height="360" as="geometry"/>
                </mxCell>
            </root>
        </mxGraphModel>
    </diagram>
    <diagram id="pDzwFWb-dntvhJDi-QWm" name="Maquettes">
        <mxGraphModel dx="712" dy="479" grid="1" gridSize="10" guides="1" tooltips="1" connect="1" arrows="1" fold="1" page="1" pageScale="1" pageWidth="827" pageHeight="1169" math="0" shadow="0">
            <root>
                <mxCell id="4X2lIQblnsY20KKgjXDM-0"/>
                <mxCell id="4X2lIQblnsY20KKgjXDM-1" parent="4X2lIQblnsY20KKgjXDM-0"/>
                <mxCell id="ZiFBqTPpbIGO_TOdWe_P-0" value="" style="strokeWidth=1;shadow=0;dashed=0;align=center;html=1;shape=mxgraph.mockup.containers.browserWindow;rSize=0;strokeColor=#666666;strokeColor2=#008cff;strokeColor3=#c4c4c4;mainText=,;recursiveResize=0;fillColor=none;" parent="4X2lIQblnsY20KKgjXDM-1" vertex="1">
                    <mxGeometry x="20" y="15" width="830" height="570" as="geometry"/>
                </mxCell>
                <mxCell id="ZiFBqTPpbIGO_TOdWe_P-1" value="Page 1" style="strokeWidth=1;shadow=0;dashed=0;align=center;html=1;shape=mxgraph.mockup.containers.anchor;fontSize=17;fontColor=#666666;align=left;" parent="ZiFBqTPpbIGO_TOdWe_P-0" vertex="1">
                    <mxGeometry x="60" y="12" width="110" height="26" as="geometry"/>
                </mxCell>
                <mxCell id="ZiFBqTPpbIGO_TOdWe_P-2" value="https://www.draw.io" style="strokeWidth=1;shadow=0;dashed=0;align=center;html=1;shape=mxgraph.mockup.containers.anchor;rSize=0;fontSize=17;fontColor=#666666;align=left;" parent="ZiFBqTPpbIGO_TOdWe_P-0" vertex="1">
                    <mxGeometry x="130" y="60" width="250" height="26" as="geometry"/>
                </mxCell>
                <mxCell id="ZiFBqTPpbIGO_TOdWe_P-3" value="&lt;table border=&quot;1&quot; width=&quot;100%&quot; cellpadding=&quot;4&quot; style=&quot;width: 100% ; height: 100% ; border-collapse: collapse&quot;&gt;&lt;tbody&gt;&lt;tr style=&quot;background-color: #a7c942 ; color: #ffffff ; border: 1px solid #98bf21&quot;&gt;&lt;th align=&quot;left&quot;&gt;Surname&lt;/th&gt;&lt;th align=&quot;left&quot;&gt;Forename&lt;/th&gt;&lt;th align=&quot;left&quot;&gt;Mail&lt;/th&gt;&lt;/tr&gt;&lt;tr style=&quot;border: 1px solid #98bf21&quot;&gt;&lt;td&gt;Value 1&lt;/td&gt;&lt;td&gt;Value 2&lt;/td&gt;&lt;td&gt;Value 3&lt;/td&gt;&lt;/tr&gt;&lt;tr style=&quot;background-color: #eaf2d3 ; border: 1px solid #98bf21&quot;&gt;&lt;td&gt;Value 4&lt;/td&gt;&lt;td&gt;Value 5&lt;/td&gt;&lt;td&gt;Value 6&lt;/td&gt;&lt;/tr&gt;&lt;tr style=&quot;border: 1px solid #98bf21&quot;&gt;&lt;td&gt;Value 7&lt;/td&gt;&lt;td&gt;Value 8&lt;/td&gt;&lt;td&gt;Value 9&lt;/td&gt;&lt;/tr&gt;&lt;tr style=&quot;background-color: #eaf2d3 ; border: 1px solid #98bf21&quot;&gt;&lt;td&gt;Value 10&lt;/td&gt;&lt;td&gt;Value 11&lt;/td&gt;&lt;td&gt;Value 12&lt;/td&gt;&lt;/tr&gt;&lt;/tbody&gt;&lt;/table&gt;" style="text;html=1;strokeColor=#c0c0c0;fillColor=#ffffff;overflow=fill;rounded=0;" parent="ZiFBqTPpbIGO_TOdWe_P-0" vertex="1">
                    <mxGeometry x="50" y="210" width="740" height="270" as="geometry"/>
                </mxCell>
                <mxCell id="ZiFBqTPpbIGO_TOdWe_P-4" value="" style="html=1;shadow=0;dashed=0;shape=mxgraph.bootstrap.rrect;rSize=5;strokeColor=#DEE2E6;html=1;whiteSpace=wrap;fillColor=#ffffff;fontColor=#0085FC;fontSize=14;" parent="ZiFBqTPpbIGO_TOdWe_P-0" vertex="1">
                    <mxGeometry x="304" y="500" width="220" height="30" as="geometry"/>
                </mxCell>
                <mxCell id="ZiFBqTPpbIGO_TOdWe_P-5" value="Previous" style="strokeColor=inherit;fillColor=inherit;gradientColor=inherit;html=1;shadow=0;dashed=0;shape=mxgraph.bootstrap.leftButton;rSize=5;perimeter=none;whiteSpace=wrap;resizeHeight=1;fontColor=#6C767D;fontSize=14;" parent="ZiFBqTPpbIGO_TOdWe_P-4" vertex="1">
                    <mxGeometry width="70" height="30" relative="1" as="geometry"/>
                </mxCell>
                <mxCell id="ZiFBqTPpbIGO_TOdWe_P-9" value="Next" style="strokeColor=inherit;fillColor=inherit;gradientColor=inherit;fontColor=inherit;html=1;shadow=0;dashed=0;shape=mxgraph.bootstrap.rightButton;rSize=5;perimeter=none;whiteSpace=wrap;resizeHeight=1;fontSize=14;" parent="ZiFBqTPpbIGO_TOdWe_P-4" vertex="1">
                    <mxGeometry x="1" width="60" height="30" relative="1" as="geometry">
                        <mxPoint x="-60" as="offset"/>
                    </mxGeometry>
                </mxCell>
                <mxCell id="ZiFBqTPpbIGO_TOdWe_P-10" value="" style="html=1;verticalLabelPosition=bottom;labelBackgroundColor=#ffffff;verticalAlign=top;shadow=0;dashed=0;strokeWidth=2;shape=mxgraph.ios7.misc.delete;fillColor=#ff0000;strokeColor=#ffffff;" parent="ZiFBqTPpbIGO_TOdWe_P-0" vertex="1">
                    <mxGeometry x="750" y="280" width="22" height="22" as="geometry"/>
                </mxCell>
                <mxCell id="ZiFBqTPpbIGO_TOdWe_P-11" value="" style="html=1;verticalLabelPosition=bottom;labelBackgroundColor=#ffffff;verticalAlign=top;shadow=0;dashed=0;strokeWidth=2;shape=mxgraph.ios7.misc.delete;fillColor=#ff0000;strokeColor=#ffffff;" parent="ZiFBqTPpbIGO_TOdWe_P-0" vertex="1">
                    <mxGeometry x="750" y="334" width="22" height="22" as="geometry"/>
                </mxCell>
                <mxCell id="ZiFBqTPpbIGO_TOdWe_P-12" value="" style="html=1;verticalLabelPosition=bottom;labelBackgroundColor=#ffffff;verticalAlign=top;shadow=0;dashed=0;strokeWidth=2;shape=mxgraph.ios7.misc.delete;fillColor=#ff0000;strokeColor=#ffffff;" parent="ZiFBqTPpbIGO_TOdWe_P-0" vertex="1">
                    <mxGeometry x="750" y="390" width="22" height="22" as="geometry"/>
                </mxCell>
                <mxCell id="ZiFBqTPpbIGO_TOdWe_P-13" value="" style="html=1;verticalLabelPosition=bottom;labelBackgroundColor=#ffffff;verticalAlign=top;shadow=0;dashed=0;strokeWidth=2;shape=mxgraph.ios7.misc.delete;fillColor=#ff0000;strokeColor=#ffffff;" parent="ZiFBqTPpbIGO_TOdWe_P-0" vertex="1">
                    <mxGeometry x="750" y="440" width="22" height="22" as="geometry"/>
                </mxCell>
                <mxCell id="ZiFBqTPpbIGO_TOdWe_P-14" value="" style="html=1;verticalLabelPosition=bottom;align=center;labelBackgroundColor=#ffffff;verticalAlign=top;strokeWidth=2;strokeColor=#0080F0;shadow=0;dashed=0;shape=mxgraph.ios7.icons.compose;fillColor=none;" parent="ZiFBqTPpbIGO_TOdWe_P-0" vertex="1">
                    <mxGeometry x="700" y="280" width="29.099999999999998" height="29.099999999999998" as="geometry"/>
                </mxCell>
                <mxCell id="ZiFBqTPpbIGO_TOdWe_P-15" value="" style="html=1;verticalLabelPosition=bottom;align=center;labelBackgroundColor=#ffffff;verticalAlign=top;strokeWidth=2;strokeColor=#0080F0;shadow=0;dashed=0;shape=mxgraph.ios7.icons.compose;fillColor=none;" parent="ZiFBqTPpbIGO_TOdWe_P-0" vertex="1">
                    <mxGeometry x="700" y="330.45" width="29.099999999999998" height="29.099999999999998" as="geometry"/>
                </mxCell>
                <mxCell id="ZiFBqTPpbIGO_TOdWe_P-16" value="" style="html=1;verticalLabelPosition=bottom;align=center;labelBackgroundColor=#ffffff;verticalAlign=top;strokeWidth=2;strokeColor=#0080F0;shadow=0;dashed=0;shape=mxgraph.ios7.icons.compose;fillColor=none;" parent="ZiFBqTPpbIGO_TOdWe_P-0" vertex="1">
                    <mxGeometry x="700" y="386.45" width="29.099999999999998" height="29.099999999999998" as="geometry"/>
                </mxCell>
                <mxCell id="ZiFBqTPpbIGO_TOdWe_P-17" value="" style="html=1;verticalLabelPosition=bottom;align=center;labelBackgroundColor=#ffffff;verticalAlign=top;strokeWidth=2;strokeColor=#0080F0;shadow=0;dashed=0;shape=mxgraph.ios7.icons.compose;fillColor=none;" parent="ZiFBqTPpbIGO_TOdWe_P-0" vertex="1">
                    <mxGeometry x="700" y="436.45" width="29.099999999999998" height="29.099999999999998" as="geometry"/>
                </mxCell>
                <mxCell id="ZiFBqTPpbIGO_TOdWe_P-18" value="Créer un utilisateur" style="rounded=1;html=1;shadow=0;dashed=0;whiteSpace=wrap;fontSize=10;fillColor=#666666;align=center;strokeColor=#4D4D4D;fontColor=#ffffff;" parent="ZiFBqTPpbIGO_TOdWe_P-0" vertex="1">
                    <mxGeometry x="650" y="170" width="140.5" height="30" as="geometry"/>
                </mxCell>
                <mxCell id="ZiFBqTPpbIGO_TOdWe_P-19" value="Liste des utilisateurs" style="text;strokeColor=none;fillColor=none;html=1;fontSize=24;fontStyle=1;verticalAlign=middle;align=left;" parent="ZiFBqTPpbIGO_TOdWe_P-0" vertex="1">
                    <mxGeometry x="50" y="120" width="430" height="40" as="geometry"/>
                </mxCell>
                <mxCell id="ZiFBqTPpbIGO_TOdWe_P-20" value="" style="shape=rect;fillColor=#e0e0e0;strokeColor=none;" parent="ZiFBqTPpbIGO_TOdWe_P-0" vertex="1">
                    <mxGeometry x="260" y="170" width="320" height="30" as="geometry"/>
                </mxCell>
                <mxCell id="ZiFBqTPpbIGO_TOdWe_P-21" value="" style="html=1;strokeWidth=1;shadow=0;dashed=0;shape=mxgraph.ios7ui.marginRect;rx=3;ry=3;rectMargin=5;strokeColor=none;" parent="ZiFBqTPpbIGO_TOdWe_P-20" vertex="1">
                    <mxGeometry width="320" height="30" as="geometry"/>
                </mxCell>
                <mxCell id="ZiFBqTPpbIGO_TOdWe_P-22" value="Search" style="shape=mxgraph.ios7.icons.looking_glass;strokeColor=#e0e0e0;fillColor=none;fontColor=#e0e0e0;labelPosition=right;verticalLabelPosition=middle;align=left;verticalAlign=middle;fontSize=6;fontStyle=0;spacingTop=2;" parent="ZiFBqTPpbIGO_TOdWe_P-20" vertex="1">
                    <mxGeometry x="0.5" y="0.5" width="6" height="6" relative="1" as="geometry">
                        <mxPoint x="-17" y="-3" as="offset"/>
                    </mxGeometry>
                </mxCell>
                <mxCell id="N3menfLau3UuYbjcijVA-0" value="Bootstrap" style="text;html=1;strokeColor=#6c8ebf;fillColor=#dae8fc;align=center;verticalAlign=middle;whiteSpace=wrap;rounded=0;fontStyle=1" parent="4X2lIQblnsY20KKgjXDM-1" vertex="1">
                    <mxGeometry x="930" y="70" width="140" height="100" as="geometry"/>
                </mxCell>
                <mxCell id="N3menfLau3UuYbjcijVA-1" value="" style="strokeWidth=1;shadow=0;dashed=0;align=center;html=1;shape=mxgraph.mockup.containers.browserWindow;rSize=0;strokeColor=#666666;strokeColor2=#008cff;strokeColor3=#c4c4c4;mainText=,;recursiveResize=0;fillColor=none;" parent="4X2lIQblnsY20KKgjXDM-1" vertex="1">
                    <mxGeometry x="40" y="724" width="830" height="1030" as="geometry"/>
                </mxCell>
                <mxCell id="N3menfLau3UuYbjcijVA-2" value="Page 1" style="strokeWidth=1;shadow=0;dashed=0;align=center;html=1;shape=mxgraph.mockup.containers.anchor;fontSize=17;fontColor=#666666;align=left;" parent="N3menfLau3UuYbjcijVA-1" vertex="1">
                    <mxGeometry x="60" y="12" width="110" height="26" as="geometry"/>
                </mxCell>
                <mxCell id="N3menfLau3UuYbjcijVA-3" value="https://www.draw.io" style="strokeWidth=1;shadow=0;dashed=0;align=center;html=1;shape=mxgraph.mockup.containers.anchor;rSize=0;fontSize=17;fontColor=#666666;align=left;" parent="N3menfLau3UuYbjcijVA-1" vertex="1">
                    <mxGeometry x="130" y="60" width="250" height="26" as="geometry"/>
                </mxCell>
                <mxCell id="N3menfLau3UuYbjcijVA-4" value="DevVeilleTechnologique" style="text;strokeColor=none;fillColor=none;html=1;fontSize=24;fontStyle=1;verticalAlign=middle;align=left;" parent="N3menfLau3UuYbjcijVA-1" vertex="1">
                    <mxGeometry x="30" y="120" width="430" height="40" as="geometry"/>
                </mxCell>
                <mxCell id="N3menfLau3UuYbjcijVA-5" value="&lt;b&gt;&lt;font style=&quot;font-size: 20px&quot;&gt;Card title&lt;/font&gt;&lt;/b&gt;&lt;br style=&quot;font-size: 14px&quot;&gt;&lt;br style=&quot;font-size: 14px&quot;&gt;Some quick example text to build on the card title and make up the bulk of the card's content." style="html=1;shadow=0;dashed=0;shape=mxgraph.bootstrap.rrect;rSize=5;strokeColor=#DFDFDF;html=1;whiteSpace=wrap;fillColor=#ffffff;fontColor=#000000;verticalAlign=bottom;align=left;spacing=20;spacingBottom=50;fontSize=14;" parent="N3menfLau3UuYbjcijVA-1" vertex="1">
                    <mxGeometry x="290" y="230" width="250" height="350" as="geometry"/>
                </mxCell>
                <mxCell id="N3menfLau3UuYbjcijVA-6" value="Image cap" style="html=1;shadow=0;dashed=0;shape=mxgraph.bootstrap.topButton;rSize=5;perimeter=none;whiteSpace=wrap;fillColor=#868E96;strokeColor=#DFDFDF;fontColor=#DEE2E6;resizeWidth=1;fontSize=18;" parent="N3menfLau3UuYbjcijVA-5" vertex="1">
                    <mxGeometry width="250" height="180" relative="1" as="geometry"/>
                </mxCell>
                <mxCell id="N3menfLau3UuYbjcijVA-7" value="Go somewhere" style="html=1;shadow=0;dashed=0;shape=mxgraph.bootstrap.rrect;rSize=5;perimeter=none;whiteSpace=wrap;fillColor=#0085FC;strokeColor=none;fontColor=#ffffff;resizeWidth=1;fontSize=14;" parent="N3menfLau3UuYbjcijVA-5" vertex="1">
                    <mxGeometry y="1" width="120" height="40" relative="1" as="geometry">
                        <mxPoint x="20" y="-60" as="offset"/>
                    </mxGeometry>
                </mxCell>
                <mxCell id="N3menfLau3UuYbjcijVA-38" value="" style="aspect=fixed;pointerEvents=1;shadow=0;dashed=0;html=1;strokeColor=none;labelPosition=center;verticalLabelPosition=bottom;verticalAlign=top;align=center;fillColor=#00188D;shape=mxgraph.azure.user" parent="N3menfLau3UuYbjcijVA-5" vertex="1">
                    <mxGeometry x="190" y="286" width="47" height="50" as="geometry"/>
                </mxCell>
                <mxCell id="N3menfLau3UuYbjcijVA-92" value="" style="html=1;verticalLabelPosition=bottom;align=center;labelBackgroundColor=#ffffff;verticalAlign=top;strokeWidth=2;strokeColor=#0080F0;shadow=0;dashed=0;shape=mxgraph.ios7.icons.compose;fillColor=none;fontSize=19;" parent="N3menfLau3UuYbjcijVA-5" vertex="1">
                    <mxGeometry x="207.9000000000001" y="6" width="29.099999999999998" height="29.099999999999998" as="geometry"/>
                </mxCell>
                <mxCell id="N3menfLau3UuYbjcijVA-9" value="&lt;b&gt;&lt;font style=&quot;font-size: 20px&quot;&gt;Card title&lt;/font&gt;&lt;/b&gt;&lt;br style=&quot;font-size: 14px&quot;&gt;&lt;br style=&quot;font-size: 14px&quot;&gt;Some quick example text to build on the card title and make up the bulk of the card's content." style="html=1;shadow=0;dashed=0;shape=mxgraph.bootstrap.rrect;rSize=5;strokeColor=#DFDFDF;html=1;whiteSpace=wrap;fillColor=#ffffff;fontColor=#000000;verticalAlign=bottom;align=left;spacing=20;spacingBottom=50;fontSize=14;" parent="N3menfLau3UuYbjcijVA-1" vertex="1">
                    <mxGeometry x="20" y="230" width="240" height="350" as="geometry"/>
                </mxCell>
                <mxCell id="N3menfLau3UuYbjcijVA-10" value="Image cap" style="html=1;shadow=0;dashed=0;shape=mxgraph.bootstrap.topButton;rSize=5;perimeter=none;whiteSpace=wrap;fillColor=#868E96;strokeColor=#DFDFDF;fontColor=#DEE2E6;resizeWidth=1;fontSize=18;" parent="N3menfLau3UuYbjcijVA-9" vertex="1">
                    <mxGeometry width="240" height="180" relative="1" as="geometry"/>
                </mxCell>
                <mxCell id="N3menfLau3UuYbjcijVA-11" value="Go somewhere" style="html=1;shadow=0;dashed=0;shape=mxgraph.bootstrap.rrect;rSize=5;perimeter=none;whiteSpace=wrap;fillColor=#0085FC;strokeColor=none;fontColor=#ffffff;resizeWidth=1;fontSize=14;" parent="N3menfLau3UuYbjcijVA-9" vertex="1">
                    <mxGeometry y="1" width="115.19999999999999" height="40" relative="1" as="geometry">
                        <mxPoint x="20" y="-60" as="offset"/>
                    </mxGeometry>
                </mxCell>
                <mxCell id="N3menfLau3UuYbjcijVA-37" value="" style="aspect=fixed;pointerEvents=1;shadow=0;dashed=0;html=1;strokeColor=none;labelPosition=center;verticalLabelPosition=bottom;verticalAlign=top;align=center;fillColor=#00188D;shape=mxgraph.azure.user" parent="N3menfLau3UuYbjcijVA-9" vertex="1">
                    <mxGeometry x="193" y="290" width="47" height="50" as="geometry"/>
                </mxCell>
                <mxCell id="N3menfLau3UuYbjcijVA-93" value="" style="html=1;verticalLabelPosition=bottom;align=center;labelBackgroundColor=#ffffff;verticalAlign=top;strokeWidth=2;strokeColor=#0080F0;shadow=0;dashed=0;shape=mxgraph.ios7.icons.compose;fillColor=none;fontSize=19;" parent="N3menfLau3UuYbjcijVA-9" vertex="1">
                    <mxGeometry x="193.0000000000001" y="6" width="29.099999999999998" height="29.099999999999998" as="geometry"/>
                </mxCell>
                <mxCell id="N3menfLau3UuYbjcijVA-12" value="&lt;b&gt;&lt;font style=&quot;font-size: 20px&quot;&gt;Card title&lt;/font&gt;&lt;/b&gt;&lt;br style=&quot;font-size: 14px&quot;&gt;&lt;br style=&quot;font-size: 14px&quot;&gt;Some quick example text to build on the card title and make up the bulk of the card's content." style="html=1;shadow=0;dashed=0;shape=mxgraph.bootstrap.rrect;rSize=5;strokeColor=#DFDFDF;html=1;whiteSpace=wrap;fillColor=#ffffff;fontColor=#000000;verticalAlign=bottom;align=left;spacing=20;spacingBottom=50;fontSize=14;" parent="N3menfLau3UuYbjcijVA-1" vertex="1">
                    <mxGeometry x="570" y="230" width="250" height="350" as="geometry"/>
                </mxCell>
                <mxCell id="N3menfLau3UuYbjcijVA-13" value="Image cap" style="html=1;shadow=0;dashed=0;shape=mxgraph.bootstrap.topButton;rSize=5;perimeter=none;whiteSpace=wrap;fillColor=#868E96;strokeColor=#DFDFDF;fontColor=#DEE2E6;resizeWidth=1;fontSize=18;" parent="N3menfLau3UuYbjcijVA-12" vertex="1">
                    <mxGeometry width="250" height="180" relative="1" as="geometry"/>
                </mxCell>
                <mxCell id="N3menfLau3UuYbjcijVA-14" value="Go somewhere" style="html=1;shadow=0;dashed=0;shape=mxgraph.bootstrap.rrect;rSize=5;perimeter=none;whiteSpace=wrap;fillColor=#0085FC;strokeColor=none;fontColor=#ffffff;resizeWidth=1;fontSize=14;" parent="N3menfLau3UuYbjcijVA-12" vertex="1">
                    <mxGeometry y="1" width="120" height="40" relative="1" as="geometry">
                        <mxPoint x="20" y="-60" as="offset"/>
                    </mxGeometry>
                </mxCell>
                <mxCell id="N3menfLau3UuYbjcijVA-39" value="" style="aspect=fixed;pointerEvents=1;shadow=0;dashed=0;html=1;strokeColor=none;labelPosition=center;verticalLabelPosition=bottom;verticalAlign=top;align=center;fillColor=#00188D;shape=mxgraph.azure.user" parent="N3menfLau3UuYbjcijVA-12" vertex="1">
                    <mxGeometry x="200" y="286" width="47" height="50" as="geometry"/>
                </mxCell>
                <mxCell id="N3menfLau3UuYbjcijVA-91" value="" style="html=1;verticalLabelPosition=bottom;align=center;labelBackgroundColor=#ffffff;verticalAlign=top;strokeWidth=2;strokeColor=#0080F0;shadow=0;dashed=0;shape=mxgraph.ios7.icons.compose;fillColor=none;fontSize=19;" parent="N3menfLau3UuYbjcijVA-12" vertex="1">
                    <mxGeometry x="208.95000000000005" y="6" width="29.099999999999998" height="29.099999999999998" as="geometry"/>
                </mxCell>
                <mxCell id="N3menfLau3UuYbjcijVA-16" value="&lt;b&gt;&lt;font style=&quot;font-size: 20px&quot;&gt;Card title&lt;/font&gt;&lt;/b&gt;&lt;br style=&quot;font-size: 14px&quot;&gt;&lt;br style=&quot;font-size: 14px&quot;&gt;Some quick example text to build on the card title and make up the bulk of the card's content." style="html=1;shadow=0;dashed=0;shape=mxgraph.bootstrap.rrect;rSize=5;strokeColor=#DFDFDF;html=1;whiteSpace=wrap;fillColor=#ffffff;fontColor=#000000;verticalAlign=bottom;align=left;spacing=20;spacingBottom=50;fontSize=14;" parent="N3menfLau3UuYbjcijVA-1" vertex="1">
                    <mxGeometry x="290" y="610" width="250" height="350" as="geometry"/>
                </mxCell>
                <mxCell id="N3menfLau3UuYbjcijVA-17" value="Image cap" style="html=1;shadow=0;dashed=0;shape=mxgraph.bootstrap.topButton;rSize=5;perimeter=none;whiteSpace=wrap;fillColor=#868E96;strokeColor=#DFDFDF;fontColor=#DEE2E6;resizeWidth=1;fontSize=18;" parent="N3menfLau3UuYbjcijVA-16" vertex="1">
                    <mxGeometry width="250" height="180" relative="1" as="geometry"/>
                </mxCell>
                <mxCell id="N3menfLau3UuYbjcijVA-18" value="Go somewhere" style="html=1;shadow=0;dashed=0;shape=mxgraph.bootstrap.rrect;rSize=5;perimeter=none;whiteSpace=wrap;fillColor=#0085FC;strokeColor=none;fontColor=#ffffff;resizeWidth=1;fontSize=14;" parent="N3menfLau3UuYbjcijVA-16" vertex="1">
                    <mxGeometry y="1" width="120" height="40" relative="1" as="geometry">
                        <mxPoint x="20" y="-60" as="offset"/>
                    </mxGeometry>
                </mxCell>
                <mxCell id="N3menfLau3UuYbjcijVA-41" value="" style="aspect=fixed;pointerEvents=1;shadow=0;dashed=0;html=1;strokeColor=none;labelPosition=center;verticalLabelPosition=bottom;verticalAlign=top;align=center;fillColor=#00188D;shape=mxgraph.azure.user" parent="N3menfLau3UuYbjcijVA-16" vertex="1">
                    <mxGeometry x="200" y="286" width="47" height="50" as="geometry"/>
                </mxCell>
                <mxCell id="N3menfLau3UuYbjcijVA-89" value="" style="html=1;verticalLabelPosition=bottom;align=center;labelBackgroundColor=#ffffff;verticalAlign=top;strokeWidth=2;strokeColor=#0080F0;shadow=0;dashed=0;shape=mxgraph.ios7.icons.compose;fillColor=none;fontSize=19;" parent="N3menfLau3UuYbjcijVA-16" vertex="1">
                    <mxGeometry x="208.95000000000005" y="6" width="29.099999999999998" height="29.099999999999998" as="geometry"/>
                </mxCell>
                <mxCell id="N3menfLau3UuYbjcijVA-19" value="&lt;b&gt;&lt;font style=&quot;font-size: 20px&quot;&gt;Card title&lt;/font&gt;&lt;/b&gt;&lt;br style=&quot;font-size: 14px&quot;&gt;&lt;br style=&quot;font-size: 14px&quot;&gt;Some quick example text to build on the card title and make up the bulk of the card's content." style="html=1;shadow=0;dashed=0;shape=mxgraph.bootstrap.rrect;rSize=5;strokeColor=#DFDFDF;html=1;whiteSpace=wrap;fillColor=#ffffff;fontColor=#000000;verticalAlign=bottom;align=left;spacing=20;spacingBottom=50;fontSize=14;" parent="N3menfLau3UuYbjcijVA-1" vertex="1">
                    <mxGeometry x="20" y="610" width="240" height="350" as="geometry"/>
                </mxCell>
                <mxCell id="N3menfLau3UuYbjcijVA-20" value="Image cap" style="html=1;shadow=0;dashed=0;shape=mxgraph.bootstrap.topButton;rSize=5;perimeter=none;whiteSpace=wrap;fillColor=#868E96;strokeColor=#DFDFDF;fontColor=#DEE2E6;resizeWidth=1;fontSize=18;" parent="N3menfLau3UuYbjcijVA-19" vertex="1">
                    <mxGeometry width="240" height="180" relative="1" as="geometry"/>
                </mxCell>
                <mxCell id="N3menfLau3UuYbjcijVA-21" value="Go somewhere" style="html=1;shadow=0;dashed=0;shape=mxgraph.bootstrap.rrect;rSize=5;perimeter=none;whiteSpace=wrap;fillColor=#0085FC;strokeColor=none;fontColor=#ffffff;resizeWidth=1;fontSize=14;" parent="N3menfLau3UuYbjcijVA-19" vertex="1">
                    <mxGeometry y="1" width="115.19999999999999" height="40" relative="1" as="geometry">
                        <mxPoint x="20" y="-60" as="offset"/>
                    </mxGeometry>
                </mxCell>
                <mxCell id="N3menfLau3UuYbjcijVA-88" value="" style="html=1;verticalLabelPosition=bottom;align=center;labelBackgroundColor=#ffffff;verticalAlign=top;strokeWidth=2;strokeColor=#0080F0;shadow=0;dashed=0;shape=mxgraph.ios7.icons.compose;fillColor=none;fontSize=19;" parent="N3menfLau3UuYbjcijVA-19" vertex="1">
                    <mxGeometry x="202" y="6" width="29.099999999999998" height="29.099999999999998" as="geometry"/>
                </mxCell>
                <mxCell id="N3menfLau3UuYbjcijVA-22" value="&lt;b&gt;&lt;font style=&quot;font-size: 20px&quot;&gt;Card title&lt;/font&gt;&lt;/b&gt;&lt;br style=&quot;font-size: 14px&quot;&gt;&lt;br style=&quot;font-size: 14px&quot;&gt;Some quick example text to build on the card title and make up the bulk of the card's content." style="html=1;shadow=0;dashed=0;shape=mxgraph.bootstrap.rrect;rSize=5;strokeColor=#DFDFDF;html=1;whiteSpace=wrap;fillColor=#ffffff;fontColor=#000000;verticalAlign=bottom;align=left;spacing=20;spacingBottom=50;fontSize=14;" parent="N3menfLau3UuYbjcijVA-1" vertex="1">
                    <mxGeometry x="570" y="610" width="250" height="350" as="geometry"/>
                </mxCell>
                <mxCell id="N3menfLau3UuYbjcijVA-23" value="Image cap" style="html=1;shadow=0;dashed=0;shape=mxgraph.bootstrap.topButton;rSize=5;perimeter=none;whiteSpace=wrap;fillColor=#868E96;strokeColor=#DFDFDF;fontColor=#DEE2E6;resizeWidth=1;fontSize=18;" parent="N3menfLau3UuYbjcijVA-22" vertex="1">
                    <mxGeometry width="250" height="180" relative="1" as="geometry"/>
                </mxCell>
                <mxCell id="N3menfLau3UuYbjcijVA-24" value="Go somewhere" style="html=1;shadow=0;dashed=0;shape=mxgraph.bootstrap.rrect;rSize=5;perimeter=none;whiteSpace=wrap;fillColor=#0085FC;strokeColor=none;fontColor=#ffffff;resizeWidth=1;fontSize=14;" parent="N3menfLau3UuYbjcijVA-22" vertex="1">
                    <mxGeometry y="1" width="120" height="40" relative="1" as="geometry">
                        <mxPoint x="20" y="-60" as="offset"/>
                    </mxGeometry>
                </mxCell>
                <mxCell id="N3menfLau3UuYbjcijVA-40" value="" style="aspect=fixed;pointerEvents=1;shadow=0;dashed=0;html=1;strokeColor=none;labelPosition=center;verticalLabelPosition=bottom;verticalAlign=top;align=center;fillColor=#00188D;shape=mxgraph.azure.user" parent="N3menfLau3UuYbjcijVA-22" vertex="1">
                    <mxGeometry x="200" y="290" width="47" height="50" as="geometry"/>
                </mxCell>
                <mxCell id="N3menfLau3UuYbjcijVA-90" value="" style="html=1;verticalLabelPosition=bottom;align=center;labelBackgroundColor=#ffffff;verticalAlign=top;strokeWidth=2;strokeColor=#0080F0;shadow=0;dashed=0;shape=mxgraph.ios7.icons.compose;fillColor=none;fontSize=19;" parent="N3menfLau3UuYbjcijVA-22" vertex="1">
                    <mxGeometry x="208.95000000000005" y="6" width="29.099999999999998" height="29.099999999999998" as="geometry"/>
                </mxCell>
                <mxCell id="N3menfLau3UuYbjcijVA-25" value="" style="html=1;shadow=0;dashed=0;shape=mxgraph.bootstrap.rrect;rSize=5;strokeColor=#DEE2E6;html=1;whiteSpace=wrap;fillColor=#ffffff;fontColor=#0085FC;fontSize=14;align=left;" parent="N3menfLau3UuYbjcijVA-1" vertex="1">
                    <mxGeometry x="305" y="980" width="220" height="30" as="geometry"/>
                </mxCell>
                <mxCell id="N3menfLau3UuYbjcijVA-26" value="Previous" style="strokeColor=inherit;fillColor=inherit;gradientColor=inherit;fontColor=inherit;html=1;shadow=0;dashed=0;shape=mxgraph.bootstrap.leftButton;rSize=5;perimeter=none;whiteSpace=wrap;resizeHeight=1;fontSize=14;" parent="N3menfLau3UuYbjcijVA-25" vertex="1">
                    <mxGeometry width="70" height="30" relative="1" as="geometry"/>
                </mxCell>
                <mxCell id="N3menfLau3UuYbjcijVA-27" value="1" style="strokeColor=inherit;fillColor=inherit;gradientColor=inherit;fontColor=inherit;html=1;shadow=0;dashed=0;perimeter=none;whiteSpace=wrap;resizeHeight=1;fontSize=14;" parent="N3menfLau3UuYbjcijVA-25" vertex="1">
                    <mxGeometry width="30" height="30" relative="1" as="geometry">
                        <mxPoint x="70" as="offset"/>
                    </mxGeometry>
                </mxCell>
                <mxCell id="N3menfLau3UuYbjcijVA-28" value="2" style="strokeColor=inherit;fillColor=inherit;gradientColor=inherit;fontColor=inherit;html=1;shadow=0;dashed=0;perimeter=none;whiteSpace=wrap;resizeHeight=1;fontSize=14;" parent="N3menfLau3UuYbjcijVA-25" vertex="1">
                    <mxGeometry width="30" height="30" relative="1" as="geometry">
                        <mxPoint x="100" as="offset"/>
                    </mxGeometry>
                </mxCell>
                <mxCell id="N3menfLau3UuYbjcijVA-29" value="3" style="strokeColor=inherit;fillColor=inherit;gradientColor=inherit;fontColor=inherit;html=1;shadow=0;dashed=0;perimeter=none;whiteSpace=wrap;resizeHeight=1;fontSize=14;" parent="N3menfLau3UuYbjcijVA-25" vertex="1">
                    <mxGeometry width="30" height="30" relative="1" as="geometry">
                        <mxPoint x="130" as="offset"/>
                    </mxGeometry>
                </mxCell>
                <mxCell id="N3menfLau3UuYbjcijVA-30" value="Next" style="strokeColor=inherit;fillColor=inherit;gradientColor=inherit;fontColor=inherit;html=1;shadow=0;dashed=0;shape=mxgraph.bootstrap.rightButton;rSize=5;perimeter=none;whiteSpace=wrap;resizeHeight=1;fontSize=14;" parent="N3menfLau3UuYbjcijVA-25" vertex="1">
                    <mxGeometry x="1" width="60" height="30" relative="1" as="geometry">
                        <mxPoint x="-60" as="offset"/>
                    </mxGeometry>
                </mxCell>
                <mxCell id="N3menfLau3UuYbjcijVA-35" value="Utilisateurs" style="html=1;shadow=0;dashed=0;shape=mxgraph.bootstrap.rrect;rSize=5;strokeColor=none;strokeWidth=1;fillColor=none;fontColor=#0085FC;whiteSpace=wrap;align=center;verticalAlign=middle;spacingLeft=0;fontStyle=0;fontSize=16;spacing=5;" parent="N3menfLau3UuYbjcijVA-1" vertex="1">
                    <mxGeometry x="690" y="120" width="107" height="40" as="geometry"/>
                </mxCell>
                <mxCell id="N3menfLau3UuYbjcijVA-36" value="" style="html=1;verticalLabelPosition=bottom;align=center;labelBackgroundColor=#ffffff;verticalAlign=top;strokeWidth=2;strokeColor=#0080F0;shadow=0;dashed=0;shape=mxgraph.ios7.icons.add;fillColor=none;" parent="N3menfLau3UuYbjcijVA-1" vertex="1">
                    <mxGeometry x="781" y="170" width="30" height="30" as="geometry"/>
                </mxCell>
                <mxCell id="N3menfLau3UuYbjcijVA-31" value="" style="shape=rect;fillColor=#F6F6F6;strokeColor=none;align=left;" parent="N3menfLau3UuYbjcijVA-1" vertex="1">
                    <mxGeometry x="260" y="170" width="310" height="30" as="geometry"/>
                </mxCell>
                <mxCell id="N3menfLau3UuYbjcijVA-32" value="" style="html=1;strokeWidth=1;shadow=0;dashed=0;shape=mxgraph.ios7ui.marginRect;rx=3;ry=3;rectMargin=5;fillColor=#E4E4E4;strokeColor=none;" parent="N3menfLau3UuYbjcijVA-31" vertex="1">
                    <mxGeometry width="310" height="30" as="geometry"/>
                </mxCell>
                <mxCell id="N3menfLau3UuYbjcijVA-33" value="Search" style="shape=mxgraph.ios7.icons.looking_glass;strokeColor=#878789;fillColor=none;fontColor=#878789;labelPosition=right;verticalLabelPosition=middle;align=left;verticalAlign=middle;fontSize=6;fontStyle=0;spacingTop=2;" parent="N3menfLau3UuYbjcijVA-31" vertex="1">
                    <mxGeometry x="0.5" y="0.5" width="6" height="6" relative="1" as="geometry">
                        <mxPoint x="-17" y="-3" as="offset"/>
                    </mxGeometry>
                </mxCell>
                <mxCell id="N3menfLau3UuYbjcijVA-85" value="Amène vers le lien &lt;br style=&quot;font-size: 19px;&quot;&gt;dans un autre onglet" style="shape=step;perimeter=stepPerimeter;whiteSpace=wrap;html=1;fixedSize=1;strokeColor=#6c8ebf;strokeWidth=1;fillColor=#dae8fc;align=center;fontSize=19;" parent="4X2lIQblnsY20KKgjXDM-1" vertex="1">
                    <mxGeometry x="279" y="1830" width="270" height="200" as="geometry"/>
                </mxCell>
                <mxCell id="N3menfLau3UuYbjcijVA-86" style="edgeStyle=orthogonalEdgeStyle;rounded=0;orthogonalLoop=1;jettySize=auto;html=1;fontSize=19;" parent="4X2lIQblnsY20KKgjXDM-1" source="N3menfLau3UuYbjcijVA-18" target="N3menfLau3UuYbjcijVA-85" edge="1">
                    <mxGeometry relative="1" as="geometry"/>
                </mxCell>
                <mxCell id="N3menfLau3UuYbjcijVA-94" value="" style="strokeWidth=1;shadow=0;dashed=0;align=center;html=1;shape=mxgraph.mockup.containers.browserWindow;rSize=0;strokeColor=#666666;strokeColor2=#008cff;strokeColor3=#c4c4c4;mainText=,;recursiveResize=0;fillColor=none;" parent="4X2lIQblnsY20KKgjXDM-1" vertex="1">
                    <mxGeometry x="1040" y="724" width="830" height="1030" as="geometry"/>
                </mxCell>
                <mxCell id="N3menfLau3UuYbjcijVA-95" value="Page 1" style="strokeWidth=1;shadow=0;dashed=0;align=center;html=1;shape=mxgraph.mockup.containers.anchor;fontSize=17;fontColor=#666666;align=left;" parent="N3menfLau3UuYbjcijVA-94" vertex="1">
                    <mxGeometry x="60" y="12" width="110" height="26" as="geometry"/>
                </mxCell>
                <mxCell id="N3menfLau3UuYbjcijVA-96" value="https://www.draw.io" style="strokeWidth=1;shadow=0;dashed=0;align=center;html=1;shape=mxgraph.mockup.containers.anchor;rSize=0;fontSize=17;fontColor=#666666;align=left;" parent="N3menfLau3UuYbjcijVA-94" vertex="1">
                    <mxGeometry x="130" y="60" width="250" height="26" as="geometry"/>
                </mxCell>
                <mxCell id="N3menfLau3UuYbjcijVA-97" value="DevVeilleTechnologique" style="text;strokeColor=none;fillColor=none;html=1;fontSize=24;fontStyle=1;verticalAlign=middle;align=left;" parent="N3menfLau3UuYbjcijVA-94" vertex="1">
                    <mxGeometry x="30" y="120" width="430" height="40" as="geometry"/>
                </mxCell>
                <mxCell id="N3menfLau3UuYbjcijVA-98" value="&lt;b&gt;&lt;font style=&quot;font-size: 20px&quot;&gt;Card title&lt;/font&gt;&lt;/b&gt;&lt;br style=&quot;font-size: 14px&quot;&gt;&lt;br style=&quot;font-size: 14px&quot;&gt;Some quick example text to build on the card title and make up the bulk of the card's content." style="html=1;shadow=0;dashed=0;shape=mxgraph.bootstrap.rrect;rSize=5;strokeColor=#DFDFDF;html=1;whiteSpace=wrap;fillColor=#ffffff;fontColor=#000000;verticalAlign=bottom;align=left;spacing=20;spacingBottom=50;fontSize=14;" parent="N3menfLau3UuYbjcijVA-94" vertex="1">
                    <mxGeometry x="290" y="230" width="250" height="350" as="geometry"/>
                </mxCell>
                <mxCell id="N3menfLau3UuYbjcijVA-99" value="Image cap" style="html=1;shadow=0;dashed=0;shape=mxgraph.bootstrap.topButton;rSize=5;perimeter=none;whiteSpace=wrap;fillColor=#868E96;strokeColor=#DFDFDF;fontColor=#DEE2E6;resizeWidth=1;fontSize=18;" parent="N3menfLau3UuYbjcijVA-98" vertex="1">
                    <mxGeometry width="250" height="180" relative="1" as="geometry"/>
                </mxCell>
                <mxCell id="N3menfLau3UuYbjcijVA-100" value="Go somewhere" style="html=1;shadow=0;dashed=0;shape=mxgraph.bootstrap.rrect;rSize=5;perimeter=none;whiteSpace=wrap;fillColor=#0085FC;strokeColor=none;fontColor=#ffffff;resizeWidth=1;fontSize=14;" parent="N3menfLau3UuYbjcijVA-98" vertex="1">
                    <mxGeometry y="1" width="120" height="40" relative="1" as="geometry">
                        <mxPoint x="20" y="-60" as="offset"/>
                    </mxGeometry>
                </mxCell>
                <mxCell id="N3menfLau3UuYbjcijVA-101" value="" style="aspect=fixed;pointerEvents=1;shadow=0;dashed=0;html=1;strokeColor=none;labelPosition=center;verticalLabelPosition=bottom;verticalAlign=top;align=center;fillColor=#00188D;shape=mxgraph.azure.user" parent="N3menfLau3UuYbjcijVA-98" vertex="1">
                    <mxGeometry x="190" y="286" width="47" height="50" as="geometry"/>
                </mxCell>
                <mxCell id="N3menfLau3UuYbjcijVA-102" value="" style="html=1;verticalLabelPosition=bottom;align=center;labelBackgroundColor=#ffffff;verticalAlign=top;strokeWidth=2;strokeColor=#0080F0;shadow=0;dashed=0;shape=mxgraph.ios7.icons.compose;fillColor=none;fontSize=19;" parent="N3menfLau3UuYbjcijVA-98" vertex="1">
                    <mxGeometry x="207.9000000000001" y="6" width="29.099999999999998" height="29.099999999999998" as="geometry"/>
                </mxCell>
                <mxCell id="N3menfLau3UuYbjcijVA-103" value="&lt;b&gt;&lt;font style=&quot;font-size: 20px&quot;&gt;Card title&lt;/font&gt;&lt;/b&gt;&lt;br style=&quot;font-size: 14px&quot;&gt;&lt;br style=&quot;font-size: 14px&quot;&gt;Some quick example text to build on the card title and make up the bulk of the card's content." style="html=1;shadow=0;dashed=0;shape=mxgraph.bootstrap.rrect;rSize=5;strokeColor=#DFDFDF;html=1;whiteSpace=wrap;fillColor=#ffffff;fontColor=#000000;verticalAlign=bottom;align=left;spacing=20;spacingBottom=50;fontSize=14;" parent="N3menfLau3UuYbjcijVA-94" vertex="1">
                    <mxGeometry x="20" y="230" width="240" height="350" as="geometry"/>
                </mxCell>
                <mxCell id="N3menfLau3UuYbjcijVA-104" value="Image cap" style="html=1;shadow=0;dashed=0;shape=mxgraph.bootstrap.topButton;rSize=5;perimeter=none;whiteSpace=wrap;fillColor=#868E96;strokeColor=#DFDFDF;fontColor=#DEE2E6;resizeWidth=1;fontSize=18;" parent="N3menfLau3UuYbjcijVA-103" vertex="1">
                    <mxGeometry width="240" height="180" relative="1" as="geometry"/>
                </mxCell>
                <mxCell id="N3menfLau3UuYbjcijVA-105" value="Go somewhere" style="html=1;shadow=0;dashed=0;shape=mxgraph.bootstrap.rrect;rSize=5;perimeter=none;whiteSpace=wrap;fillColor=#0085FC;strokeColor=none;fontColor=#ffffff;resizeWidth=1;fontSize=14;" parent="N3menfLau3UuYbjcijVA-103" vertex="1">
                    <mxGeometry y="1" width="115.19999999999999" height="40" relative="1" as="geometry">
                        <mxPoint x="20" y="-60" as="offset"/>
                    </mxGeometry>
                </mxCell>
                <mxCell id="N3menfLau3UuYbjcijVA-106" value="" style="aspect=fixed;pointerEvents=1;shadow=0;dashed=0;html=1;strokeColor=none;labelPosition=center;verticalLabelPosition=bottom;verticalAlign=top;align=center;fillColor=#00188D;shape=mxgraph.azure.user" parent="N3menfLau3UuYbjcijVA-103" vertex="1">
                    <mxGeometry x="193" y="290" width="47" height="50" as="geometry"/>
                </mxCell>
                <mxCell id="N3menfLau3UuYbjcijVA-107" value="" style="html=1;verticalLabelPosition=bottom;align=center;labelBackgroundColor=#ffffff;verticalAlign=top;strokeWidth=2;strokeColor=#0080F0;shadow=0;dashed=0;shape=mxgraph.ios7.icons.compose;fillColor=none;fontSize=19;" parent="N3menfLau3UuYbjcijVA-103" vertex="1">
                    <mxGeometry x="193.0000000000001" y="6" width="29.099999999999998" height="29.099999999999998" as="geometry"/>
                </mxCell>
                <mxCell id="N3menfLau3UuYbjcijVA-108" value="&lt;b&gt;&lt;font style=&quot;font-size: 20px&quot;&gt;Card title&lt;/font&gt;&lt;/b&gt;&lt;br style=&quot;font-size: 14px&quot;&gt;&lt;br style=&quot;font-size: 14px&quot;&gt;Some quick example text to build on the card title and make up the bulk of the card's content." style="html=1;shadow=0;dashed=0;shape=mxgraph.bootstrap.rrect;rSize=5;strokeColor=#DFDFDF;html=1;whiteSpace=wrap;fillColor=#ffffff;fontColor=#000000;verticalAlign=bottom;align=left;spacing=20;spacingBottom=50;fontSize=14;" parent="N3menfLau3UuYbjcijVA-94" vertex="1">
                    <mxGeometry x="570" y="230" width="250" height="350" as="geometry"/>
                </mxCell>
                <mxCell id="N3menfLau3UuYbjcijVA-109" value="Image cap" style="html=1;shadow=0;dashed=0;shape=mxgraph.bootstrap.topButton;rSize=5;perimeter=none;whiteSpace=wrap;fillColor=#868E96;strokeColor=#DFDFDF;fontColor=#DEE2E6;resizeWidth=1;fontSize=18;" parent="N3menfLau3UuYbjcijVA-108" vertex="1">
                    <mxGeometry width="250" height="180" relative="1" as="geometry"/>
                </mxCell>
                <mxCell id="N3menfLau3UuYbjcijVA-110" value="Go somewhere" style="html=1;shadow=0;dashed=0;shape=mxgraph.bootstrap.rrect;rSize=5;perimeter=none;whiteSpace=wrap;fillColor=#0085FC;strokeColor=none;fontColor=#ffffff;resizeWidth=1;fontSize=14;" parent="N3menfLau3UuYbjcijVA-108" vertex="1">
                    <mxGeometry y="1" width="120" height="40" relative="1" as="geometry">
                        <mxPoint x="20" y="-60" as="offset"/>
                    </mxGeometry>
                </mxCell>
                <mxCell id="N3menfLau3UuYbjcijVA-111" value="" style="aspect=fixed;pointerEvents=1;shadow=0;dashed=0;html=1;strokeColor=none;labelPosition=center;verticalLabelPosition=bottom;verticalAlign=top;align=center;fillColor=#00188D;shape=mxgraph.azure.user" parent="N3menfLau3UuYbjcijVA-108" vertex="1">
                    <mxGeometry x="200" y="286" width="47" height="50" as="geometry"/>
                </mxCell>
                <mxCell id="N3menfLau3UuYbjcijVA-112" value="" style="html=1;verticalLabelPosition=bottom;align=center;labelBackgroundColor=#ffffff;verticalAlign=top;strokeWidth=2;strokeColor=#0080F0;shadow=0;dashed=0;shape=mxgraph.ios7.icons.compose;fillColor=none;fontSize=19;" parent="N3menfLau3UuYbjcijVA-108" vertex="1">
                    <mxGeometry x="208.95000000000005" y="6" width="29.099999999999998" height="29.099999999999998" as="geometry"/>
                </mxCell>
                <mxCell id="N3menfLau3UuYbjcijVA-113" value="&lt;b&gt;&lt;font style=&quot;font-size: 20px&quot;&gt;Card title&lt;/font&gt;&lt;/b&gt;&lt;br style=&quot;font-size: 14px&quot;&gt;&lt;br style=&quot;font-size: 14px&quot;&gt;Some quick example text to build on the card title and make up the bulk of the card's content." style="html=1;shadow=0;dashed=0;shape=mxgraph.bootstrap.rrect;rSize=5;strokeColor=#DFDFDF;html=1;whiteSpace=wrap;fillColor=#ffffff;fontColor=#000000;verticalAlign=bottom;align=left;spacing=20;spacingBottom=50;fontSize=14;" parent="N3menfLau3UuYbjcijVA-94" vertex="1">
                    <mxGeometry x="290" y="610" width="250" height="350" as="geometry"/>
                </mxCell>
                <mxCell id="N3menfLau3UuYbjcijVA-114" value="Image cap" style="html=1;shadow=0;dashed=0;shape=mxgraph.bootstrap.topButton;rSize=5;perimeter=none;whiteSpace=wrap;fillColor=#868E96;strokeColor=#DFDFDF;fontColor=#DEE2E6;resizeWidth=1;fontSize=18;" parent="N3menfLau3UuYbjcijVA-113" vertex="1">
                    <mxGeometry width="250" height="180" relative="1" as="geometry"/>
                </mxCell>
                <mxCell id="N3menfLau3UuYbjcijVA-115" value="Go somewhere" style="html=1;shadow=0;dashed=0;shape=mxgraph.bootstrap.rrect;rSize=5;perimeter=none;whiteSpace=wrap;fillColor=#0085FC;strokeColor=none;fontColor=#ffffff;resizeWidth=1;fontSize=14;" parent="N3menfLau3UuYbjcijVA-113" vertex="1">
                    <mxGeometry y="1" width="120" height="40" relative="1" as="geometry">
                        <mxPoint x="20" y="-60" as="offset"/>
                    </mxGeometry>
                </mxCell>
                <mxCell id="N3menfLau3UuYbjcijVA-116" value="" style="aspect=fixed;pointerEvents=1;shadow=0;dashed=0;html=1;strokeColor=none;labelPosition=center;verticalLabelPosition=bottom;verticalAlign=top;align=center;fillColor=#00188D;shape=mxgraph.azure.user" parent="N3menfLau3UuYbjcijVA-113" vertex="1">
                    <mxGeometry x="200" y="286" width="47" height="50" as="geometry"/>
                </mxCell>
                <mxCell id="N3menfLau3UuYbjcijVA-117" value="" style="html=1;verticalLabelPosition=bottom;align=center;labelBackgroundColor=#ffffff;verticalAlign=top;strokeWidth=2;strokeColor=#0080F0;shadow=0;dashed=0;shape=mxgraph.ios7.icons.compose;fillColor=none;fontSize=19;" parent="N3menfLau3UuYbjcijVA-113" vertex="1">
                    <mxGeometry x="208.95000000000005" y="6" width="29.099999999999998" height="29.099999999999998" as="geometry"/>
                </mxCell>
                <mxCell id="N3menfLau3UuYbjcijVA-118" value="&lt;b&gt;&lt;font style=&quot;font-size: 20px&quot;&gt;Card title&lt;/font&gt;&lt;/b&gt;&lt;br style=&quot;font-size: 14px&quot;&gt;&lt;br style=&quot;font-size: 14px&quot;&gt;Some quick example text to build on the card title and make up the bulk of the card's content." style="html=1;shadow=0;dashed=0;shape=mxgraph.bootstrap.rrect;rSize=5;strokeColor=#DFDFDF;html=1;whiteSpace=wrap;fillColor=#ffffff;fontColor=#000000;verticalAlign=bottom;align=left;spacing=20;spacingBottom=50;fontSize=14;" parent="N3menfLau3UuYbjcijVA-94" vertex="1">
                    <mxGeometry x="20" y="610" width="240" height="350" as="geometry"/>
                </mxCell>
                <mxCell id="N3menfLau3UuYbjcijVA-119" value="Image cap" style="html=1;shadow=0;dashed=0;shape=mxgraph.bootstrap.topButton;rSize=5;perimeter=none;whiteSpace=wrap;fillColor=#868E96;strokeColor=#DFDFDF;fontColor=#DEE2E6;resizeWidth=1;fontSize=18;" parent="N3menfLau3UuYbjcijVA-118" vertex="1">
                    <mxGeometry width="240" height="180" relative="1" as="geometry"/>
                </mxCell>
                <mxCell id="N3menfLau3UuYbjcijVA-120" value="Go somewhere" style="html=1;shadow=0;dashed=0;shape=mxgraph.bootstrap.rrect;rSize=5;perimeter=none;whiteSpace=wrap;fillColor=#0085FC;strokeColor=none;fontColor=#ffffff;resizeWidth=1;fontSize=14;" parent="N3menfLau3UuYbjcijVA-118" vertex="1">
                    <mxGeometry y="1" width="115.19999999999999" height="40" relative="1" as="geometry">
                        <mxPoint x="20" y="-60" as="offset"/>
                    </mxGeometry>
                </mxCell>
                <mxCell id="N3menfLau3UuYbjcijVA-121" value="" style="html=1;verticalLabelPosition=bottom;align=center;labelBackgroundColor=#ffffff;verticalAlign=top;strokeWidth=2;strokeColor=#0080F0;shadow=0;dashed=0;shape=mxgraph.ios7.icons.compose;fillColor=none;fontSize=19;" parent="N3menfLau3UuYbjcijVA-118" vertex="1">
                    <mxGeometry x="202" y="6" width="29.099999999999998" height="29.099999999999998" as="geometry"/>
                </mxCell>
                <mxCell id="N3menfLau3UuYbjcijVA-122" value="&lt;b&gt;&lt;font style=&quot;font-size: 20px&quot;&gt;Card title&lt;/font&gt;&lt;/b&gt;&lt;br style=&quot;font-size: 14px&quot;&gt;&lt;br style=&quot;font-size: 14px&quot;&gt;Some quick example text to build on the card title and make up the bulk of the card's content." style="html=1;shadow=0;dashed=0;shape=mxgraph.bootstrap.rrect;rSize=5;strokeColor=#DFDFDF;html=1;whiteSpace=wrap;fillColor=#ffffff;fontColor=#000000;verticalAlign=bottom;align=left;spacing=20;spacingBottom=50;fontSize=14;" parent="N3menfLau3UuYbjcijVA-94" vertex="1">
                    <mxGeometry x="570" y="610" width="250" height="350" as="geometry"/>
                </mxCell>
                <mxCell id="N3menfLau3UuYbjcijVA-123" value="Image cap" style="html=1;shadow=0;dashed=0;shape=mxgraph.bootstrap.topButton;rSize=5;perimeter=none;whiteSpace=wrap;fillColor=#868E96;strokeColor=#DFDFDF;fontColor=#DEE2E6;resizeWidth=1;fontSize=18;" parent="N3menfLau3UuYbjcijVA-122" vertex="1">
                    <mxGeometry width="250" height="180" relative="1" as="geometry"/>
                </mxCell>
                <mxCell id="N3menfLau3UuYbjcijVA-124" value="Go somewhere" style="html=1;shadow=0;dashed=0;shape=mxgraph.bootstrap.rrect;rSize=5;perimeter=none;whiteSpace=wrap;fillColor=#0085FC;strokeColor=none;fontColor=#ffffff;resizeWidth=1;fontSize=14;" parent="N3menfLau3UuYbjcijVA-122" vertex="1">
                    <mxGeometry y="1" width="120" height="40" relative="1" as="geometry">
                        <mxPoint x="20" y="-60" as="offset"/>
                    </mxGeometry>
                </mxCell>
                <mxCell id="N3menfLau3UuYbjcijVA-125" value="" style="aspect=fixed;pointerEvents=1;shadow=0;dashed=0;html=1;strokeColor=none;labelPosition=center;verticalLabelPosition=bottom;verticalAlign=top;align=center;fillColor=#00188D;shape=mxgraph.azure.user" parent="N3menfLau3UuYbjcijVA-122" vertex="1">
                    <mxGeometry x="200" y="290" width="47" height="50" as="geometry"/>
                </mxCell>
                <mxCell id="N3menfLau3UuYbjcijVA-126" value="" style="html=1;verticalLabelPosition=bottom;align=center;labelBackgroundColor=#ffffff;verticalAlign=top;strokeWidth=2;strokeColor=#0080F0;shadow=0;dashed=0;shape=mxgraph.ios7.icons.compose;fillColor=none;fontSize=19;" parent="N3menfLau3UuYbjcijVA-122" vertex="1">
                    <mxGeometry x="208.95000000000005" y="6" width="29.099999999999998" height="29.099999999999998" as="geometry"/>
                </mxCell>
                <mxCell id="N3menfLau3UuYbjcijVA-127" value="" style="html=1;shadow=0;dashed=0;shape=mxgraph.bootstrap.rrect;rSize=5;strokeColor=#DEE2E6;html=1;whiteSpace=wrap;fillColor=#ffffff;fontColor=#0085FC;fontSize=14;align=left;" parent="N3menfLau3UuYbjcijVA-94" vertex="1">
                    <mxGeometry x="305" y="980" width="220" height="30" as="geometry"/>
                </mxCell>
                <mxCell id="N3menfLau3UuYbjcijVA-128" value="Previous" style="strokeColor=inherit;fillColor=inherit;gradientColor=inherit;fontColor=inherit;html=1;shadow=0;dashed=0;shape=mxgraph.bootstrap.leftButton;rSize=5;perimeter=none;whiteSpace=wrap;resizeHeight=1;fontSize=14;" parent="N3menfLau3UuYbjcijVA-127" vertex="1">
                    <mxGeometry width="70" height="30" relative="1" as="geometry"/>
                </mxCell>
                <mxCell id="N3menfLau3UuYbjcijVA-129" value="1" style="strokeColor=inherit;fillColor=inherit;gradientColor=inherit;fontColor=inherit;html=1;shadow=0;dashed=0;perimeter=none;whiteSpace=wrap;resizeHeight=1;fontSize=14;" parent="N3menfLau3UuYbjcijVA-127" vertex="1">
                    <mxGeometry width="30" height="30" relative="1" as="geometry">
                        <mxPoint x="70" as="offset"/>
                    </mxGeometry>
                </mxCell>
                <mxCell id="N3menfLau3UuYbjcijVA-130" value="2" style="strokeColor=inherit;fillColor=inherit;gradientColor=inherit;fontColor=inherit;html=1;shadow=0;dashed=0;perimeter=none;whiteSpace=wrap;resizeHeight=1;fontSize=14;" parent="N3menfLau3UuYbjcijVA-127" vertex="1">
                    <mxGeometry width="30" height="30" relative="1" as="geometry">
                        <mxPoint x="100" as="offset"/>
                    </mxGeometry>
                </mxCell>
                <mxCell id="N3menfLau3UuYbjcijVA-131" value="3" style="strokeColor=inherit;fillColor=inherit;gradientColor=inherit;fontColor=inherit;html=1;shadow=0;dashed=0;perimeter=none;whiteSpace=wrap;resizeHeight=1;fontSize=14;" parent="N3menfLau3UuYbjcijVA-127" vertex="1">
                    <mxGeometry width="30" height="30" relative="1" as="geometry">
                        <mxPoint x="130" as="offset"/>
                    </mxGeometry>
                </mxCell>
                <mxCell id="N3menfLau3UuYbjcijVA-132" value="Next" style="strokeColor=inherit;fillColor=inherit;gradientColor=inherit;fontColor=inherit;html=1;shadow=0;dashed=0;shape=mxgraph.bootstrap.rightButton;rSize=5;perimeter=none;whiteSpace=wrap;resizeHeight=1;fontSize=14;" parent="N3menfLau3UuYbjcijVA-127" vertex="1">
                    <mxGeometry x="1" width="60" height="30" relative="1" as="geometry">
                        <mxPoint x="-60" as="offset"/>
                    </mxGeometry>
                </mxCell>
                <mxCell id="N3menfLau3UuYbjcijVA-133" value="Utilisateurs" style="html=1;shadow=0;dashed=0;shape=mxgraph.bootstrap.rrect;rSize=5;strokeColor=none;strokeWidth=1;fillColor=none;fontColor=#0085FC;whiteSpace=wrap;align=center;verticalAlign=middle;spacingLeft=0;fontStyle=0;fontSize=16;spacing=5;" parent="N3menfLau3UuYbjcijVA-94" vertex="1">
                    <mxGeometry x="690" y="120" width="107" height="40" as="geometry"/>
                </mxCell>
                <mxCell id="N3menfLau3UuYbjcijVA-134" value="" style="html=1;verticalLabelPosition=bottom;align=center;labelBackgroundColor=#ffffff;verticalAlign=top;strokeWidth=2;strokeColor=#0080F0;shadow=0;dashed=0;shape=mxgraph.ios7.icons.add;fillColor=none;" parent="N3menfLau3UuYbjcijVA-94" vertex="1">
                    <mxGeometry x="781" y="170" width="30" height="30" as="geometry"/>
                </mxCell>
                <mxCell id="N3menfLau3UuYbjcijVA-135" value="" style="shape=rect;fillColor=#F6F6F6;strokeColor=none;align=left;" parent="N3menfLau3UuYbjcijVA-94" vertex="1">
                    <mxGeometry x="260" y="170" width="310" height="30" as="geometry"/>
                </mxCell>
                <mxCell id="N3menfLau3UuYbjcijVA-136" value="" style="html=1;strokeWidth=1;shadow=0;dashed=0;shape=mxgraph.ios7ui.marginRect;rx=3;ry=3;rectMargin=5;fillColor=#E4E4E4;strokeColor=none;" parent="N3menfLau3UuYbjcijVA-135" vertex="1">
                    <mxGeometry width="310" height="30" as="geometry"/>
                </mxCell>
                <mxCell id="N3menfLau3UuYbjcijVA-137" value="Search" style="shape=mxgraph.ios7.icons.looking_glass;strokeColor=#878789;fillColor=none;fontColor=#878789;labelPosition=right;verticalLabelPosition=middle;align=left;verticalAlign=middle;fontSize=6;fontStyle=0;spacingTop=2;" parent="N3menfLau3UuYbjcijVA-135" vertex="1">
                    <mxGeometry x="0.5" y="0.5" width="6" height="6" relative="1" as="geometry">
                        <mxPoint x="-17" y="-3" as="offset"/>
                    </mxGeometry>
                </mxCell>
                <mxCell id="N3menfLau3UuYbjcijVA-138" style="edgeStyle=orthogonalEdgeStyle;rounded=0;orthogonalLoop=1;jettySize=auto;html=1;fontSize=19;" parent="4X2lIQblnsY20KKgjXDM-1" source="N3menfLau3UuYbjcijVA-91" target="N3menfLau3UuYbjcijVA-94" edge="1">
                    <mxGeometry relative="1" as="geometry"/>
                </mxCell>
                <mxCell id="N3menfLau3UuYbjcijVA-140" value="&lt;span style=&quot;font-size: 14px&quot;&gt;&lt;b&gt;Créer/Modifier un lien&lt;/b&gt;&lt;/span&gt;&lt;br&gt;&lt;div&gt;&lt;hr&gt;&lt;/div&gt;" style="html=1;rounded=1;fillColor=#ffffff;strokeColor=#DFE1E5;fontSize=12;align=left;fontColor=#000000;shadow=1;arcSize=1;whiteSpace=wrap;spacing=20;verticalAlign=top;" parent="4X2lIQblnsY20KKgjXDM-1" vertex="1">
                    <mxGeometry x="1220" y="1030" width="480" height="400" as="geometry"/>
                </mxCell>
                <mxCell id="N3menfLau3UuYbjcijVA-141" value="Modifier" style="dashed=0;html=1;rounded=1;fillColor=#0057D8;strokeColor=none;fontSize=12;align=center;fontStyle=0;strokeWidth=2;fontColor=#ffffff" parent="N3menfLau3UuYbjcijVA-140" vertex="1">
                    <mxGeometry width="80" height="33" relative="1" as="geometry">
                        <mxPoint x="380" y="350" as="offset"/>
                    </mxGeometry>
                </mxCell>
                <mxCell id="N3menfLau3UuYbjcijVA-142" value="Cancel" style="dashed=0;html=1;rounded=1;fillColor=none;strokeColor=none;fontSize=12;align=center;fontStyle=0;strokeWidth=2;fontColor=#596780" parent="N3menfLau3UuYbjcijVA-140" vertex="1">
                    <mxGeometry width="50" height="33" relative="1" as="geometry">
                        <mxPoint x="310" y="350" as="offset"/>
                    </mxGeometry>
                </mxCell>
                <mxCell id="N3menfLau3UuYbjcijVA-144" value="Titre" style="html=1;shadow=0;dashed=0;shape=mxgraph.bootstrap.rrect;rSize=5;strokeColor=#CED4DA;strokeWidth=1;fillColor=#E9ECEF;fontColor=#505050;whiteSpace=wrap;align=left;verticalAlign=middle;spacingLeft=10;fontSize=14;" parent="N3menfLau3UuYbjcijVA-140" vertex="1">
                    <mxGeometry x="21" y="80" width="310" height="40" as="geometry"/>
                </mxCell>
                <mxCell id="N3menfLau3UuYbjcijVA-145" value="Description" style="html=1;shadow=0;dashed=0;shape=mxgraph.bootstrap.rrect;rSize=5;strokeColor=#CED4DA;strokeWidth=1;fillColor=#E9ECEF;fontColor=#505050;whiteSpace=wrap;align=left;verticalAlign=middle;spacingLeft=10;fontSize=14;" parent="N3menfLau3UuYbjcijVA-140" vertex="1">
                    <mxGeometry x="21" y="150" width="310" height="40" as="geometry"/>
                </mxCell>
                <mxCell id="N3menfLau3UuYbjcijVA-146" value="Lien" style="html=1;shadow=0;dashed=0;shape=mxgraph.bootstrap.rrect;rSize=5;strokeColor=#CED4DA;strokeWidth=1;fillColor=#E9ECEF;fontColor=#505050;whiteSpace=wrap;align=left;verticalAlign=middle;spacingLeft=10;fontSize=14;" parent="N3menfLau3UuYbjcijVA-140" vertex="1">
                    <mxGeometry x="21" y="210" width="310" height="40" as="geometry"/>
                </mxCell>
                <mxCell id="N3menfLau3UuYbjcijVA-147" value="Utilisateur" style="html=1;shadow=0;dashed=0;shape=mxgraph.bootstrap.rrect;rSize=5;fillColor=#ffffff;strokeColor=#CED4DA;align=left;spacing=15;fontSize=14;fontColor=#6C767D;" parent="N3menfLau3UuYbjcijVA-140" vertex="1">
                    <mxGeometry x="21" y="270" width="309" height="40" as="geometry"/>
                </mxCell>
                <mxCell id="N3menfLau3UuYbjcijVA-148" value="" style="shape=triangle;direction=south;fillColor=#343A40;strokeColor=none;perimeter=none;" parent="N3menfLau3UuYbjcijVA-147" vertex="1">
                    <mxGeometry x="1" y="0.5" width="7" height="3" relative="1" as="geometry">
                        <mxPoint x="-17" y="1" as="offset"/>
                    </mxGeometry>
                </mxCell>
                <mxCell id="N3menfLau3UuYbjcijVA-149" value="" style="shape=triangle;direction=north;fillColor=#343A40;strokeColor=none;perimeter=none;" parent="N3menfLau3UuYbjcijVA-147" vertex="1">
                    <mxGeometry x="1" y="0.5" width="7" height="3" relative="1" as="geometry">
                        <mxPoint x="-17" y="-4" as="offset"/>
                    </mxGeometry>
                </mxCell>
                <mxCell id="JxySecNM7amGOJ577b3D-8" value="Supprimer" style="labelPosition=center;verticalLabelPosition=middle;align=center;html=1;shape=mxgraph.basic.shaded_button;dx=10;fillColor=#E6E6E6;strokeColor=none;fontSize=19;" parent="N3menfLau3UuYbjcijVA-140" vertex="1">
                    <mxGeometry x="15" y="330" width="185" height="60" as="geometry"/>
                </mxCell>
                <mxCell id="N3menfLau3UuYbjcijVA-143" style="edgeStyle=orthogonalEdgeStyle;rounded=0;orthogonalLoop=1;jettySize=auto;html=1;entryX=-0.005;entryY=0.19;entryDx=0;entryDy=0;entryPerimeter=0;fontSize=19;" parent="4X2lIQblnsY20KKgjXDM-1" source="N3menfLau3UuYbjcijVA-36" target="N3menfLau3UuYbjcijVA-94" edge="1">
                    <mxGeometry relative="1" as="geometry"/>
                </mxCell>
                <mxCell id="N3menfLau3UuYbjcijVA-150" value="" style="strokeWidth=1;shadow=0;dashed=0;align=center;html=1;shape=mxgraph.mockup.containers.browserWindow;rSize=0;strokeColor=#666666;strokeColor2=#008cff;strokeColor3=#c4c4c4;mainText=,;recursiveResize=0;fillColor=none;" parent="4X2lIQblnsY20KKgjXDM-1" vertex="1">
                    <mxGeometry x="1080" y="24.55" width="830" height="570" as="geometry"/>
                </mxCell>
                <mxCell id="N3menfLau3UuYbjcijVA-151" value="Page 1" style="strokeWidth=1;shadow=0;dashed=0;align=center;html=1;shape=mxgraph.mockup.containers.anchor;fontSize=17;fontColor=#666666;align=left;" parent="N3menfLau3UuYbjcijVA-150" vertex="1">
                    <mxGeometry x="60" y="12" width="110" height="26" as="geometry"/>
                </mxCell>
                <mxCell id="N3menfLau3UuYbjcijVA-152" value="https://www.draw.io" style="strokeWidth=1;shadow=0;dashed=0;align=center;html=1;shape=mxgraph.mockup.containers.anchor;rSize=0;fontSize=17;fontColor=#666666;align=left;" parent="N3menfLau3UuYbjcijVA-150" vertex="1">
                    <mxGeometry x="130" y="60" width="250" height="26" as="geometry"/>
                </mxCell>
                <mxCell id="N3menfLau3UuYbjcijVA-153" value="&lt;table border=&quot;1&quot; width=&quot;100%&quot; cellpadding=&quot;4&quot; style=&quot;width: 100% ; height: 100% ; border-collapse: collapse&quot;&gt;&lt;tbody&gt;&lt;tr style=&quot;background-color: #a7c942 ; color: #ffffff ; border: 1px solid #98bf21&quot;&gt;&lt;th align=&quot;left&quot;&gt;Surname&lt;/th&gt;&lt;th align=&quot;left&quot;&gt;Forename&lt;/th&gt;&lt;th align=&quot;left&quot;&gt;Mail&lt;/th&gt;&lt;/tr&gt;&lt;tr style=&quot;border: 1px solid #98bf21&quot;&gt;&lt;td&gt;Value 1&lt;/td&gt;&lt;td&gt;Value 2&lt;/td&gt;&lt;td&gt;Value 3&lt;/td&gt;&lt;/tr&gt;&lt;tr style=&quot;background-color: #eaf2d3 ; border: 1px solid #98bf21&quot;&gt;&lt;td&gt;Value 4&lt;/td&gt;&lt;td&gt;Value 5&lt;/td&gt;&lt;td&gt;Value 6&lt;/td&gt;&lt;/tr&gt;&lt;tr style=&quot;border: 1px solid #98bf21&quot;&gt;&lt;td&gt;Value 7&lt;/td&gt;&lt;td&gt;Value 8&lt;/td&gt;&lt;td&gt;Value 9&lt;/td&gt;&lt;/tr&gt;&lt;tr style=&quot;background-color: #eaf2d3 ; border: 1px solid #98bf21&quot;&gt;&lt;td&gt;Value 10&lt;/td&gt;&lt;td&gt;Value 11&lt;/td&gt;&lt;td&gt;Value 12&lt;/td&gt;&lt;/tr&gt;&lt;/tbody&gt;&lt;/table&gt;" style="text;html=1;strokeColor=#c0c0c0;fillColor=#ffffff;overflow=fill;rounded=0;" parent="N3menfLau3UuYbjcijVA-150" vertex="1">
                    <mxGeometry x="50" y="210" width="740" height="270" as="geometry"/>
                </mxCell>
                <mxCell id="N3menfLau3UuYbjcijVA-154" value="" style="html=1;shadow=0;dashed=0;shape=mxgraph.bootstrap.rrect;rSize=5;strokeColor=#DEE2E6;html=1;whiteSpace=wrap;fillColor=#ffffff;fontColor=#0085FC;fontSize=14;" parent="N3menfLau3UuYbjcijVA-150" vertex="1">
                    <mxGeometry x="304" y="500" width="220" height="30" as="geometry"/>
                </mxCell>
                <mxCell id="N3menfLau3UuYbjcijVA-155" value="Previous" style="strokeColor=inherit;fillColor=inherit;gradientColor=inherit;html=1;shadow=0;dashed=0;shape=mxgraph.bootstrap.leftButton;rSize=5;perimeter=none;whiteSpace=wrap;resizeHeight=1;fontColor=#6C767D;fontSize=14;" parent="N3menfLau3UuYbjcijVA-154" vertex="1">
                    <mxGeometry width="70" height="30" relative="1" as="geometry"/>
                </mxCell>
                <mxCell id="N3menfLau3UuYbjcijVA-156" value="Next" style="strokeColor=inherit;fillColor=inherit;gradientColor=inherit;fontColor=inherit;html=1;shadow=0;dashed=0;shape=mxgraph.bootstrap.rightButton;rSize=5;perimeter=none;whiteSpace=wrap;resizeHeight=1;fontSize=14;" parent="N3menfLau3UuYbjcijVA-154" vertex="1">
                    <mxGeometry x="1" width="60" height="30" relative="1" as="geometry">
                        <mxPoint x="-60" as="offset"/>
                    </mxGeometry>
                </mxCell>
                <mxCell id="N3menfLau3UuYbjcijVA-157" value="" style="html=1;verticalLabelPosition=bottom;labelBackgroundColor=#ffffff;verticalAlign=top;shadow=0;dashed=0;strokeWidth=2;shape=mxgraph.ios7.misc.delete;fillColor=#ff0000;strokeColor=#ffffff;" parent="N3menfLau3UuYbjcijVA-150" vertex="1">
                    <mxGeometry x="750" y="280" width="22" height="22" as="geometry"/>
                </mxCell>
                <mxCell id="N3menfLau3UuYbjcijVA-158" value="" style="html=1;verticalLabelPosition=bottom;labelBackgroundColor=#ffffff;verticalAlign=top;shadow=0;dashed=0;strokeWidth=2;shape=mxgraph.ios7.misc.delete;fillColor=#ff0000;strokeColor=#ffffff;" parent="N3menfLau3UuYbjcijVA-150" vertex="1">
                    <mxGeometry x="750" y="334" width="22" height="22" as="geometry"/>
                </mxCell>
                <mxCell id="N3menfLau3UuYbjcijVA-159" value="" style="html=1;verticalLabelPosition=bottom;labelBackgroundColor=#ffffff;verticalAlign=top;shadow=0;dashed=0;strokeWidth=2;shape=mxgraph.ios7.misc.delete;fillColor=#ff0000;strokeColor=#ffffff;" parent="N3menfLau3UuYbjcijVA-150" vertex="1">
                    <mxGeometry x="750" y="390" width="22" height="22" as="geometry"/>
                </mxCell>
                <mxCell id="N3menfLau3UuYbjcijVA-160" value="" style="html=1;verticalLabelPosition=bottom;labelBackgroundColor=#ffffff;verticalAlign=top;shadow=0;dashed=0;strokeWidth=2;shape=mxgraph.ios7.misc.delete;fillColor=#ff0000;strokeColor=#ffffff;" parent="N3menfLau3UuYbjcijVA-150" vertex="1">
                    <mxGeometry x="750" y="440" width="22" height="22" as="geometry"/>
                </mxCell>
                <mxCell id="N3menfLau3UuYbjcijVA-161" value="" style="html=1;verticalLabelPosition=bottom;align=center;labelBackgroundColor=#ffffff;verticalAlign=top;strokeWidth=2;strokeColor=#0080F0;shadow=0;dashed=0;shape=mxgraph.ios7.icons.compose;fillColor=none;" parent="N3menfLau3UuYbjcijVA-150" vertex="1">
                    <mxGeometry x="700" y="280" width="29.099999999999998" height="29.099999999999998" as="geometry"/>
                </mxCell>
                <mxCell id="N3menfLau3UuYbjcijVA-162" value="" style="html=1;verticalLabelPosition=bottom;align=center;labelBackgroundColor=#ffffff;verticalAlign=top;strokeWidth=2;strokeColor=#0080F0;shadow=0;dashed=0;shape=mxgraph.ios7.icons.compose;fillColor=none;" parent="N3menfLau3UuYbjcijVA-150" vertex="1">
                    <mxGeometry x="700" y="330.45" width="29.099999999999998" height="29.099999999999998" as="geometry"/>
                </mxCell>
                <mxCell id="N3menfLau3UuYbjcijVA-163" value="" style="html=1;verticalLabelPosition=bottom;align=center;labelBackgroundColor=#ffffff;verticalAlign=top;strokeWidth=2;strokeColor=#0080F0;shadow=0;dashed=0;shape=mxgraph.ios7.icons.compose;fillColor=none;" parent="N3menfLau3UuYbjcijVA-150" vertex="1">
                    <mxGeometry x="700" y="386.45" width="29.099999999999998" height="29.099999999999998" as="geometry"/>
                </mxCell>
                <mxCell id="N3menfLau3UuYbjcijVA-164" value="" style="html=1;verticalLabelPosition=bottom;align=center;labelBackgroundColor=#ffffff;verticalAlign=top;strokeWidth=2;strokeColor=#0080F0;shadow=0;dashed=0;shape=mxgraph.ios7.icons.compose;fillColor=none;" parent="N3menfLau3UuYbjcijVA-150" vertex="1">
                    <mxGeometry x="700" y="436.45" width="29.099999999999998" height="29.099999999999998" as="geometry"/>
                </mxCell>
                <mxCell id="N3menfLau3UuYbjcijVA-165" value="Créer un utilisateur" style="rounded=1;html=1;shadow=0;dashed=0;whiteSpace=wrap;fontSize=10;fillColor=#666666;align=center;strokeColor=#4D4D4D;fontColor=#ffffff;" parent="N3menfLau3UuYbjcijVA-150" vertex="1">
                    <mxGeometry x="650" y="170" width="140.5" height="30" as="geometry"/>
                </mxCell>
                <mxCell id="N3menfLau3UuYbjcijVA-166" value="Liste des utilisateurs" style="text;strokeColor=none;fillColor=none;html=1;fontSize=24;fontStyle=1;verticalAlign=middle;align=left;" parent="N3menfLau3UuYbjcijVA-150" vertex="1">
                    <mxGeometry x="50" y="120" width="430" height="40" as="geometry"/>
                </mxCell>
                <mxCell id="N3menfLau3UuYbjcijVA-167" value="" style="shape=rect;fillColor=#e0e0e0;strokeColor=none;" parent="N3menfLau3UuYbjcijVA-150" vertex="1">
                    <mxGeometry x="260" y="170" width="400" height="340" as="geometry"/>
                </mxCell>
                <mxCell id="N3menfLau3UuYbjcijVA-168" value="" style="html=1;strokeWidth=1;shadow=0;dashed=0;shape=mxgraph.ios7ui.marginRect;rx=3;ry=3;rectMargin=5;strokeColor=none;" parent="N3menfLau3UuYbjcijVA-167" vertex="1">
                    <mxGeometry width="320" height="30" as="geometry"/>
                </mxCell>
                <mxCell id="N3menfLau3UuYbjcijVA-169" value="Search" style="shape=mxgraph.ios7.icons.looking_glass;strokeColor=#e0e0e0;fillColor=none;fontColor=#e0e0e0;labelPosition=right;verticalLabelPosition=middle;align=left;verticalAlign=middle;fontSize=6;fontStyle=0;spacingTop=2;" parent="N3menfLau3UuYbjcijVA-167" vertex="1">
                    <mxGeometry x="0.5" y="0.5" width="6" height="6" relative="1" as="geometry">
                        <mxPoint x="-17" y="-3" as="offset"/>
                    </mxGeometry>
                </mxCell>
                <mxCell id="N3menfLau3UuYbjcijVA-170" value="&lt;span style=&quot;font-size: 14px&quot;&gt;&lt;b&gt;Créer/Modifier un utilisateur&lt;/b&gt;&lt;/span&gt;&lt;br&gt;&lt;div&gt;&lt;hr&gt;&lt;/div&gt;" style="html=1;rounded=1;fillColor=#ffffff;strokeColor=#DFE1E5;fontSize=12;align=left;fontColor=#000000;shadow=1;arcSize=1;whiteSpace=wrap;spacing=20;verticalAlign=top;" parent="N3menfLau3UuYbjcijVA-167" vertex="1">
                    <mxGeometry x="-80" y="-60" width="480" height="400" as="geometry"/>
                </mxCell>
                <mxCell id="N3menfLau3UuYbjcijVA-171" value="Modifier" style="dashed=0;html=1;rounded=1;fillColor=#0057D8;strokeColor=none;fontSize=12;align=center;fontStyle=0;strokeWidth=2;fontColor=#ffffff" parent="N3menfLau3UuYbjcijVA-170" vertex="1">
                    <mxGeometry width="80" height="33" relative="1" as="geometry">
                        <mxPoint x="380" y="350" as="offset"/>
                    </mxGeometry>
                </mxCell>
                <mxCell id="N3menfLau3UuYbjcijVA-172" value="Cancel" style="dashed=0;html=1;rounded=1;fillColor=none;strokeColor=none;fontSize=12;align=center;fontStyle=0;strokeWidth=2;fontColor=#596780" parent="N3menfLau3UuYbjcijVA-170" vertex="1">
                    <mxGeometry width="50" height="33" relative="1" as="geometry">
                        <mxPoint x="310" y="350" as="offset"/>
                    </mxGeometry>
                </mxCell>
                <mxCell id="N3menfLau3UuYbjcijVA-173" value="Nom" style="html=1;shadow=0;dashed=0;shape=mxgraph.bootstrap.rrect;rSize=5;strokeColor=#CED4DA;strokeWidth=1;fillColor=#E9ECEF;fontColor=#505050;whiteSpace=wrap;align=left;verticalAlign=middle;spacingLeft=10;fontSize=14;" parent="N3menfLau3UuYbjcijVA-170" vertex="1">
                    <mxGeometry x="21" y="80" width="310" height="40" as="geometry"/>
                </mxCell>
                <mxCell id="N3menfLau3UuYbjcijVA-174" value="Prenom" style="html=1;shadow=0;dashed=0;shape=mxgraph.bootstrap.rrect;rSize=5;strokeColor=#CED4DA;strokeWidth=1;fillColor=#E9ECEF;fontColor=#505050;whiteSpace=wrap;align=left;verticalAlign=middle;spacingLeft=10;fontSize=14;" parent="N3menfLau3UuYbjcijVA-170" vertex="1">
                    <mxGeometry x="21" y="150" width="310" height="40" as="geometry"/>
                </mxCell>
                <mxCell id="N3menfLau3UuYbjcijVA-175" value="Mail" style="html=1;shadow=0;dashed=0;shape=mxgraph.bootstrap.rrect;rSize=5;strokeColor=#CED4DA;strokeWidth=1;fillColor=#E9ECEF;fontColor=#505050;whiteSpace=wrap;align=left;verticalAlign=middle;spacingLeft=10;fontSize=14;" parent="N3menfLau3UuYbjcijVA-170" vertex="1">
                    <mxGeometry x="21" y="210" width="310" height="40" as="geometry"/>
                </mxCell>
                <mxCell id="N3menfLau3UuYbjcijVA-179" style="edgeStyle=orthogonalEdgeStyle;rounded=0;orthogonalLoop=1;jettySize=auto;html=1;fontSize=19;" parent="4X2lIQblnsY20KKgjXDM-1" source="ZiFBqTPpbIGO_TOdWe_P-14" target="N3menfLau3UuYbjcijVA-150" edge="1">
                    <mxGeometry relative="1" as="geometry"/>
                </mxCell>
                <mxCell id="N3menfLau3UuYbjcijVA-180" style="edgeStyle=orthogonalEdgeStyle;rounded=0;orthogonalLoop=1;jettySize=auto;html=1;entryX=0.002;entryY=0.49;entryDx=0;entryDy=0;entryPerimeter=0;fontSize=19;" parent="4X2lIQblnsY20KKgjXDM-1" source="ZiFBqTPpbIGO_TOdWe_P-18" target="N3menfLau3UuYbjcijVA-150" edge="1">
                    <mxGeometry relative="1" as="geometry"/>
                </mxCell>
                <mxCell id="JxySecNM7amGOJ577b3D-0" value="Modal title" style="html=1;shadow=0;dashed=0;shape=mxgraph.bootstrap.rrect;rSize=5;html=1;strokeColor=#C8C8C8;fillColor=#ffffff;whiteSpace=wrap;verticalAlign=top;align=left;fontSize=18;spacing=15;spacingTop=-5;" parent="4X2lIQblnsY20KKgjXDM-1" vertex="1">
                    <mxGeometry x="1990" y="530" width="400" height="200" as="geometry"/>
                </mxCell>
                <mxCell id="JxySecNM7amGOJ577b3D-1" value="" style="shape=line;strokeColor=#dddddd;resizeWidth=1;" parent="JxySecNM7amGOJ577b3D-0" vertex="1">
                    <mxGeometry width="400" height="10" relative="1" as="geometry">
                        <mxPoint y="50" as="offset"/>
                    </mxGeometry>
                </mxCell>
                <mxCell id="JxySecNM7amGOJ577b3D-2" value="" style="html=1;shadow=0;dashed=0;shape=mxgraph.bootstrap.x;strokeColor=#868686;strokeWidth=2;" parent="JxySecNM7amGOJ577b3D-0" vertex="1">
                    <mxGeometry x="1" width="8" height="8" relative="1" as="geometry">
                        <mxPoint x="-24" y="20" as="offset"/>
                    </mxGeometry>
                </mxCell>
                <mxCell id="JxySecNM7amGOJ577b3D-3" value="Etes-vous sur de vouloir supprimer ça ?" style="strokeColor=none;fillColor=none;resizeWidth=1;align=left;verticalAlign=top;spacing=10;fontSize=13;" parent="JxySecNM7amGOJ577b3D-0" vertex="1">
                    <mxGeometry width="400" height="40" relative="1" as="geometry">
                        <mxPoint y="60" as="offset"/>
                    </mxGeometry>
                </mxCell>
                <mxCell id="JxySecNM7amGOJ577b3D-4" value="" style="shape=line;strokeColor=#dddddd;resizeWidth=1;" parent="JxySecNM7amGOJ577b3D-0" vertex="1">
                    <mxGeometry width="400" height="10" relative="1" as="geometry">
                        <mxPoint y="120" as="offset"/>
                    </mxGeometry>
                </mxCell>
                <mxCell id="JxySecNM7amGOJ577b3D-5" value="OUI" style="html=1;shadow=0;dashed=0;shape=mxgraph.bootstrap.rrect;rSize=5;fillColor=#0085FC;strokeColor=none;fontColor=#FFFFFF;fontSize=14;" parent="JxySecNM7amGOJ577b3D-0" vertex="1">
                    <mxGeometry x="1" y="1" width="110" height="40" relative="1" as="geometry">
                        <mxPoint x="-130" y="-60" as="offset"/>
                    </mxGeometry>
                </mxCell>
                <mxCell id="JxySecNM7amGOJ577b3D-6" value="NON" style="html=1;shadow=0;dashed=0;shape=mxgraph.bootstrap.rrect;rSize=5;fillColor=#6C757D;strokeColor=none;fontColor=#FFFFFF;fontSize=14;" parent="JxySecNM7amGOJ577b3D-0" vertex="1">
                    <mxGeometry x="1" y="1" width="70" height="40" relative="1" as="geometry">
                        <mxPoint x="-220" y="-60" as="offset"/>
                    </mxGeometry>
                </mxCell>
                <mxCell id="JxySecNM7amGOJ577b3D-7" style="edgeStyle=orthogonalEdgeStyle;rounded=0;orthogonalLoop=1;jettySize=auto;html=1;entryX=-0.008;entryY=0.59;entryDx=0;entryDy=0;entryPerimeter=0;fontSize=19;" parent="4X2lIQblnsY20KKgjXDM-1" source="ZiFBqTPpbIGO_TOdWe_P-13" target="JxySecNM7amGOJ577b3D-0" edge="1">
                    <mxGeometry relative="1" as="geometry">
                        <Array as="points">
                            <mxPoint x="940" y="466"/>
                            <mxPoint x="940" y="640"/>
                            <mxPoint x="1987" y="640"/>
                        </Array>
                    </mxGeometry>
                </mxCell>
                <mxCell id="JxySecNM7amGOJ577b3D-10" style="edgeStyle=orthogonalEdgeStyle;rounded=0;orthogonalLoop=1;jettySize=auto;html=1;entryX=0.562;entryY=1.005;entryDx=0;entryDy=0;entryPerimeter=0;fontSize=19;" parent="4X2lIQblnsY20KKgjXDM-1" source="JxySecNM7amGOJ577b3D-8" target="JxySecNM7amGOJ577b3D-0" edge="1">
                    <mxGeometry relative="1" as="geometry"/>
                </mxCell>
            </root>
        </mxGraphModel>
    </diagram>
</mxfile>